# Blender v2.79 (sub 0) OBJ File: ''
# www.blender.org
mtllib untitled.mtl
o Cylinder
v 0.000000 -1.000000 -1.000000
v 0.000000 -0.605657 -1.208023
v 0.500000 -1.000000 -0.866025
v 0.604012 -0.605657 -1.046179
v 0.866025 -1.000000 -0.500000
v 1.046179 -0.605657 -0.604012
v 1.000000 -1.000000 0.000000
v 1.208023 -0.605657 0.000000
v 0.866025 -1.000000 0.500000
v 1.046179 -0.605657 0.604012
v 0.500000 -1.000000 0.866025
v 0.604012 -0.605657 1.046179
v 0.000000 -1.000000 1.000000
v 0.000000 -0.605657 1.208023
v -0.500000 -1.000000 0.866026
v -0.604011 -0.605657 1.046179
v -0.866025 -1.000000 0.500000
v -1.046179 -0.605657 0.604012
v -1.000000 -1.000000 0.000000
v -1.208023 -0.605657 0.000001
v -0.866026 -1.000000 -0.499999
v -1.046179 -0.605657 -0.604011
v -0.500001 -1.000000 -0.866025
v -0.604012 -0.605657 -1.046179
v 0.645415 -0.560671 -1.117892
v 0.000000 -0.560671 -1.290830
v 1.117892 -0.560671 -0.645415
v 1.290830 -0.560671 0.000000
v 1.117892 -0.560671 0.645415
v 0.645415 -0.560671 1.117891
v 0.000000 -0.560671 1.290830
v -0.645415 -0.560671 1.117892
v -1.117891 -0.560671 0.645415
v -1.290830 -0.560671 0.000001
v -1.117892 -0.560671 -0.645414
v -0.645416 -0.560671 -1.117891
v 0.761250 -0.560671 -1.318523
v 0.000000 -0.560671 -1.522499
v 1.318523 -0.560671 -0.761250
v 1.522499 -0.560671 -0.000000
v 1.318523 -0.560671 0.761250
v 0.761250 -0.560671 1.318523
v 0.000000 -0.560671 1.522499
v -0.761249 -0.560671 1.318523
v -1.318523 -0.560671 0.761250
v -1.522499 -0.560671 0.000001
v -1.318524 -0.560671 -0.761249
v -0.761251 -0.560671 -1.318523
v 0.761250 -0.560671 -1.318523
v 0.000000 -0.560671 -1.522499
v 1.318523 -0.560671 -0.761250
v 1.522499 -0.560671 -0.000000
v 1.318523 -0.560671 0.761250
v 0.761250 -0.560671 1.318523
v 0.000000 -0.560671 1.522499
v -0.761249 -0.560671 1.318523
v -1.318523 -0.560671 0.761250
v -1.522499 -0.560671 0.000001
v -1.318524 -0.560671 -0.761249
v -0.761251 -0.560671 -1.318523
v 0.761250 -0.560671 -1.318523
v 0.000000 -0.560671 -1.522499
v 1.318523 -0.560671 -0.761250
v 1.522499 -0.560671 -0.000000
v 1.318523 -0.560671 0.761250
v 0.761250 -0.560671 1.318523
v 0.000000 -0.560671 1.522499
v -0.761249 -0.560671 1.318523
v -1.318523 -0.560671 0.761250
v -1.522499 -0.560671 0.000001
v -1.318524 -0.560671 -0.761249
v -0.761251 -0.560671 -1.318523
v 0.620427 -0.486668 -1.074610
v 0.000000 -0.486668 -1.240853
v 1.074610 -0.486668 -0.620427
v 1.240853 -0.486668 -0.000000
v 1.074610 -0.486668 0.620426
v 0.620427 -0.486668 1.074610
v 0.000000 -0.486668 1.240853
v -0.620426 -0.486668 1.074610
v -1.074610 -0.486668 0.620427
v -1.240853 -0.486668 0.000000
v -1.074611 -0.486668 -0.620426
v -0.620427 -0.486668 -1.074610
v 0.761250 -0.486668 -1.318523
v 0.000000 -0.486668 -1.522499
v 1.318523 -0.486668 -0.761250
v 1.522499 -0.486668 -0.000000
v 1.318523 -0.486668 0.761250
v 0.761250 -0.486668 1.318523
v 0.000000 -0.486668 1.522499
v -0.761249 -0.486668 1.318523
v -1.318523 -0.486668 0.761250
v -1.522499 -0.486668 0.000001
v -1.318524 -0.486668 -0.761249
v -0.761251 -0.486668 -1.318523
v 0.726741 -0.486668 -1.258753
v 0.000000 -0.486668 -1.453483
v 1.258753 -0.486668 -0.726741
v 1.453483 -0.486668 -0.000000
v 1.258753 -0.486668 0.726741
v 0.726741 -0.486668 1.258753
v 0.000000 -0.486668 1.453483
v -0.726741 -0.486668 1.258753
v -1.258753 -0.486668 0.726742
v -1.453483 -0.486668 0.000001
v -1.258753 -0.486668 -0.726741
v -0.726742 -0.486668 -1.258753
v 0.620427 -0.486668 -1.074610
v 0.000000 -0.486668 -1.240853
v 1.074610 -0.486668 -0.620427
v 1.240853 -0.486668 -0.000000
v 1.074610 -0.486668 0.620426
v 0.620427 -0.486668 1.074610
v 0.000000 -0.486668 1.240853
v -0.620426 -0.486668 1.074610
v -1.074610 -0.486668 0.620427
v -1.240853 -0.486668 0.000000
v -1.074611 -0.486668 -0.620426
v -0.620427 -0.486668 -1.074610
v 0.525210 -0.486668 -0.909690
v 0.000000 -0.486668 -1.050420
v 0.909690 -0.486668 -0.525210
v 1.050420 -0.486668 -0.000000
v 0.909690 -0.486668 0.525210
v 0.525210 -0.486668 0.909690
v 0.000000 -0.486668 1.050420
v -0.525209 -0.486668 0.909690
v -0.909690 -0.486668 0.525210
v -1.050420 -0.486668 0.000000
v -0.909690 -0.486668 -0.525209
v -0.525210 -0.486668 -0.909690
v 0.525210 -0.704049 -0.909690
v 0.000000 -0.704049 -1.050420
v 0.909690 -0.704049 -0.525210
v 1.050420 -0.704049 -0.000000
v 0.909690 -0.704049 0.525210
v 0.525210 -0.704049 0.909690
v 0.000000 -0.704049 1.050420
v -0.525209 -0.704049 0.909690
v -0.909690 -0.704049 0.525210
v -1.050420 -0.704049 0.000000
v -0.909690 -0.704049 -0.525209
v -0.525210 -0.704049 -0.909690
vn 0.2306 -0.4540 -0.8606
vn 0.8606 -0.4540 -0.2306
vn 0.8606 -0.4540 0.2306
vn 0.2306 -0.4540 0.8606
vn -0.2306 -0.4540 0.8606
vn -0.8606 -0.4540 0.2306
vn -0.8606 -0.4540 -0.2306
vn 0.1269 -0.8716 0.4735
vn -0.2306 -0.4540 -0.8606
vn 0.0000 -1.0000 -0.0000
vn 0.3466 -0.8716 0.3466
vn 0.4735 -0.8716 0.1269
vn -0.1269 -0.8716 -0.4735
vn 0.1269 -0.8716 -0.4735
vn 0.4735 -0.8716 -0.1269
vn -0.3466 -0.8716 -0.3466
vn 0.3466 -0.8716 -0.3466
vn -0.4735 -0.8716 -0.1269
vn -0.4735 -0.8716 0.1269
vn -0.3466 -0.8716 0.3466
vn -0.1269 -0.8716 0.4735
vn 0.0000 0.0000 1.0000
vn -0.2588 0.0000 0.9659
vn 0.9659 0.0000 0.2588
vn -0.7071 0.0000 -0.7071
vn 0.2588 0.0000 -0.9659
vn -0.7071 0.0000 0.7071
vn 0.7071 0.0000 0.7071
vn -0.2588 0.0000 -0.9659
vn 0.7071 0.0000 -0.7071
vn -0.9659 0.0000 0.2588
vn 0.2588 0.0000 0.9659
vn 0.9659 0.0000 -0.2588
vn -0.9659 0.0000 -0.2588
vn 0.0000 1.0000 0.0000
vn 0.6300 -0.4540 -0.6300
vn 0.6300 -0.4540 0.6300
vn -0.6300 -0.4540 0.6300
vn -0.6300 -0.4540 -0.6300
usemtl Material.001
s off
f 1//1 2//1 4//1 3//1
f 5//2 6//2 8//2 7//2
f 7//3 8//3 10//3 9//3
f 11//4 12//4 14//4 13//4
f 13//5 14//5 16//5 15//5
f 17//6 18//6 20//6 19//6
f 19//7 20//7 22//7 21//7
f 14//8 12//8 30//8 31//8
f 23//9 24//9 2//9 1//9
f 1//10 3//10 5//10 7//10 9//10 11//10 13//10 15//10 17//10 19//10 21//10 23//10
f 34//10 33//10 45//10 46//10
f 12//11 10//11 29//11 30//11
f 10//12 8//12 28//12 29//12
f 2//13 24//13 36//13 26//13
f 4//14 2//14 26//14 25//14
f 8//15 6//15 27//15 28//15
f 24//16 22//16 35//16 36//16
f 6//17 4//17 25//17 27//17
f 22//18 20//18 34//18 35//18
f 20//19 18//19 33//19 34//19
f 18//20 16//20 32//20 33//20
f 16//21 14//21 31//21 32//21
f 41//22 40//22 52//22 53//22
f 31//10 30//10 42//10 43//10
f 28//10 27//10 39//10 40//10
f 35//10 34//10 46//10 47//10
f 32//10 31//10 43//10 44//10
f 29//10 28//10 40//10 41//10
f 36//10 35//10 47//10 48//10
f 25//10 26//10 38//10 37//10
f 33//10 32//10 44//10 45//10
f 30//10 29//10 41//10 42//10
f 26//10 36//10 48//10 38//10
f 27//10 25//10 37//10 39//10
f 53//22 52//22 64//22 65//22
f 48//22 47//22 59//22 60//22
f 37//22 38//22 50//22 49//22
f 45//22 44//22 56//22 57//22
f 42//22 41//22 53//22 54//22
f 38//22 48//22 60//22 50//22
f 39//22 37//22 49//22 51//22
f 46//22 45//22 57//22 58//22
f 43//22 42//22 54//22 55//22
f 40//22 39//22 51//22 52//22
f 47//22 46//22 58//22 59//22
f 44//22 43//22 55//22 56//22
f 68//23 67//23 91//23 92//23
f 60//22 59//22 71//22 72//22
f 49//22 50//22 62//22 61//22
f 57//22 56//22 68//22 69//22
f 54//22 53//22 65//22 66//22
f 50//22 60//22 72//22 62//22
f 51//22 49//22 61//22 63//22
f 58//22 57//22 69//22 70//22
f 55//22 54//22 66//22 67//22
f 52//22 51//22 63//22 64//22
f 59//22 58//22 70//22 71//22
f 56//22 55//22 67//22 68//22
f 73//22 74//22 110//22 109//22
f 65//24 64//24 88//24 89//24
f 72//25 71//25 95//25 96//25
f 61//26 62//26 86//26 85//26
f 69//27 68//27 92//27 93//27
f 66//28 65//28 89//28 90//28
f 62//29 72//29 96//29 86//29
f 63//30 61//30 85//30 87//30
f 70//31 69//31 93//31 94//31
f 67//32 66//32 90//32 91//32
f 64//33 63//33 87//33 88//33
f 71//34 70//34 94//34 95//34
f 98//35 97//35 85//35 86//35
f 97//35 99//35 87//35 85//35
f 99//35 100//35 88//35 87//35
f 100//35 101//35 89//35 88//35
f 101//35 102//35 90//35 89//35
f 102//35 103//35 91//35 90//35
f 103//35 104//35 92//35 91//35
f 104//35 105//35 93//35 92//35
f 105//35 106//35 94//35 93//35
f 106//35 107//35 95//35 94//35
f 107//35 108//35 96//35 95//35
f 108//35 98//35 86//35 96//35
f 74//35 73//35 97//35 98//35
f 73//35 75//35 99//35 97//35
f 75//35 76//35 100//35 99//35
f 76//35 77//35 101//35 100//35
f 77//35 78//35 102//35 101//35
f 78//35 79//35 103//35 102//35
f 79//35 80//35 104//35 103//35
f 80//35 81//35 105//35 104//35
f 81//35 82//35 106//35 105//35
f 82//35 83//35 107//35 106//35
f 83//35 84//35 108//35 107//35
f 84//35 74//35 98//35 108//35
f 120//35 119//35 131//35 132//35
f 81//22 80//22 116//22 117//22
f 78//22 77//22 113//22 114//22
f 74//22 84//22 120//22 110//22
f 75//22 73//22 109//22 111//22
f 82//22 81//22 117//22 118//22
f 79//22 78//22 114//22 115//22
f 76//22 75//22 111//22 112//22
f 83//22 82//22 118//22 119//22
f 80//22 79//22 115//22 116//22
f 77//22 76//22 112//22 113//22
f 84//22 83//22 119//22 120//22
f 125//34 124//34 136//34 137//34
f 109//35 110//35 122//35 121//35
f 117//35 116//35 128//35 129//35
f 114//35 113//35 125//35 126//35
f 110//35 120//35 132//35 122//35
f 111//35 109//35 121//35 123//35
f 118//35 117//35 129//35 130//35
f 115//35 114//35 126//35 127//35
f 112//35 111//35 123//35 124//35
f 119//35 118//35 130//35 131//35
f 116//35 115//35 127//35 128//35
f 113//35 112//35 124//35 125//35
f 132//28 131//28 143//28 144//28
f 121//23 122//23 134//23 133//23
f 129//30 128//30 140//30 141//30
f 126//25 125//25 137//25 138//25
f 122//32 132//32 144//32 134//32
f 123//27 121//27 133//27 135//27
f 130//33 129//33 141//33 142//33
f 127//29 126//29 138//29 139//29
f 124//31 123//31 135//31 136//31
f 131//24 130//24 142//24 143//24
f 128//26 127//26 139//26 140//26
usemtl Material.002
f 3//36 4//36 6//36 5//36
f 9//37 10//37 12//37 11//37
f 15//38 16//38 18//38 17//38
f 21//39 22//39 24//39 23//39
f 133//35 134//35 144//35 143//35 142//35 141//35 140//35 139//35 138//35 137//35 136//35 135//35
