# Blender v2.79 (sub 0) OBJ File: 'kamen.blend'
# www.blender.org
mtllib k2.mtl
o Cube.001
v -0.000000 0.468762 -1.517195
v -0.560218 1.267624 0.520548
v -0.000000 0.509839 -1.510944
v -0.478343 1.133085 0.802463
v -0.498015 1.101902 0.858518
v -0.502052 0.693468 0.926934
v -0.614777 1.215759 0.471427
v -0.563227 1.239645 0.574368
v -0.544546 0.408270 0.948483
v -0.807561 0.517917 0.330201
v -0.782884 1.022581 0.181770
v -0.359412 1.017499 -1.126327
v -0.446817 0.970322 -1.056210
v -0.078886 0.555505 -1.481402
v -0.597814 0.869512 -1.014971
v -0.802758 0.461566 0.298027
v -0.793629 0.471102 0.379393
v -0.545501 0.407450 0.946727
v -0.354864 0.348933 1.084897
v 0.256697 0.038322 0.754864
v -0.353197 0.289204 1.034924
v 0.095405 0.697854 1.323346
v 0.258641 0.658043 1.271125
v 0.121054 0.539615 -1.472663
v 0.082930 0.471536 -1.494277
v 0.468311 0.804856 -1.212579
v 0.622774 0.602211 -1.036263
v 0.849013 0.552750 -0.149983
v 0.530671 0.937585 0.891891
v 0.589170 1.117747 0.559628
v 0.733821 1.008734 0.493347
v 0.640080 1.151855 0.437573
v 0.371327 1.127950 1.016178
v 0.073185 0.965235 1.261888
v 0.445618 0.933353 1.080479
v 0.281911 0.726732 1.276171
v 0.126162 0.785857 1.328464
v -0.033008 0.469866 -1.508073
v -0.083757 0.490526 -1.490893
v -0.000000 0.451073 -1.509884
v 0.152696 0.295545 -1.398399
v -0.393568 0.511992 -1.203185
v -0.585436 0.568904 -1.101178
v -0.692246 0.242876 -0.419297
v 0.279604 0.137207 -1.254942
v 0.502431 0.175866 -1.063094
v -0.285632 -0.032944 -0.364158
v 0.735556 0.181905 -0.205620
v 0.132846 0.000819 0.738023
v 0.262115 0.029335 0.735075
v 0.008877 -0.025817 0.730253
v 0.294911 1.248398 -0.861443
v -0.337590 1.038276 -1.106560
v -0.429833 1.337791 0.415029
v 0.170969 1.465706 0.309722
v 0.553709 1.210502 0.529526
v 0.408190 1.237615 0.811234
v 0.365563 1.431952 -0.079033
v 0.528293 1.277240 0.255974
vn -0.2590 -0.3690 -0.8926
vn -0.2643 0.1588 -0.9513
vn 0.2590 0.1453 -0.9549
vn 0.2590 -0.3690 -0.8926
vn -0.8968 0.1646 0.4107
vn -0.7770 0.5753 0.2556
vn -0.9333 -0.0503 -0.3555
vn -0.9793 -0.1567 0.1282
vn 0.0845 0.6390 -0.7645
vn -0.9882 0.0033 -0.1532
vn -0.4002 0.2374 -0.8851
vn 0.2021 -0.8697 0.4503
vn -0.6026 -0.5457 0.5823
vn 0.0890 -0.6377 0.7651
vn 0.6598 -0.1395 -0.7384
vn 0.9352 -0.2482 -0.2526
vn 0.8536 0.4848 -0.1908
vn 0.8163 0.4353 0.3798
vn 0.6601 0.6056 0.4445
vn 0.8655 -0.3222 0.3834
vn 0.2599 -0.1580 0.9526
vn -0.1088 0.8845 0.4537
vn -0.5479 0.1439 0.8241
vn 0.4261 0.4209 0.8008
vn -0.6663 0.1559 -0.7292
vn -0.5689 -0.8070 0.1583
vn -0.4623 -0.7696 -0.4404
vn 0.2132 -0.9757 -0.0511
vn -0.5805 0.7915 -0.1910
vn -0.2376 0.9502 -0.2015
vn 0.6445 0.7545 0.1242
vn 0.4794 0.8619 0.1652
vn -0.2590 0.1453 -0.9549
vn -0.2624 0.1482 -0.9535
vn 0.2630 0.1550 -0.9523
vn 0.2608 -0.3801 -0.8874
vn -0.8967 0.1650 0.4108
vn -0.8968 0.1647 0.4107
vn 0.0842 0.6397 -0.7640
vn 0.0843 0.6389 -0.7647
vn 0.0843 0.6385 -0.7650
vn 0.0842 0.6389 -0.7647
vn -0.4002 0.2374 -0.8852
vn -0.5993 -0.5234 0.6057
vn 0.0890 -0.6377 0.7652
vn 0.0892 -0.6378 0.7650
vn 0.0891 -0.6377 0.7652
vn 0.6632 -0.1379 -0.7356
vn 0.6596 -0.1392 -0.7386
vn 0.6599 -0.1398 -0.7383
vn 0.6599 -0.1399 -0.7382
vn 0.9352 -0.2481 -0.2525
vn 0.8536 0.4848 -0.1907
vn 0.8536 0.4847 -0.1907
vn 0.8536 0.4847 -0.1908
vn 0.8164 0.4366 0.3780
vn 0.6601 0.6056 0.4446
vn 0.8656 -0.3225 0.3831
vn 0.8653 -0.3214 0.3846
vn 0.8656 -0.3221 0.3833
vn 0.8655 -0.3223 0.3833
vn 0.8655 -0.3221 0.3836
vn 0.8656 -0.3221 0.3834
vn 0.2681 -0.1491 0.9518
vn -0.1089 0.8844 0.4538
vn -0.5484 0.1438 0.8237
vn -0.5477 0.1435 0.8243
vn -0.5477 0.1439 0.8242
vn -0.5479 0.1438 0.8241
vn 0.4254 0.4262 0.7984
vn 0.4286 0.4229 0.7984
vn -0.6663 0.1564 -0.7291
vn -0.6679 0.1558 -0.7278
vn -0.5689 -0.8070 0.1584
vn -0.4624 -0.7696 -0.4404
vn -0.4624 -0.7697 -0.4402
vn 0.2140 -0.9755 -0.0505
vn 0.2128 -0.9758 -0.0509
vn -0.5805 0.7915 -0.1911
vn -0.5806 0.7915 -0.1910
vn -0.2376 0.9502 -0.2014
vn 0.7771 0.4424 0.4477
vn 0.4799 0.8617 0.1649
vn 0.4795 0.8618 0.1657
usemtl 2
s off
f 1//1 40//1 38//1
f 39//2 14//2 3//2
f 3//3 25//3 1//3
f 25//4 40//4 1//4
f 10//5 17//5 6//5
f 7//6 8//6 2//6
f 4//7 6//7 5//7
f 10//8 16//8 17//8
f 53//9 26//9 24//9
f 44//10 16//10 11//10
f 13//11 43//11 15//11
f 20//12 49//12 50//12
f 21//13 9//13 18//13
f 23//14 21//14 20//14
f 26//15 27//15 41//15
f 48//16 27//16 28//16
f 58//17 59//17 28//17
f 30//18 57//18 29//18
f 30//19 31//19 32//19
f 50//20 28//20 31//20
f 37//21 23//21 36//21
f 54//22 8//22 4//22
f 34//23 6//23 22//23
f 36//24 35//24 34//24
f 42//25 12//25 14//25
f 51//26 18//26 17//26
f 47//27 42//27 45//27
f 49//28 47//28 48//28
f 13//29 11//29 54//29
f 58//30 52//30 53//30
f 56//31 32//31 59//31
f 59//32 58//32 55//32
f 3//33 1//33 38//33
f 38//34 39//34 3//34
f 3//35 24//35 25//35
f 25//36 41//36 40//36
f 9//5 6//5 18//5
f 4//37 8//37 7//37
f 7//5 11//5 10//5
f 10//5 6//5 7//5
f 18//38 6//38 17//38
f 4//38 7//38 6//38
f 3//39 14//39 24//39
f 12//40 53//40 14//40
f 52//41 26//41 53//41
f 24//42 14//42 53//42
f 11//10 15//10 44//10
f 43//10 44//10 15//10
f 16//10 10//10 11//10
f 13//43 42//43 43//43
f 21//44 19//44 9//44
f 49//45 20//45 21//45
f 23//46 22//46 19//46
f 19//14 21//14 23//14
f 51//47 49//47 21//47
f 41//48 25//48 24//48
f 24//49 26//49 41//49
f 27//50 46//50 45//50
f 45//51 41//51 27//51
f 48//52 46//52 27//52
f 31//53 28//53 59//53
f 27//54 26//54 52//54
f 52//17 58//17 28//17
f 59//55 32//55 31//55
f 28//55 27//55 52//55
f 35//56 29//56 33//56
f 30//18 56//18 57//18
f 57//18 33//18 29//18
f 30//57 29//57 31//57
f 29//58 35//58 23//58
f 36//59 23//59 35//59
f 20//60 50//60 29//60
f 48//61 28//61 50//61
f 31//62 29//62 50//62
f 23//63 20//63 29//63
f 37//64 22//64 23//64
f 5//65 34//65 4//65
f 33//22 57//22 4//22
f 55//22 54//22 4//22
f 2//22 8//22 54//22
f 4//22 34//22 33//22
f 57//22 55//22 4//22
f 22//66 37//66 34//66
f 34//67 5//67 6//67
f 6//68 9//68 19//68
f 19//69 22//69 6//69
f 33//70 34//70 35//70
f 37//71 36//71 34//71
f 14//72 39//72 42//72
f 42//73 13//73 12//73
f 16//74 44//74 47//74
f 47//74 51//74 16//74
f 21//74 18//74 51//74
f 17//74 16//74 51//74
f 41//27 45//27 42//27
f 47//27 44//27 42//27
f 42//27 39//27 41//27
f 44//75 43//75 42//75
f 40//76 39//76 38//76
f 39//75 40//75 41//75
f 48//77 50//77 49//77
f 49//78 51//78 47//78
f 47//28 45//28 46//28
f 46//28 48//28 47//28
f 2//29 54//29 7//29
f 53//79 12//79 13//79
f 13//80 15//80 11//80
f 11//29 7//29 54//29
f 54//29 53//29 13//29
f 53//30 54//30 58//30
f 55//81 58//81 54//81
f 56//82 30//82 32//82
f 55//83 57//83 56//83
f 56//84 59//84 55//84
