# Blender v2.78 (sub 0) OBJ File: ''
# www.blender.org
mtllib kak1.mtl
o Cube_Cube.002
v -0.044732 4.751361 0.000408
v 0.224491 4.781777 -0.267063
v 0.463190 5.010839 -0.000842
v 0.224542 4.782279 0.266949
v 0.314797 3.240006 0.266534
v 0.233404 5.155960 0.000000
v 0.146214 1.324283 0.269993
v 0.214087 1.385119 -0.282088
v -0.136102 1.323320 -0.000330
v 0.418217 2.032583 0.567739
v 0.486223 1.667774 0.013652
v 0.178963 1.822589 -0.276159
v -0.620057 1.904183 0.028886
v -0.657467 2.515095 0.533644
v -0.375298 2.001693 0.260637
v -0.273021 2.211040 0.010734
v -0.447665 3.094728 0.328236
v -0.485216 2.094053 -0.231001
v -0.422348 2.485640 0.207833
v -0.831442 2.244004 0.211895
v -0.649744 3.187996 0.317065
v -0.898980 2.794282 0.317065
v -0.659094 2.850373 0.583255
v -0.651328 3.081013 0.103510
v 0.426257 1.015632 -0.015896
v 0.233419 2.180372 0.413229
v -0.119516 1.901148 0.313594
v 0.201816 1.908594 0.685974
v 0.504026 1.329404 0.240050
v 0.551859 1.619158 0.000000
v 1.003375 1.503373 0.225283
v 0.275077 0.003920 0.000000
v 0.014109 0.002904 -0.262336
v 0.209424 2.083955 0.626643
v 0.676022 2.122192 0.425719
v 0.701850 1.435091 -0.221711
v 0.634926 1.698381 0.100807
v 0.861649 1.945711 0.650887
v 0.886303 3.283168 0.668397
v 0.906055 2.367261 0.701494
v 1.141085 1.966115 0.436659
v 0.900998 2.021536 0.160312
v 0.895012 3.414527 0.450566
v 1.082643 3.243226 0.449258
v 0.883200 3.290411 0.232392
v 0.671031 3.186634 0.450658
v 0.314797 3.240006 -0.266534
v 0.044335 2.807136 -0.001074
v 0.582707 3.166522 -0.005273
v 0.239744 2.242407 0.282250
v 0.032683 5.061579 0.000000
v 0.232326 5.061579 -0.199643
v 0.200518 0.003781 -0.195179
v 0.232326 5.061579 0.199643
v 0.495210 1.892944 0.084212
v 0.190399 1.572082 0.334073
v -0.151867 1.566676 0.000000
v -0.077198 2.245799 0.000000
v -0.075001 1.609537 -0.223462
v -0.237023 2.129627 -0.199643
v -0.237023 2.129627 0.199643
v -0.648556 2.542523 0.011242
v -0.694490 2.070930 0.292926
v -0.772933 2.248402 0.003414
v -0.430446 2.311767 -0.108187
v -0.588105 3.090943 0.508406
v -0.495119 3.035278 0.156419
v -0.481439 2.816965 0.523589
v -0.839009 2.808305 0.516708
v 0.023324 2.096149 0.553927
v 0.049082 1.902403 0.617108
v 0.723274 1.247621 0.213796
v 0.590972 1.569404 0.200742
v 0.369426 1.061123 -0.227697
v 0.579306 1.556726 -0.199897
v 0.717925 1.462265 0.322511
v 0.816944 1.244856 0.056321
v -0.061596 1.361501 0.201704
v -0.061362 1.364558 -0.201295
v 0.960107 1.541981 0.424926
v 0.700496 1.773633 0.025640
v 0.736201 2.083620 0.628544
v 0.737427 3.380085 0.482154
v 0.726789 3.168917 0.627315
v 0.745236 3.286235 0.299414
v 0.023566 4.742527 -0.200951
v 0.120937 2.849508 -0.197806
v 0.118737 2.811632 0.195094
v -0.132383 0.003111 0.244530
v 0.083604 4.988172 0.147884
v -0.220844 0.002434 -0.127128
v 0.083604 4.988172 -0.147883
v 0.227678 0.002814 0.199643
v 0.408572 4.917651 0.192281
v 0.407834 4.917839 -0.192970
v -0.097403 1.640720 0.241698
v 0.446494 1.614108 0.264247
v -0.023637 2.129411 0.268371
v -0.028965 2.151718 -0.223600
v 0.405286 1.651275 -0.208190
v 0.440577 2.134497 0.268603
v -0.589033 1.954509 -0.160010
v -0.415896 2.274051 0.268260
v -0.481659 2.615109 0.077789
v -0.815452 2.469936 0.477074
v -0.826603 2.954261 0.147674
v -0.830424 3.058627 0.385257
v 0.360178 2.137873 0.475529
v 0.383912 1.898796 0.602484
v 0.832692 1.330774 -0.125127
v 0.317059 1.010156 0.221187
v 1.079956 1.941194 0.222441
v 1.081635 1.964119 0.615464
v 0.733586 2.129900 0.244028
v 1.040146 3.183230 0.285464
v 1.040738 3.181634 0.615429
v 0.021020 4.743060 0.198093
v 0.514448 3.026085 -0.198534
v 0.511483 2.979184 0.188416
vn 0.2215 0.2226 0.9494
vn 0.3626 0.0210 0.9317
vn 0.0844 -0.1080 0.9906
vn 0.1325 -0.1020 -0.9859
vn 0.3806 -0.3244 -0.8660
vn 0.9841 0.1321 0.1186
vn 0.9353 0.0713 -0.3465
vn 0.3137 0.0380 -0.9488
vn -0.5639 -0.7533 -0.3385
vn -0.5321 -0.7685 0.3553
vn -0.5570 -0.7752 -0.2980
vn -0.0142 -0.4755 0.8796
vn -0.1812 -0.4569 0.8709
vn -0.1123 -0.1104 -0.9875
vn -0.2982 -0.2775 0.9133
vn 0.1071 0.0303 0.9938
vn 0.9840 0.0057 0.1782
vn 0.7434 0.3219 0.5863
vn -0.5297 0.2456 -0.8119
vn 0.8795 0.1553 0.4499
vn 0.6818 0.6334 -0.3660
vn -0.3639 0.7781 0.5119
vn 0.3830 0.8677 0.3168
vn 0.4466 -0.8496 0.2806
vn 0.4549 0.7961 0.3990
vn 0.2758 0.9568 0.0916
vn -0.8735 0.0420 0.4850
vn -0.8900 0.4124 0.1944
vn -0.0621 -0.4522 0.8898
vn -0.5052 0.3146 0.8036
vn -0.8192 0.4986 0.2832
vn 0.8480 -0.5037 -0.1649
vn -0.3044 0.0459 0.9514
vn 0.9019 -0.1283 0.4124
vn -0.2832 0.0273 -0.9587
vn -0.9592 -0.0111 0.2825
vn 0.4051 0.5404 -0.7374
vn -0.9539 0.2982 -0.0346
vn -0.9584 -0.1092 0.2636
vn -0.2667 -0.0871 0.9598
vn 0.1685 -0.1350 0.9764
vn -0.4273 0.0234 0.9038
vn -0.4231 0.0455 -0.9049
vn -0.0842 0.8548 0.5121
vn 0.9650 0.0416 0.2588
vn -0.4376 0.0474 -0.8979
vn 0.9287 0.0534 -0.3669
vn 0.9506 0.0623 -0.3041
vn 0.9524 0.0610 0.2988
vn -0.9338 -0.0430 0.3552
vn -0.9465 -0.0492 -0.3189
vn -0.9279 -0.0422 -0.3704
vn -0.4147 0.0459 -0.9088
vn 0.3008 -0.0224 -0.9534
vn 0.3553 -0.0120 0.9347
vn -0.8948 0.2559 -0.3657
vn -0.3813 0.2531 -0.8891
vn -0.3844 0.2507 0.8885
vn 0.2186 0.2228 -0.9500
vn -0.3126 -0.0178 0.9497
vn 0.3906 0.0189 0.9204
vn 0.5289 0.7335 -0.4270
vn -0.4408 0.7820 -0.4408
vn -0.4408 0.7820 0.4408
vn 0.5305 0.7332 0.4254
vn 0.1702 -0.1570 0.9728
vn -0.3375 -0.1772 0.9245
vn 0.1153 0.2187 -0.9689
vn -0.9454 -0.1168 0.3043
vn -0.2730 -0.1018 -0.9566
vn -0.9347 -0.0718 -0.3481
vn 0.9738 -0.0866 0.2101
vn -0.0127 0.2256 -0.9741
vn 0.7231 0.6356 0.2706
vn 0.9869 -0.0829 0.1387
vn -0.2009 -0.0029 -0.9796
vn -0.5301 -0.7764 0.3409
vn 0.7789 0.0988 0.6193
vn 0.5554 -0.2980 0.7763
vn -0.1564 0.3752 0.9136
vn -0.2862 -0.2567 -0.9231
vn 0.0413 0.4830 -0.8746
vn -0.1348 0.8995 0.4155
vn 0.3795 0.0307 0.9247
vn -0.1613 0.9037 -0.3967
vn 0.9452 0.0960 -0.3121
vn 0.6255 0.7577 -0.1862
vn 0.6596 0.7277 0.1879
vn 0.0677 0.5083 -0.8585
vn -0.6128 0.0549 -0.7883
vn -0.8769 -0.4082 -0.2538
vn 0.9494 0.2644 -0.1698
vn 0.9909 0.0640 0.1183
vn 0.3928 0.8250 -0.4063
vn -0.8069 -0.5750 0.1356
vn -0.7973 -0.4349 0.4186
vn -0.6177 0.7110 -0.3361
vn -0.9414 -0.0240 -0.3365
vn -0.9642 -0.1359 0.2277
vn -0.3079 -0.1363 0.9416
vn -0.9462 0.1752 0.2719
vn -0.9492 0.2821 -0.1392
vn -0.4330 0.4080 0.8038
vn 0.2918 -0.1386 0.9464
vn 0.3440 0.1849 0.9206
vn 0.3291 0.1711 -0.9287
vn -0.3384 0.1609 -0.9271
vn 0.5259 -0.7887 -0.3185
vn 0.4963 -0.8426 0.2092
vn -0.3327 -0.6916 0.6411
vn -0.3815 0.8424 0.3806
vn -0.2759 0.9485 0.1558
vn -0.8554 -0.2041 0.4760
vn 0.2804 -0.7030 0.6536
vn 0.4966 0.8396 -0.2201
vn 0.4034 0.0037 0.9150
vn 0.0795 -0.1051 0.9913
vn 0.4579 0.8664 0.1991
vn 0.6307 -0.7053 0.3236
vn -0.4183 0.8491 -0.3226
vn 0.9313 -0.1650 -0.3246
vn 0.8812 -0.3836 0.2763
vn 0.1486 -0.0434 0.9879
vn 0.9355 -0.1522 -0.3190
vn -0.8950 0.2587 0.3634
vn 0.2810 -0.0630 -0.9576
vn 0.9690 -0.0909 0.2296
vn -0.4988 0.0112 -0.8667
vn -0.9617 0.0474 0.2700
vn 0.2254 0.8245 0.5190
vn -0.9393 0.0920 -0.3305
vn -0.3663 0.2768 0.8884
vn -0.0969 0.9111 0.4007
vn 0.3644 0.2255 0.9035
vn -0.1365 0.5559 -0.8200
vn -0.9533 0.0026 -0.3019
vn 0.5610 0.2681 -0.7832
vn -0.8920 0.3124 -0.3267
vn -0.8060 0.5788 -0.1236
vn -0.6794 -0.3081 0.6660
vn -0.1967 -0.4920 0.8481
vn 0.4216 0.0261 0.9064
vn 0.1785 -0.4470 0.8765
vn -0.2487 -0.0011 0.9686
vn -0.5327 0.4975 0.6847
vn 0.3528 0.0583 -0.9339
vn 0.9593 0.0449 -0.2790
vn 0.9483 0.0319 0.3157
vn 0.6092 0.6770 -0.4129
vn -0.2639 0.8485 -0.4587
vn 0.6058 0.6760 0.4195
vn -0.3058 -0.0177 -0.9519
vn 0.9626 0.0467 -0.2669
vn -0.9049 0.0295 -0.4246
vn -0.9538 -0.0079 0.3003
vn -0.9125 0.2620 0.3143
vn -0.9117 0.3484 -0.2179
vn 0.9215 0.0482 0.3854
vn -0.9270 0.2151 0.3072
vn 0.3613 0.0208 -0.9322
vn 0.3435 0.0221 -0.9389
vn -0.9484 -0.0485 0.3134
vn -0.9307 0.2066 -0.3018
vn 0.9645 -0.0792 -0.2518
vn -0.1431 0.0673 -0.9874
vn 0.2770 -0.0152 -0.9608
vn 0.9459 -0.0450 0.3213
vn 0.1127 0.0845 0.9900
vn -0.4302 0.0466 0.9015
vn -0.1070 0.1282 0.9860
usemtl 1
s off
f 4//1 94//1 54//1
f 5//2 94//2 4//2
f 7//3 111//3 29//3
f 74//4 8//4 36//4
f 36//5 110//5 74//5
f 55//6 101//6 10//6
f 11//7 100//7 55//7
f 12//8 100//8 8//8
f 59//9 57//9 13//9
f 57//10 96//10 13//10
f 13//11 102//11 59//11
f 63//12 15//12 14//12
f 14//13 105//13 63//13
f 12//14 59//14 18//14
f 96//15 27//15 15//15
f 15//16 63//16 96//16
f 17//17 68//17 19//17
f 17//18 66//18 68//18
f 18//19 64//19 62//19
f 19//20 103//20 16//20
f 16//21 65//21 19//21
f 21//22 107//22 66//22
f 21//23 66//23 17//23
f 77//24 72//24 25//24
f 101//25 50//25 26//25
f 26//26 108//26 101//26
f 27//27 71//27 70//27
f 27//28 70//28 98//28
f 29//29 72//29 76//29
f 76//30 73//30 29//30
f 73//31 37//31 30//31
f 77//32 110//32 31//32
f 78//33 89//33 7//33
f 25//34 111//34 32//34
f 33//35 79//35 8//35
f 35//36 82//36 46//36
f 36//37 75//37 81//37
f 37//38 73//38 82//38
f 82//39 35//39 37//39
f 40//40 82//40 38//40
f 38//41 113//41 40//41
f 39//42 82//42 40//42
f 114//43 45//43 42//43
f 43//44 83//44 39//44
f 44//45 116//45 41//45
f 45//46 114//46 85//46
f 49//47 118//47 95//47
f 95//48 3//48 49//48
f 3//49 94//49 49//49
f 48//50 88//50 1//50
f 1//51 86//51 87//51
f 87//52 48//52 1//52
f 12//53 87//53 47//53
f 47//54 118//54 12//54
f 119//55 5//55 50//55
f 92//56 86//56 1//56 51//56
f 92//57 52//57 2//57 86//57
f 90//58 117//58 4//58 54//58
f 2//59 52//59 95//59
f 88//60 5//60 4//60 117//60
f 5//61 119//61 94//61
f 95//62 52//62 6//62 3//62
f 92//63 51//63 6//63 52//63
f 90//64 54//64 6//64 51//64
f 94//65 3//65 6//65 54//65
f 56//66 7//66 29//66 97//66
f 96//67 78//67 7//67 56//67
f 75//68 36//68 8//68 100//68
f 57//69 9//69 78//69 96//69
f 8//70 79//70 59//70
f 79//71 9//71 57//71 59//71
f 55//72 10//72 109//72 97//72
f 12//73 18//73 60//73 99//73
f 10//74 101//74 108//74
f 55//75 97//75 11//75
f 12//76 8//76 59//76
f 96//77 63//77 13//77
f 14//78 15//78 103//78
f 103//79 68//79 14//79
f 61//80 15//80 27//80 98//80
f 18//81 59//81 102//81
f 18//82 65//82 60//82
f 58//83 16//83 61//83 98//83
f 61//84 103//84 15//84
f 60//85 16//85 58//85 99//85
f 67//86 17//86 19//86 104//86
f 16//87 60//87 65//87
f 16//88 103//88 61//88
f 65//89 18//89 62//89 104//89
f 18//90 102//90 64//90
f 13//91 20//91 64//91 102//91
f 19//92 65//92 104//92
f 19//93 68//93 103//93
f 67//94 24//94 21//94 17//94
f 20//95 13//95 63//95
f 63//96 105//96 20//96
f 106//97 107//97 21//97 24//97
f 20//98 22//98 106//98 64//98
f 105//99 69//99 22//99 20//99
f 14//100 23//100 69//100 105//100
f 22//101 69//101 107//101
f 22//102 107//102 106//102
f 107//103 69//103 23//103 66//103
f 23//104 14//104 68//104
f 23//105 68//105 66//105
f 104//106 62//106 24//106 67//106
f 106//107 24//107 62//107 64//107
f 110//108 77//108 25//108 74//108
f 25//109 72//109 111//109
f 56//110 28//110 71//110 96//110
f 26//111 50//111 98//111
f 26//112 98//112 70//112
f 27//113 96//113 71//113
f 109//114 28//114 56//114 97//114
f 11//115 30//115 75//115 100//115
f 73//116 97//116 29//116
f 29//117 111//117 72//117
f 73//118 30//118 11//118 97//118
f 72//119 77//119 31//119 80//119
f 30//120 37//120 75//120
f 112//121 41//121 31//121 110//121
f 80//122 31//122 41//122 113//122
f 93//123 111//123 7//123 89//123
f 25//124 32//124 53//124 74//124
f 90//125 51//125 1//125 117//125
f 53//126 33//126 8//126 74//126
f 111//127 93//127 32//127
f 33//128 91//128 79//128
f 89//129 78//129 9//129 91//129
f 108//130 26//130 34//130 10//130
f 9//131 79//131 91//131
f 71//132 28//132 34//132 70//132
f 34//133 26//133 70//133
f 109//134 10//134 34//134 28//134
f 42//135 36//135 81//135 114//135
f 35//136 46//136 114//136
f 112//137 110//137 36//137 42//137
f 114//138 81//138 37//138 35//138
f 81//139 75//139 37//139
f 73//140 76//140 38//140 82//140
f 80//141 38//141 76//141 72//141
f 116//142 39//142 40//142 113//142
f 38//143 80//143 113//143
f 39//144 84//144 82//144
f 39//145 83//145 84//145
f 115//146 112//146 42//146 45//146
f 112//147 115//147 41//147
f 41//148 116//148 113//148
f 115//149 45//149 43//149 44//149
f 85//150 83//150 43//150 45//150
f 116//151 44//151 43//151 39//151
f 2//152 47//152 87//152 86//152
f 44//153 41//153 115//153
f 85//154 114//154 46//154
f 46//155 82//155 84//155
f 46//156 84//156 83//156
f 46//157 83//157 85//157
f 49//158 94//158 119//158
f 88//159 48//159 58//159 98//159
f 47//160 2//160 95//160
f 95//161 118//161 47//161
f 1//162 88//162 117//162
f 58//163 48//163 87//163 99//163
f 118//164 49//164 55//164 100//164
f 12//165 99//165 87//165
f 12//166 118//166 100//166
f 55//167 49//167 119//167 101//167
f 50//168 101//168 119//168
f 50//169 5//169 88//169
f 88//170 98//170 50//170
