# Blender v2.79 (sub 0) OBJ File: ''
# www.blender.org
mtllib gereb2.mtl
o Cube.001_Cube.002
v -0.345303 0.273973 -0.054676
v 0.000000 0.273973 -0.399980
v 0.345303 0.273973 -0.054676
v 0.000000 0.273973 0.290627
v 0.000000 -0.071330 -0.054676
v 0.345303 1.162177 0.128511
v 0.267384 2.551071 0.125180
v -0.345303 1.162177 0.128511
v 0.000000 1.162177 0.473814
v 0.000000 1.162177 -0.216792
v 0.000000 4.131728 0.351247
v -0.267384 2.551071 0.125180
v 0.000000 2.551071 0.392564
v 0.000000 2.551071 -0.142204
v 1.390920 4.395802 0.211778
v 0.000000 4.131728 -0.027682
v 0.189465 4.131728 0.161782
v -0.189465 4.131728 0.161782
v -1.493733 4.793615 0.211778
v -1.390920 4.395802 0.211778
v 0.000000 4.395802 1.602698
v 0.000000 4.395802 -1.179142
v 0.000000 5.091976 0.211778
v 0.000000 4.793615 1.705510
v 0.000000 4.793615 -1.281955
v 1.493733 4.793615 0.211778
v -0.189465 3.682086 0.025225
v 0.189465 3.682086 0.025225
v 0.000000 3.682086 -0.164240
v 0.000000 3.682086 0.214689
v -0.258977 0.014996 -0.054676
v -0.258977 0.273973 0.204301
v -0.345303 0.668676 -0.008880
v -0.258977 0.273973 -0.313654
v 0.000000 0.014996 -0.313654
v 0.000000 0.668676 -0.354183
v 0.258977 0.273973 -0.313654
v 0.258977 0.014996 -0.054676
v 0.345303 0.668676 -0.008880
v 0.258977 0.273973 0.204301
v 0.000000 0.014996 0.204301
v 0.000000 0.668676 0.336423
v -0.325823 1.780851 0.219272
v 0.000000 1.780851 -0.106551
v 0.325823 1.780851 0.219272
v 0.000000 1.780851 0.545095
v 0.258977 1.162177 -0.130466
v 0.258977 1.162177 0.387488
v -0.258977 1.162177 0.387488
v -0.258977 1.162177 -0.130466
v -0.000000 3.263455 -0.984326
v -0.000000 3.299474 -0.979561
v -0.773630 3.267441 -0.660200
v -0.754173 3.303457 -0.673968
v 0.200538 2.551071 -0.075358
v 0.200538 2.551071 0.325718
v -0.200538 2.551071 0.325718
v -0.200538 2.551071 -0.075358
v -0.489829 4.280056 0.199279
v 0.000000 4.280056 -0.290550
v 0.489829 4.280056 0.199279
v 0.000000 4.280056 0.689108
v 0.142099 4.131728 0.303881
v -0.142099 3.682086 0.167323
v -0.142099 4.131728 0.019684
v 0.142099 3.682086 -0.116874
v 1.043190 4.395802 -0.831412
v 1.043190 4.395802 1.254968
v -1.043190 4.395802 1.254968
v -1.043190 4.395802 -0.831412
v -0.570978 5.017386 0.211778
v 0.000000 5.017386 -0.359200
v 0.570978 5.017386 0.211778
v 0.000000 5.017386 0.782756
v -1.120300 4.793615 1.332077
v -1.120300 4.793615 -0.908522
v 1.120300 4.793615 1.332077
v 1.120300 4.793615 -0.908522
v 0.142099 3.682086 0.167323
v -0.142099 4.131728 0.303881
v -0.142099 3.682086 -0.116874
v 0.142099 4.131728 0.019684
v -0.189465 3.937008 0.102645
v 0.189465 3.937008 0.102645
v 0.000000 3.937008 -0.086820
v 0.000000 3.937008 0.292110
v -0.191835 0.082138 0.137159
v -0.258977 0.668676 0.250098
v -0.191835 0.082138 -0.246511
v -0.258977 0.668676 -0.267857
v 0.191835 0.082138 0.137159
v 0.258977 0.668676 0.250098
v 0.191835 0.082138 -0.246511
v 0.258977 0.668676 -0.267857
v -0.244367 1.780851 0.463640
v -0.244367 1.780851 -0.025095
v 0.244367 1.780851 -0.025095
v 0.244367 1.780851 0.463640
v -1.075878 3.261279 0.110638
v -1.073896 3.297388 0.087979
v -0.768286 3.299945 0.854229
v -0.752024 3.263714 0.870830
v -0.367372 4.280056 0.566651
v -0.367372 4.280056 -0.168092
v 0.367372 4.280056 -0.168092
v 0.367372 4.280056 0.566651
v -0.585709 4.959372 0.797486
v -0.585709 4.959372 -0.373931
v 0.585709 4.959372 -0.373931
v 0.585709 4.959372 0.797486
v 0.142099 3.937008 0.244744
v -0.142099 3.937008 0.244744
v -0.142099 3.937008 -0.039453
v 0.142099 3.937008 -0.039453
v -0.193519 3.593588 0.021418
v -0.227261 3.035621 0.043994
v 0.000000 3.593588 -0.172101
v 0.000000 3.035621 -0.183267
v 0.193519 3.593588 0.021418
v 0.227261 3.035621 0.043994
v 0.000000 3.593588 0.214937
v 0.000000 3.035621 0.271255
v -0.170446 3.035621 0.214440
v -0.145139 3.593588 0.166557
v -0.145139 3.593588 -0.123721
v -0.170446 3.035621 -0.126451
v 0.145139 3.593588 -0.123721
v 0.170446 3.035621 -0.126451
v 0.145139 3.593588 0.166557
v 0.170446 3.035621 0.214440
v 0.754173 3.303457 -0.673968
v 0.773630 3.267441 -0.660200
v 1.073896 3.297388 0.087979
v 1.075878 3.261279 0.110638
v 0.768286 3.299945 0.854229
v 0.752024 3.263714 0.870830
v 0.000000 3.295071 1.173281
v -0.000000 3.258775 1.172651
v -1.952414 4.575816 0.211778
v -1.946919 4.528209 0.211778
v 0.000000 4.575816 -1.740636
v 0.000000 4.528209 -1.735141
v 1.952414 4.575816 0.211778
v 1.946919 4.528209 0.211778
v 0.000000 4.575816 2.164192
v 0.000000 4.528209 2.158697
v -1.460190 4.528209 1.671967
v -1.464311 4.575816 1.676088
v -1.464311 4.575816 -1.252532
v -1.460190 4.528209 -1.248411
v 1.464311 4.575816 -1.252532
v 1.460190 4.528209 -1.248411
v 1.464311 4.575816 1.676088
v 1.460190 4.528209 1.671967
vn 0.1328 -0.9075 0.3984
vn -0.1328 -0.9075 0.3984
vn -0.8957 -0.2269 0.3823
vn 0.1267 -0.9910 0.0422
vn 0.1279 -0.9909 -0.0426
vn 0.4246 0.8942 0.1415
vn 0.0770 -0.9699 0.2310
vn -0.1617 -0.8595 -0.4850
vn 0.1617 -0.8595 -0.4850
vn 0.4528 -0.8787 -0.1509
vn 0.4241 -0.8945 0.1414
vn -0.4241 -0.8945 0.1414
vn -0.4528 -0.8787 -0.1509
vn -0.2310 -0.9699 0.0770
vn -0.2310 -0.9699 -0.0770
vn -0.2347 0.9679 0.0900
vn -0.2259 0.9712 -0.0753
vn -0.1279 -0.9909 -0.0426
vn -0.1267 -0.9910 0.0422
vn -0.4246 0.8942 0.1415
vn -0.0770 -0.9699 -0.2310
vn -0.0419 -0.9912 0.1256
vn 0.0419 -0.9912 0.1256
vn -0.1415 0.8942 0.4246
vn 0.0430 -0.9907 -0.1290
vn -0.0430 -0.9907 -0.1290
vn 0.1415 0.8942 -0.4246
vn 0.2310 -0.9699 -0.0770
vn 0.1285 0.9834 -0.1285
vn -0.1285 0.9834 -0.1285
vn -0.1285 0.9834 0.1285
vn 0.1285 0.9834 0.1285
vn 0.1415 0.8942 0.4246
vn -0.0770 -0.9699 0.2310
vn 0.0900 0.9679 0.2347
vn -0.0753 0.9712 0.2259
vn -0.1415 0.8942 -0.4246
vn 0.0770 -0.9699 -0.2310
vn -0.0900 0.9679 -0.2347
vn 0.0753 0.9712 -0.2259
vn 0.4246 0.8942 -0.1415
vn 0.2310 -0.9699 0.0770
vn 0.2347 0.9679 -0.0900
vn 0.2259 0.9712 0.0753
vn -0.0860 -0.9623 0.2581
vn 0.2635 -0.9582 -0.1110
vn -0.1166 0.9482 0.2954
vn -0.1338 0.9300 -0.3423
vn 0.1023 -0.9656 0.2391
vn -0.2833 -0.9544 -0.0944
vn 0.3416 0.9329 -0.1139
vn 0.1210 -0.9532 -0.2772
vn -0.9160 -0.1760 -0.3606
vn -0.3831 -0.1419 -0.9127
vn 0.3722 0.1217 -0.9201
vn 0.8708 0.3318 -0.3628
vn 0.8941 0.2723 0.3557
vn 0.3706 0.2443 0.8961
vn -0.3725 -0.0161 0.9279
vn -0.3109 0.9427 0.1208
vn 0.3101 0.9451 0.1034
vn -0.0908 -0.9579 -0.2724
vn 0.1133 0.9336 -0.3400
vn -0.2500 -0.9647 0.0833
vn 0.2523 -0.9613 0.1105
vn -0.3250 0.9369 -0.1289
vn 0.1033 0.9451 0.3100
vn -0.9430 -0.1088 0.3144
vn -0.9430 -0.1088 -0.3143
vn -0.3143 -0.1088 -0.9430
vn 0.3144 -0.1088 -0.9430
vn 0.9430 -0.1088 -0.3144
vn 0.9430 -0.1088 0.3143
vn 0.3143 -0.1088 0.9430
vn -0.3144 -0.1088 0.9430
vn -0.4246 0.8942 -0.1415
vn -0.8941 0.2723 0.3557
vn -0.2259 0.9712 0.0753
vn -0.2347 0.9679 -0.0900
vn 0.0957 0.9908 -0.0957
vn -0.0957 0.9908 -0.0957
vn -0.0957 0.9908 0.0957
vn 0.0957 0.9908 0.0957
vn 0.0753 0.9712 0.2259
vn -0.0900 0.9679 0.2347
vn -0.0753 0.9712 -0.2259
vn 0.0900 0.9679 -0.2347
vn 0.2259 0.9712 -0.0753
vn 0.2347 0.9679 0.0900
vn -0.1023 -0.9656 0.2391
vn 0.2833 -0.9544 -0.0944
vn -0.1033 0.9451 0.3100
vn -0.1133 0.9336 -0.3400
vn 0.0860 -0.9623 0.2581
vn -0.2635 -0.9582 -0.1110
vn 0.3250 0.9369 -0.1289
vn 0.0908 -0.9579 -0.2724
vn -0.8708 0.3318 -0.3628
vn -0.3722 0.1217 -0.9201
vn 0.3831 -0.1419 -0.9127
vn 0.9160 -0.1760 -0.3606
vn 0.8957 -0.2269 0.3823
vn 0.3725 -0.0161 0.9279
vn -0.3706 0.2443 0.8961
vn -0.3101 0.9451 0.1034
vn 0.3109 0.9427 0.1208
vn -0.1210 -0.9532 -0.2772
vn 0.1338 0.9300 -0.3423
vn -0.2523 -0.9613 0.1105
vn 0.2500 -0.9647 0.0833
vn -0.3416 0.9329 -0.1138
vn 0.1166 0.9482 0.2954
vn -0.9430 -0.1088 0.3143
vn -0.9430 -0.1088 -0.3144
vn -0.3144 -0.1088 -0.9430
vn 0.3143 -0.1088 -0.9430
vn 0.9430 -0.1089 -0.3143
vn 0.9430 -0.1088 0.3144
vn 0.3144 -0.1088 0.9430
vn -0.3143 -0.1088 0.9430
vn -0.8675 -0.4048 0.2892
vn -0.9480 -0.0367 0.3160
vn -0.9480 0.0367 -0.3160
vn -0.8675 -0.2892 -0.4048
vn -0.2892 -0.4048 -0.8675
vn -0.3143 0.1094 -0.9430
vn 0.3143 0.1094 -0.9430
vn 0.4048 -0.2892 -0.8675
vn 0.8675 -0.4048 -0.2892
vn 0.9480 0.0367 -0.3160
vn 0.9480 -0.0367 0.3160
vn 0.8675 -0.2892 0.4048
vn 0.2892 -0.4048 0.8675
vn 0.3143 -0.1094 0.9430
vn -0.3143 -0.1094 0.9430
vn -0.4048 -0.2892 0.8675
vn -0.4048 -0.8675 -0.2892
vn 0.2892 -0.8675 -0.4048
vn 0.4048 -0.8675 0.2892
vn -0.2892 -0.8675 0.4048
vn 0.9450 -0.0877 0.3150
vn 0.9450 0.0877 -0.3150
vn 0.9459 0.0760 -0.3153
vn 0.9486 -0.0165 0.3162
vn 0.9429 0.1099 0.3143
vn 0.9482 0.0333 -0.3161
vn 0.9483 0.0298 0.3161
vn 0.3077 0.2311 0.9230
vn -0.9450 0.0877 -0.3150
vn -0.9450 -0.0877 0.3150
vn -0.9486 -0.0165 0.3162
vn -0.9459 0.0760 -0.3153
vn -0.3057 -0.2554 0.9172
vn 0.3057 -0.2554 0.9172
vn 0.3144 -0.1087 0.9431
vn -0.3144 -0.1087 0.9431
vn 0.3057 0.2554 -0.9172
vn -0.3057 0.2554 -0.9172
vn -0.3118 0.1667 -0.9354
vn 0.3118 0.1667 -0.9354
vn -0.3039 -0.2769 0.9116
vn 0.3039 -0.2769 0.9116
vn -0.9482 0.0333 -0.3161
vn -0.9429 0.1099 0.3143
vn -0.9471 0.0570 -0.3157
vn -0.3152 -0.0801 -0.9456
vn -0.3108 0.1846 0.9324
vn 0.3108 0.1846 0.9324
vn -0.3162 0.0026 0.9487
vn 0.3159 -0.0439 -0.9478
vn -0.3159 -0.0439 -0.9478
vn 0.3151 0.0840 -0.9453
vn 0.9484 0.0256 -0.3161
vn 0.3039 0.2769 -0.9116
vn -0.3039 0.2769 -0.9116
vn 0.9443 -0.0956 0.3148
vn 0.9443 0.0956 -0.3148
vn -0.9443 0.0956 -0.3148
vn -0.9443 -0.0956 0.3148
vn -0.9483 0.0298 0.3161
vn -0.9484 0.0256 -0.3161
vn 0.9471 0.0570 -0.3157
vn 0.9406 0.1304 0.3135
vn -0.3151 0.0840 -0.9453
vn 0.3152 -0.0801 -0.9456
vn 0.3162 0.0026 0.9487
vn -0.3077 0.2311 0.9230
vn -0.9406 0.1304 0.3135
vn -0.8675 -0.2892 0.4048
vn -0.8675 -0.4048 -0.2892
vn -0.4048 -0.2892 -0.8675
vn 0.2892 -0.4048 -0.8675
vn 0.8675 -0.2892 -0.4048
vn 0.8675 -0.4048 0.2892
vn 0.4048 -0.2892 0.8675
vn -0.2892 -0.4048 0.8675
vn -0.2892 -0.8675 -0.4048
vn 0.4048 -0.8675 -0.2892
vn 0.2892 -0.8675 0.4048
vn -0.4048 -0.8675 0.2892
usemtl 1_1
s off
f 63//1 62//1 11//1
f 62//2 80//2 11//2
f 101//3 99//3 102//3
f 15//4 106//4 61//4
f 15//5 105//5 67//5
f 77//6 143//6 26//6
f 68//7 146//7 21//7
f 65//8 60//8 16//8
f 60//9 82//9 16//9
f 17//10 105//10 61//10
f 61//11 63//11 17//11
f 80//12 59//12 18//12
f 18//13 104//13 65//13
f 69//14 140//14 20//14
f 140//15 70//15 20//15
f 19//16 107//16 71//16
f 19//17 108//17 76//17
f 20//18 104//18 59//18
f 20//19 103//19 69//19
f 139//20 75//20 19//20
f 70//21 142//21 22//21
f 21//22 103//22 62//22
f 21//23 106//23 68//23
f 75//24 145//24 24//24
f 22//25 105//25 60//25
f 22//26 104//26 70//26
f 78//27 141//27 25//27
f 67//28 144//28 15//28
f 73//29 72//29 23//29
f 72//30 71//30 23//30
f 71//31 74//31 23//31
f 74//32 73//32 23//32
f 145//33 77//33 24//33
f 146//34 69//34 21//34
f 24//35 110//35 74//35
f 24//36 107//36 75//36
f 141//37 76//37 25//37
f 142//38 67//38 22//38
f 25//39 108//39 72//39
f 25//40 109//40 78//40
f 143//41 78//41 26//41
f 144//42 68//42 15//42
f 26//43 109//43 73//43
f 26//44 110//44 77//44
f 122//45 102//45 123//45
f 120//46 132//46 134//46
f 121//47 101//47 137//47
f 125//48 52//48 54//48
f 122//49 136//49 138//49
f 116//50 53//50 126//50
f 119//51 131//51 127//51
f 128//52 51//52 132//52
f 100//53 53//53 99//53
f 54//54 51//54 53//54
f 131//55 51//55 52//55
f 133//56 132//56 131//56
f 135//57 134//57 133//57
f 137//58 136//58 135//58
f 137//59 102//59 138//59
f 124//60 100//60 101//60
f 129//61 133//61 119//61
f 126//62 51//62 118//62
f 127//63 52//63 117//63
f 123//64 99//64 116//64
f 130//65 134//65 136//65
f 115//66 54//66 100//66
f 121//67 135//67 129//67
f 139//68 147//68 148//68
f 139//69 150//69 140//69
f 141//70 150//70 149//70
f 141//71 152//71 142//71
f 143//72 152//72 151//72
f 143//73 154//73 144//73
f 145//74 154//74 153//74
f 145//75 147//75 146//75
f 76//76 139//76 19//76
f 63//1 106//1 62//1
f 62//2 103//2 80//2
f 101//77 100//77 99//77
f 15//4 68//4 106//4
f 15//5 61//5 105//5
f 77//6 153//6 143//6
f 68//7 154//7 146//7
f 65//8 104//8 60//8
f 60//9 105//9 82//9
f 17//10 82//10 105//10
f 61//11 106//11 63//11
f 80//12 103//12 59//12
f 18//13 59//13 104//13
f 69//14 147//14 140//14
f 140//15 150//15 70//15
f 19//78 75//78 107//78
f 19//79 71//79 108//79
f 20//18 70//18 104//18
f 20//19 59//19 103//19
f 139//20 148//20 75//20
f 70//21 150//21 142//21
f 21//22 69//22 103//22
f 21//23 62//23 106//23
f 75//24 148//24 145//24
f 22//25 67//25 105//25
f 22//26 60//26 104//26
f 78//27 151//27 141//27
f 67//28 152//28 144//28
f 73//80 109//80 72//80
f 72//81 108//81 71//81
f 71//82 107//82 74//82
f 74//83 110//83 73//83
f 145//33 153//33 77//33
f 146//34 147//34 69//34
f 24//84 77//84 110//84
f 24//85 74//85 107//85
f 141//37 149//37 76//37
f 142//38 152//38 67//38
f 25//86 76//86 108//86
f 25//87 72//87 109//87
f 143//41 151//41 78//41
f 144//42 154//42 68//42
f 26//88 78//88 109//88
f 26//89 73//89 110//89
f 122//90 138//90 102//90
f 120//91 128//91 132//91
f 121//92 124//92 101//92
f 125//93 117//93 52//93
f 122//94 130//94 136//94
f 116//95 99//95 53//95
f 119//96 133//96 131//96
f 128//97 118//97 51//97
f 100//98 54//98 53//98
f 54//99 52//99 51//99
f 131//100 132//100 51//100
f 133//101 134//101 132//101
f 135//102 136//102 134//102
f 137//103 138//103 136//103
f 137//104 101//104 102//104
f 124//105 115//105 100//105
f 129//106 135//106 133//106
f 126//107 53//107 51//107
f 127//108 131//108 52//108
f 123//109 102//109 99//109
f 130//110 120//110 134//110
f 115//111 125//111 54//111
f 121//112 137//112 135//112
f 139//113 140//113 147//113
f 139//114 149//114 150//114
f 141//115 142//115 150//115
f 141//116 151//116 152//116
f 143//117 144//117 152//117
f 143//118 153//118 154//118
f 145//119 146//119 154//119
f 145//120 148//120 147//120
f 76//76 149//76 139//76
usemtl 2_2.001
f 1//121 87//121 32//121
f 32//122 33//122 1//122
f 1//123 90//123 34//123
f 1//124 89//124 31//124
f 2//125 89//125 34//125
f 34//126 36//126 2//126
f 36//127 37//127 2//127
f 2//128 93//128 35//128
f 3//129 93//129 37//129
f 3//130 94//130 39//130
f 39//131 40//131 3//131
f 3//132 91//132 38//132
f 4//133 91//133 40//133
f 4//134 92//134 42//134
f 4//135 88//135 32//135
f 4//136 87//136 41//136
f 5//137 89//137 35//137
f 5//138 93//138 38//138
f 5//139 91//139 41//139
f 5//140 87//140 31//140
f 6//141 92//141 39//141
f 39//142 47//142 6//142
f 6//143 97//143 45//143
f 45//144 48//144 6//144
f 56//145 45//145 7//145
f 7//146 97//146 55//146
f 28//147 129//147 119//147
f 56//148 122//148 13//148
f 50//149 33//149 8//149
f 8//150 88//150 49//150
f 49//151 43//151 8//151
f 8//152 96//152 50//152
f 49//153 42//153 9//153
f 42//154 48//154 9//154
f 9//155 98//155 46//155
f 9//156 95//156 49//156
f 10//157 94//157 36//157
f 10//158 90//158 50//158
f 50//159 44//159 10//159
f 44//160 47//160 10//160
f 80//161 86//161 11//161
f 86//162 63//162 11//162
f 12//163 96//163 43//163
f 43//164 57//164 12//164
f 81//165 115//165 27//165
f 14//166 126//166 118//166
f 13//167 95//167 46//167
f 13//168 98//168 56//168
f 64//169 121//169 30//169
f 55//170 44//170 14//170
f 44//171 58//171 14//171
f 29//172 127//172 117//172
f 55//173 120//173 7//173
f 16//174 114//174 85//174
f 16//175 113//175 65//175
f 17//176 111//176 84//176
f 84//177 82//177 17//177
f 65//178 83//178 18//178
f 18//179 112//179 80//179
f 27//180 124//180 64//180
f 116//181 58//181 12//181
f 64//179 83//179 27//179
f 27//178 113//178 81//178
f 119//182 66//182 28//182
f 7//183 130//183 56//183
f 28//177 114//177 84//177
f 84//176 79//176 28//176
f 29//184 125//184 81//184
f 14//185 128//185 55//185
f 81//175 85//175 29//175
f 85//174 66//174 29//174
f 121//186 79//186 30//186
f 122//187 57//187 13//187
f 30//162 111//162 86//162
f 30//161 112//161 64//161
f 12//188 123//188 116//188
f 1//189 31//189 87//189
f 32//122 88//122 33//122
f 1//123 33//123 90//123
f 1//190 34//190 89//190
f 2//191 35//191 89//191
f 34//126 90//126 36//126
f 36//127 94//127 37//127
f 2//192 37//192 93//192
f 3//193 38//193 93//193
f 3//130 37//130 94//130
f 39//131 92//131 40//131
f 3//194 40//194 91//194
f 4//195 41//195 91//195
f 4//134 40//134 92//134
f 4//135 42//135 88//135
f 4//196 32//196 87//196
f 5//197 31//197 89//197
f 5//198 35//198 93//198
f 5//199 38//199 91//199
f 5//200 41//200 87//200
f 6//141 48//141 92//141
f 39//142 94//142 47//142
f 6//143 47//143 97//143
f 45//144 98//144 48//144
f 56//145 98//145 45//145
f 7//146 45//146 97//146
f 28//147 79//147 129//147
f 56//148 130//148 122//148
f 50//149 90//149 33//149
f 8//150 33//150 88//150
f 49//151 95//151 43//151
f 8//152 43//152 96//152
f 49//153 88//153 42//153
f 42//154 92//154 48//154
f 9//155 48//155 98//155
f 9//156 46//156 95//156
f 10//157 47//157 94//157
f 10//158 36//158 90//158
f 50//159 96//159 44//159
f 44//160 97//160 47//160
f 80//161 112//161 86//161
f 86//162 111//162 63//162
f 12//163 58//163 96//163
f 43//164 95//164 57//164
f 81//165 125//165 115//165
f 14//166 58//166 126//166
f 13//167 57//167 95//167
f 13//168 46//168 98//168
f 64//169 124//169 121//169
f 55//170 97//170 44//170
f 44//171 96//171 58//171
f 29//172 66//172 127//172
f 55//173 128//173 120//173
f 16//174 82//174 114//174
f 16//175 85//175 113//175
f 17//176 63//176 111//176
f 84//177 114//177 82//177
f 65//178 113//178 83//178
f 18//179 83//179 112//179
f 27//180 115//180 124//180
f 116//181 126//181 58//181
f 64//179 112//179 83//179
f 27//178 83//178 113//178
f 119//182 127//182 66//182
f 7//183 120//183 130//183
f 28//177 66//177 114//177
f 84//176 111//176 79//176
f 29//184 117//184 125//184
f 14//185 118//185 128//185
f 81//175 113//175 85//175
f 85//174 114//174 66//174
f 121//186 129//186 79//186
f 122//187 123//187 57//187
f 30//162 79//162 111//162
f 30//161 86//161 112//161
f 12//188 57//188 123//188
