# Blender v2.79 (sub 0) OBJ File: 'kamen.blend'
# www.blender.org
mtllib k3.mtl
o rock
v 0.913098 0.058162 0.097052
v 0.580434 0.099021 -0.341333
v 0.736547 -0.025033 0.173530
v 0.509523 0.096095 0.346615
v 0.239883 0.027863 0.305792
v 0.545481 -0.024003 -0.157181
v 0.859327 0.093462 -0.172364
v 0.684225 0.282404 -0.302376
v 0.158768 0.110584 -0.358354
v 0.760279 0.477675 -0.098554
v 0.879760 0.442257 0.095605
v 0.992102 0.263226 0.007343
v 0.617757 0.617541 0.008182
v 0.908064 0.270141 0.281557
v 0.481688 0.510408 0.426251
v 0.674301 0.143570 0.373503
v -0.128590 0.116990 0.692137
v 0.050560 0.085756 0.544981
v -0.243118 -0.028647 0.502180
v -0.655372 0.119139 0.424119
v -0.429179 0.265524 0.719683
v -0.503723 -0.062814 0.091221
v 0.123573 0.004098 0.074185
v 0.373253 -0.000930 -0.235123
v -0.223935 -0.045067 -0.053395
v -0.688620 -0.020776 0.093808
v -0.418972 0.031757 -0.433331
v -0.396576 0.174999 -0.679179
v -0.664542 0.093402 -0.609323
v -0.028789 0.252942 -0.484455
v -0.598781 0.513214 -0.700493
v -0.545703 0.339866 -0.779395
v 0.054666 0.626051 -0.499204
v 0.239824 0.496426 -0.419700
v 0.439785 0.274198 -0.375123
v -0.207149 0.739633 -0.476980
v 0.196100 0.796123 -0.275157
v 0.055563 0.877529 -0.398815
v 0.119619 1.072107 -0.291778
v 0.331949 0.891330 -0.059666
v -0.194135 1.201905 -0.326195
v 0.145583 1.236148 -0.151371
v -0.130225 1.374732 -0.130043
v -0.222714 1.410157 0.065605
v 0.126344 1.279754 0.040179
v 0.117963 0.996471 0.311704
v -0.012331 1.262855 0.278363
v -0.218266 0.914635 0.628895
v 0.360891 0.723814 0.321886
v 0.162769 0.690817 0.588542
v -0.012223 0.354589 0.763527
v 0.321607 0.248921 0.489857
v -0.553958 0.893616 0.621681
v -0.264838 0.395608 0.782908
v -0.651932 0.538034 0.698606
v -0.673165 0.286585 0.621616
v -0.853662 0.346318 0.490106
v -0.895378 0.551627 0.452356
v -0.903485 0.228928 0.065819
v -0.807882 0.374692 -0.550694
v -0.505575 0.803430 -0.454954
v -0.682662 0.990209 -0.157357
v -0.425197 1.284956 -0.258545
v -0.594946 1.187196 -0.206142
v -0.495802 1.228761 0.278674
v -0.760580 1.024118 0.113500
v -0.765454 0.803510 0.483183
v -0.493869 1.356844 0.091087
v -0.939780 0.738688 0.179949
v -0.888803 0.812017 0.312069
v -0.826696 0.716719 -0.204735
v -0.974616 0.422522 0.108186
vn 0.5362 -0.5469 0.6430
vn 0.2835 -0.8214 -0.4949
vn 0.3353 -0.9214 -0.1966
vn 0.5134 -0.1098 -0.8511
vn 0.7178 0.6131 -0.3299
vn 0.5093 0.2962 -0.8080
vn 0.2837 0.0430 -0.9580
vn 0.0354 -0.1618 -0.9862
vn 0.0072 -0.7352 -0.6778
vn 0.3558 0.7685 -0.5318
vn 0.8706 0.4200 0.2562
vn 0.9287 -0.2307 0.2904
vn 0.5461 -0.5489 0.6328
vn 0.3220 0.0330 0.9462
vn 0.0603 -0.6421 0.7642
vn 0.2739 -0.8625 0.4256
vn -0.3699 -0.7248 0.5812
vn -0.2721 -0.6774 0.6834
vn -0.3216 -0.6860 0.6527
vn 0.1072 -0.9931 0.0480
vn -0.0518 -0.9983 0.0268
vn 0.1650 -0.9468 -0.2762
vn 0.1796 -0.8570 -0.4830
vn 0.4850 -0.1273 -0.8652
vn -0.7440 -0.6550 -0.1318
vn -0.0319 -0.9827 -0.1823
vn 0.4866 -0.1429 -0.8619
vn -0.0494 -0.5510 -0.8330
vn 0.1625 0.5365 -0.8281
vn 0.0775 0.6293 -0.7733
vn 0.3261 -0.1101 -0.9389
vn 0.2268 0.0088 -0.9739
vn 0.5898 0.4190 -0.6904
vn 0.7179 0.2559 -0.6474
vn 0.2611 0.3979 -0.8795
vn 0.7011 0.1524 -0.6966
vn 0.7925 0.1846 -0.5812
vn 0.8089 0.3032 -0.5038
vn 0.0616 0.2630 -0.9628
vn 0.2845 0.6714 -0.6843
vn 0.4335 0.8871 -0.1584
vn 0.0683 0.7374 -0.6720
vn 0.8511 0.3499 0.3914
vn 0.7221 0.6520 0.2315
vn -0.0556 0.7943 0.6049
vn 0.3542 0.8954 0.2697
vn 0.3497 0.9369 -0.0043
vn 0.5857 0.3763 0.7179
vn -0.0599 0.7190 0.6924
vn 0.4412 0.6371 0.6320
vn 0.6218 0.5739 0.5330
vn 0.1176 0.2728 0.9549
vn -0.2589 -0.1377 0.9561
vn -0.7115 -0.0154 0.7025
vn -0.5768 -0.6480 0.4974
vn -0.9763 0.1212 0.1793
vn -0.9371 0.0242 0.3481
vn -0.6111 0.3246 0.7220
vn -0.9514 -0.1432 0.2727
vn -0.9019 -0.3774 0.2103
vn -0.6860 -0.6765 0.2677
vn -0.8853 -0.4027 -0.2325
vn -0.6599 -0.1844 -0.7284
vn -0.8226 0.4847 -0.2973
vn -0.7810 0.2014 -0.5911
vn -0.1256 0.3926 -0.9111
vn -0.8971 0.3255 -0.2988
vn -0.7006 0.6168 0.3588
vn -0.5407 0.7255 0.4258
vn -0.5418 0.7960 -0.2701
vn -0.2088 0.9490 -0.2361
vn -0.1777 0.9502 -0.2560
vn -0.8419 0.4648 -0.2740
vn -0.8142 -0.1783 -0.5525
vn 0.3499 -0.9173 -0.1900
vn 0.0926 -0.7546 0.6496
vn 0.1065 -0.7436 0.6601
vn 0.1296 -0.8357 -0.5337
vn 0.6615 0.4027 -0.6326
vn 0.7033 0.1783 -0.6881
vn 0.1903 0.6725 -0.7153
vn 0.5968 0.4601 -0.6574
vn 0.8698 -0.4361 -0.2307
vn 0.5462 0.6545 0.5227
vn 0.4356 0.8276 0.3539
vn 0.6315 0.7264 0.2710
vn 0.5924 0.7741 -0.2233
vn 0.3441 0.0458 0.9378
vn 0.2545 -0.8354 0.4871
vn 0.1769 -0.9154 0.3616
vn 0.3796 -0.3398 0.8605
vn -0.3722 -0.8753 0.3088
vn -0.1980 -0.8953 0.3991
vn 0.1080 -0.9903 0.0874
vn 0.1190 -0.9929 0.0071
vn -0.0690 -0.9883 0.1361
vn 0.1034 -0.9896 0.0996
vn -0.1085 -0.8237 -0.5566
vn -0.2209 -0.9615 -0.1637
vn -0.1065 -0.9754 -0.1931
vn 0.1347 -0.8615 -0.4897
vn 0.4643 -0.1140 -0.8783
vn 0.1897 0.4543 -0.8704
vn 0.2209 -0.4672 -0.8561
vn 0.0816 0.3693 -0.9257
vn 0.6890 0.3939 -0.6084
vn 0.3236 0.5852 -0.7435
vn 0.0301 0.4489 -0.8931
vn 0.7650 0.4337 0.4761
vn 0.8817 0.4715 -0.0188
vn -0.0506 0.7232 0.6888
vn 0.6055 0.5990 0.5240
vn 0.7112 0.5897 0.3826
vn 0.4324 -0.0457 0.9005
vn 0.6443 0.0614 0.7623
vn 0.5112 -0.4671 0.7215
vn 0.4503 -0.4976 0.7414
vn -0.0348 0.2205 0.9748
vn 0.2847 0.3218 0.9030
vn -0.0854 -0.3462 0.9343
vn -0.3798 -0.2414 0.8930
vn -0.6177 -0.1821 0.7651
vn -0.7600 0.3230 0.5639
vn -0.6782 0.2660 0.6851
vn -0.7343 -0.5953 0.3261
vn -0.9877 0.0812 -0.1340
vn -0.6984 0.4896 -0.5221
vn -0.5769 0.6276 -0.5228
vn -0.6389 0.1480 -0.7549
vn -0.4725 0.3993 -0.7857
vn -0.7801 0.6194 -0.0882
vn -0.7033 0.5904 0.3959
vn -0.1089 0.8215 0.5598
vn -0.8436 0.5362 0.0279
vn -0.5968 0.6221 0.5067
vn -0.6228 0.4401 -0.6468
vn -0.9430 0.1690 -0.2868
vn -0.1027 -0.9925 -0.0668
vn 0.0247 -0.2987 0.9540
vn -0.1000 0.2913 0.9514
usemtl 3
s off
f 3//1 1//1 14//1
f 2//2 7//2 6//2
f 6//3 7//3 3//3
f 7//4 2//4 8//4
f 11//5 12//5 10//5
f 35//6 34//6 10//6
f 35//7 8//7 2//7
f 35//8 2//8 9//8
f 2//9 24//9 9//9
f 34//10 13//10 10//10
f 14//11 12//11 11//11
f 1//12 12//12 14//12
f 14//13 16//13 3//13
f 16//14 15//14 52//14
f 4//15 16//15 52//15
f 18//16 19//16 5//16
f 56//17 20//17 19//17
f 21//18 19//18 17//18
f 19//19 21//19 56//19
f 5//20 22//20 23//20
f 6//21 3//21 23//21
f 25//22 27//22 9//22
f 28//23 9//23 27//23
f 28//24 30//24 9//24
f 26//25 59//25 29//25
f 22//26 27//26 25//26
f 33//27 30//27 28//27
f 28//28 29//28 32//28
f 36//29 33//29 31//29
f 36//30 31//30 61//30
f 30//31 33//31 34//31
f 35//32 30//32 34//32
f 37//33 34//33 33//33
f 38//34 37//34 33//34
f 38//35 41//35 39//35
f 38//36 39//36 37//36
f 40//37 37//37 39//37
f 42//38 40//38 39//38
f 38//39 61//39 41//39
f 41//40 43//40 42//40
f 45//41 42//41 43//41
f 41//42 63//42 43//42
f 46//43 40//43 45//43
f 46//44 49//44 40//44
f 47//45 44//45 65//45
f 47//46 45//46 44//46
f 43//47 44//47 45//47
f 47//48 48//48 46//48
f 53//49 48//49 65//49
f 50//50 46//50 48//50
f 46//51 50//51 49//51
f 54//52 51//52 48//52
f 54//53 55//53 21//53
f 58//54 57//54 55//54
f 20//55 56//55 57//55
f 72//56 58//56 70//56
f 69//57 72//57 70//57
f 53//58 67//58 55//58
f 58//59 72//59 57//59
f 57//60 72//60 59//60
f 20//61 57//61 59//61
f 29//62 59//62 60//62
f 60//63 32//63 29//63
f 71//64 66//64 62//64
f 64//65 61//65 62//65
f 63//66 41//66 61//66
f 66//67 64//67 62//67
f 66//68 67//68 65//68
f 67//69 66//69 70//69
f 63//70 64//70 68//70
f 68//71 44//71 63//71
f 43//72 63//72 44//72
f 66//73 71//73 69//73
f 59//74 72//74 71//74
f 7//75 1//75 3//75
f 3//76 4//76 5//76
f 3//77 16//77 4//77
f 2//78 6//78 24//78
f 10//79 12//79 8//79
f 12//80 7//80 8//80
f 35//81 10//81 8//81
f 34//82 40//82 13//82
f 1//83 7//83 12//83
f 15//84 14//84 11//84
f 11//85 13//85 15//85
f 13//86 40//86 49//86
f 13//87 11//87 10//87
f 14//88 15//88 16//88
f 17//89 19//89 18//89
f 5//90 4//90 18//90
f 18//91 4//91 52//91
f 19//92 20//92 22//92
f 22//93 20//93 26//93
f 23//94 22//94 25//94
f 5//95 19//95 22//95
f 5//96 23//96 3//96
f 23//97 25//97 24//97
f 25//98 9//98 24//98
f 26//99 29//99 22//99
f 27//100 22//100 29//100
f 27//101 29//101 28//101
f 28//102 32//102 33//102
f 31//103 33//103 32//103
f 35//104 9//104 30//104
f 38//105 33//105 36//105
f 40//106 34//106 37//106
f 42//107 39//107 41//107
f 36//108 61//108 38//108
f 47//109 46//109 45//109
f 45//110 40//110 42//110
f 65//111 48//111 47//111
f 15//112 49//112 50//112
f 49//113 15//113 13//113
f 15//114 50//114 52//114
f 51//115 52//115 50//115
f 18//116 51//116 17//116
f 18//117 52//117 51//117
f 53//118 55//118 48//118
f 51//119 50//119 48//119
f 54//120 21//120 17//120
f 56//121 21//121 55//121
f 57//122 56//122 55//122
f 67//123 70//123 58//123
f 55//124 67//124 58//124
f 20//125 59//125 26//125
f 60//126 59//126 71//126
f 60//127 71//127 31//127
f 61//128 31//128 71//128
f 60//129 31//129 32//129
f 64//130 63//130 61//130
f 66//131 68//131 64//131
f 68//132 66//132 65//132
f 68//133 65//133 44//133
f 69//134 70//134 66//134
f 67//135 53//135 65//135
f 61//136 71//136 62//136
f 69//137 71//137 72//137
f 6//138 23//138 24//138
f 17//139 51//139 54//139
f 54//140 48//140 55//140
