# Blender v2.79 (sub 0) OBJ File: ''
# www.blender.org
mtllib gereb3.mtl
o Cube.002_Cube.004
v -0.345303 0.273973 -0.054676
v 0.000000 0.273973 -0.399980
v 0.345303 0.273973 -0.054676
v 0.000000 0.273973 0.290627
v 0.000000 -0.071330 -0.054676
v 0.345303 1.162177 0.128511
v 0.267384 2.551071 0.125180
v -0.345303 1.162177 0.128511
v 0.000000 1.162177 0.473814
v 0.000000 1.162177 -0.216792
v 0.000000 4.131728 0.351247
v -0.267384 2.551071 0.125180
v 0.000000 2.551071 0.392564
v 0.000000 2.551071 -0.142204
v 1.076009 4.395802 0.211778
v 0.000000 4.131728 -0.027682
v 0.189465 4.131728 0.161782
v -0.189465 4.131728 0.161782
v -1.493733 4.793615 0.211778
v -1.076009 4.395802 0.211778
v 0.000000 4.395802 1.287787
v 0.000000 4.395802 -0.864231
v 0.000000 5.091976 0.211778
v 0.000000 4.793615 1.705510
v 0.000000 4.793615 -1.281955
v 1.493733 4.793615 0.211778
v -0.214554 3.317916 0.057409
v 0.214554 3.317916 0.057409
v 0.000000 3.317916 -0.157145
v 0.000000 3.317916 0.271963
v -0.258977 0.014996 -0.054676
v -0.258977 0.273973 0.204301
v -0.345303 0.668676 -0.008880
v -0.258977 0.273973 -0.313654
v 0.000000 0.014996 -0.313654
v 0.000000 0.668676 -0.354183
v 0.258977 0.273973 -0.313654
v 0.258977 0.014996 -0.054676
v 0.345303 0.668676 -0.008880
v 0.258977 0.273973 0.204301
v 0.000000 0.014996 0.204301
v 0.000000 0.668676 0.336423
v -0.325823 1.780851 0.219272
v 0.000000 1.780851 -0.106551
v 0.325823 1.780851 0.219272
v 0.000000 1.780851 0.545095
v 0.258977 1.162177 -0.130466
v 0.258977 1.162177 0.387488
v -0.258977 1.162177 0.387488
v -0.258977 1.162177 -0.130466
v 0.200538 2.551071 -0.075358
v 0.200538 2.551071 0.325718
v -0.200538 2.551071 0.325718
v -0.200538 2.551071 -0.075358
v -0.489829 4.280056 0.199279
v 0.000000 4.280056 -0.290550
v 0.489829 4.280056 0.199279
v 0.000000 4.280056 0.689108
v 0.142099 4.131728 0.303881
v -0.160915 3.317916 0.218324
v -0.142099 4.131728 0.019684
v 0.160915 3.317916 -0.103506
v 0.807007 4.395802 -0.595229
v 0.807007 4.395802 1.018785
v -0.807007 4.395802 1.018785
v -0.807007 4.395802 -0.595229
v -0.570978 5.017386 0.211778
v 0.000000 5.017386 -0.359200
v 0.570978 5.017386 0.211778
v 0.000000 5.017386 0.782756
v -1.120300 4.793615 1.332077
v -1.120300 4.793615 -0.908522
v 1.120300 4.793615 1.332077
v 1.120300 4.793615 -0.908522
v 0.160915 3.317916 0.218324
v -0.142099 4.131728 0.303881
v -0.160915 3.317916 -0.103506
v 0.142099 4.131728 0.019684
v -0.189465 3.937008 0.102645
v 0.189465 3.937008 0.102645
v 0.000000 3.937008 -0.086820
v 0.000000 3.937008 0.292110
v -0.191835 0.082138 0.137159
v -0.258977 0.668676 0.250098
v -0.191835 0.082138 -0.246511
v -0.258977 0.668676 -0.267857
v 0.191835 0.082138 0.137159
v 0.258977 0.668676 0.250098
v 0.191835 0.082138 -0.246511
v 0.258977 0.668676 -0.267857
v -0.244367 1.780851 0.463640
v -0.244367 1.780851 -0.025095
v 0.244367 1.780851 -0.025095
v 0.244367 1.780851 0.463640
v -0.367372 4.280056 0.566651
v -0.367372 4.280056 -0.168092
v 0.367372 4.280056 -0.168092
v 0.367372 4.280056 0.566651
v -0.585709 4.959372 0.797486
v -0.585709 4.959372 -0.373931
v 0.585709 4.959372 -0.373931
v 0.585709 4.959372 0.797486
v 0.142099 3.937008 0.244744
v -0.142099 3.937008 0.244744
v -0.142099 3.937008 -0.039453
v 0.142099 3.937008 -0.039453
v -1.952414 4.088204 0.227765
v -1.946919 4.040597 0.227765
v 0.000000 4.088204 -1.724649
v 0.000000 4.040597 -1.719154
v 1.952414 4.088204 0.227765
v 1.946919 4.040597 0.227765
v 0.000000 4.088204 2.180179
v 0.000000 4.040597 2.174684
v -1.460190 4.040597 1.687955
v -1.464311 4.088204 1.692076
v -1.464311 4.088204 -1.236545
v -1.460190 4.040597 -1.232424
v 1.464311 4.088204 -1.236545
v 1.460190 4.040597 -1.232424
v 1.464311 4.088204 1.692076
v 1.460190 4.040597 1.687955
v 0.340919 4.405321 1.874255
v 0.207683 4.560100 1.817719
v 0.491841 4.490758 1.752486
v 0.358605 4.645537 1.695949
v 0.443975 4.415984 1.825080
v 0.243044 4.465016 1.871207
v 0.255550 4.634874 1.745125
v 0.456480 4.585842 1.698998
v 0.349762 4.525429 1.785102
v -0.161193 4.920603 1.193801
v -0.239626 4.975167 1.004656
v 0.035664 4.942761 1.118562
v -0.042768 4.997326 0.929417
v -0.046520 4.920382 1.195355
v -0.241180 4.943296 1.114811
v -0.157441 4.997547 0.927863
v 0.037219 4.974633 1.008407
v -0.101981 4.958964 1.061609
v -0.362661 5.044768 -0.035801
v -0.357815 5.026350 -0.246850
v -0.151207 5.058122 -0.032110
v -0.146360 5.039704 -0.243160
v -0.257938 5.055260 0.009755
v -0.404031 5.032793 -0.142090
v -0.251084 5.029212 -0.288715
v -0.104990 5.051680 -0.136871
v -0.254511 5.042236 -0.139480
v 1.318968 4.593233 -0.712309
v 1.421339 4.412247 -0.753159
v 1.393036 4.590321 -0.513789
v 1.495408 4.409335 -0.554639
v 1.334800 4.629261 -0.604589
v 1.354813 4.503343 -0.773849
v 1.479576 4.373308 -0.662360
v 1.459563 4.499225 -0.493099
v 1.407188 4.501284 -0.633474
v 1.433883 4.869774 0.172977
v 1.554030 4.728793 0.070052
v 1.502169 4.792743 0.358201
v 1.622317 4.651762 0.255276
v 1.443143 4.860457 0.286906
v 1.479814 4.815236 0.083153
v 1.613057 4.661079 0.141348
v 1.576386 4.706299 0.345100
v 1.528100 4.760767 0.214126
v -1.617646 4.710822 0.198935
v -1.515042 4.778643 0.026374
v -1.494550 4.833388 0.320300
v -1.391946 4.901211 0.147739
v -1.577349 4.758059 0.295356
v -1.591837 4.719348 0.087519
v -1.432244 4.853973 0.051318
v -1.417754 4.892684 0.259155
v -1.504796 4.806016 0.173337
v -0.166037 4.708608 -1.372523
v 0.033916 4.655769 -1.418691
v -0.095974 4.851401 -1.232502
v 0.103980 4.798564 -1.278670
v -0.172417 4.790947 -1.292951
v -0.080570 4.652615 -1.424605
v 0.110360 4.716224 -1.358242
v 0.018514 4.854556 -1.226587
v -0.031028 4.753585 -1.325596
v -1.185228 4.572403 1.527566
v -1.315558 4.608295 1.364378
v -1.063131 4.734146 1.465629
v -1.193461 4.770040 1.302440
v -1.097187 4.645840 1.530395
v -1.275680 4.556851 1.458799
v -1.281502 4.696601 1.299612
v -1.103009 4.785591 1.371207
v -1.189344 4.671221 1.415003
v 0.841181 4.913799 0.682436
v 1.046297 4.864765 0.703107
v 0.816983 4.901167 0.892578
v 1.022100 4.852134 0.913250
v 0.786600 4.917639 0.783225
v 0.948751 4.891897 0.649250
v 1.076680 4.848295 0.812460
v 0.914531 4.874035 0.946436
v 0.931641 4.882966 0.797843
v -1.343104 4.662277 -0.740305
v -1.339810 4.568945 -0.930523
v -1.186865 4.791851 -0.801176
v -1.183571 4.698518 -0.991394
v -1.265667 4.746394 -0.731345
v -1.373815 4.588776 -0.822808
v -1.261009 4.614401 -1.000354
v -1.152861 4.772020 -0.908892
v -1.263338 4.680398 -0.865850
vn 0.1328 -0.9075 0.3984
vn -0.1328 -0.9075 0.3984
vn 0.1920 -0.9793 0.0640
vn 0.1946 -0.9787 -0.0649
vn 0.8048 0.5294 0.2683
vn -0.1230 -0.9213 -0.3690
vn -0.1617 -0.8595 -0.4850
vn 0.1617 -0.8595 -0.4850
vn 0.4528 -0.8787 -0.1509
vn 0.4241 -0.8945 0.1414
vn -0.4241 -0.8945 0.1414
vn -0.4528 -0.8787 -0.1509
vn 0.3728 -0.9196 -0.1243
vn 0.3766 -0.9178 0.1255
vn -0.2347 0.9679 0.0900
vn -0.2259 0.9712 -0.0753
vn -0.1946 -0.9787 -0.0649
vn -0.1920 -0.9793 0.0640
vn -0.8048 0.5294 0.2683
vn 0.1269 -0.9160 0.3806
vn -0.0631 -0.9799 0.1894
vn 0.0631 -0.9799 0.1894
vn -0.2665 0.5381 0.7996
vn 0.0658 -0.9781 -0.1973
vn -0.0658 -0.9781 -0.1973
vn 0.2717 0.5116 -0.8152
vn -0.3766 -0.9178 0.1255
vn 0.1285 0.9834 -0.1285
vn -0.1285 0.9834 -0.1285
vn -0.1285 0.9834 0.1285
vn 0.1285 0.9834 0.1285
vn 0.2665 0.5381 0.7996
vn 0.1230 -0.9213 -0.3690
vn 0.0900 0.9679 0.2347
vn -0.0753 0.9712 0.2259
vn -0.2717 0.5116 -0.8152
vn -0.1269 -0.9160 0.3806
vn -0.0900 0.9679 -0.2347
vn 0.0753 0.9712 -0.2259
vn 0.8100 0.5206 -0.2700
vn -0.3728 -0.9196 -0.1243
vn 0.2347 0.9679 -0.0900
vn 0.2259 0.9712 0.0753
vn -0.9430 -0.1088 0.3143
vn -0.9430 -0.1088 -0.3144
vn -0.3143 -0.1088 -0.9430
vn 0.3144 -0.1088 -0.9430
vn 0.9430 -0.1088 -0.3143
vn 0.9430 -0.1088 0.3144
vn 0.3143 -0.1088 0.9430
vn -0.3144 -0.1088 0.9430
vn -0.8100 0.5206 -0.2700
vn -0.2259 0.9712 0.0753
vn -0.2347 0.9679 -0.0900
vn 0.0957 0.9908 -0.0957
vn -0.0957 0.9908 -0.0957
vn -0.0957 0.9908 0.0957
vn 0.0957 0.9908 0.0957
vn 0.0753 0.9712 0.2259
vn -0.0900 0.9679 0.2347
vn -0.0753 0.9712 -0.2259
vn 0.0900 0.9679 -0.2347
vn 0.2259 0.9712 -0.0753
vn 0.2347 0.9679 0.0900
vn -0.9430 -0.1088 0.3144
vn -0.9430 -0.1088 -0.3143
vn -0.3144 -0.1088 -0.9430
vn 0.3143 -0.1088 -0.9430
vn 0.9430 -0.1089 -0.3144
vn 0.9430 -0.1088 0.3143
vn 0.3144 -0.1088 0.9430
vn -0.3143 -0.1088 0.9430
vn -0.8675 -0.4048 0.2892
vn -0.9480 -0.0367 0.3160
vn -0.9480 0.0367 -0.3160
vn -0.8675 -0.2892 -0.4048
vn -0.2892 -0.4048 -0.8675
vn -0.3143 0.1094 -0.9430
vn 0.3143 0.1094 -0.9430
vn 0.4048 -0.2892 -0.8675
vn 0.8675 -0.4048 -0.2892
vn 0.9480 0.0367 -0.3160
vn 0.9480 -0.0367 0.3160
vn 0.8675 -0.2892 0.4048
vn 0.2892 -0.4048 0.8675
vn 0.3143 -0.1094 0.9430
vn -0.3143 -0.1094 0.9430
vn -0.4048 -0.2892 0.8675
vn -0.4048 -0.8675 -0.2892
vn 0.2892 -0.8675 -0.4048
vn 0.4048 -0.8675 0.2892
vn -0.2892 -0.8675 0.4048
vn 0.9450 -0.0877 0.3150
vn 0.9450 0.0877 -0.3150
vn 0.9459 0.0760 -0.3153
vn 0.9486 -0.0165 0.3162
vn 0.9429 0.1099 0.3143
vn 0.9482 0.0333 -0.3161
vn -0.9480 0.0374 -0.3160
vn -0.9450 0.0877 -0.3150
vn -0.9450 -0.0877 0.3150
vn -0.9486 -0.0165 0.3162
vn -0.9459 0.0760 -0.3153
vn -0.3057 -0.2554 0.9172
vn 0.3057 -0.2554 0.9172
vn 0.3144 -0.1087 0.9431
vn -0.3144 -0.1087 0.9431
vn 0.3057 0.2554 -0.9172
vn -0.3057 0.2554 -0.9172
vn -0.3118 0.1667 -0.9354
vn 0.3118 0.1667 -0.9354
vn -0.3039 -0.2769 0.9116
vn 0.3039 -0.2769 0.9116
vn -0.9482 0.0333 -0.3161
vn -0.9429 0.1099 0.3143
vn -0.3108 0.1846 0.9324
vn 0.3108 0.1846 0.9324
vn 0.3162 -0.0185 -0.9485
vn 0.3159 -0.0439 -0.9478
vn -0.3159 -0.0439 -0.9478
vn 0.3039 0.2769 -0.9116
vn -0.3039 0.2769 -0.9116
vn 0.9443 -0.0956 0.3148
vn 0.9443 0.0956 -0.3148
vn -0.9443 0.0956 -0.3148
vn -0.9443 -0.0956 0.3148
vn -0.9486 0.0153 0.3162
vn -0.9469 0.0614 -0.3156
vn 0.9469 0.0614 -0.3156
vn 0.9486 0.0153 0.3162
vn -0.3144 0.1071 -0.9432
vn 0.3144 0.1071 -0.9432
vn 0.9480 0.0374 -0.3160
vn -0.9446 0.0929 0.3149
vn 0.3161 -0.0309 0.9482
vn -0.3161 -0.0309 0.9482
vn -0.3162 -0.0185 -0.9485
vn -0.3128 0.1476 0.9383
vn 0.3128 0.1476 0.9383
vn 0.9446 0.0929 0.3149
vn -0.8675 -0.2892 0.4048
vn -0.8675 -0.4048 -0.2892
vn -0.4048 -0.2892 -0.8675
vn 0.2892 -0.4048 -0.8675
vn 0.8675 -0.2892 -0.4048
vn 0.8675 -0.4048 0.2892
vn 0.4048 -0.2892 0.8675
vn -0.2892 -0.4048 0.8675
vn -0.2892 -0.8675 -0.4048
vn 0.4048 -0.8675 -0.2892
vn 0.2892 -0.8675 0.4048
vn -0.4048 -0.8675 0.2892
vn 0.3122 0.5513 0.7737
vn 0.3121 0.5513 0.7737
vn -0.0019 0.9606 0.2779
vn -0.0613 0.9942 -0.0882
vn -0.0612 0.9942 -0.0882
vn 0.8028 0.5200 -0.2919
vn 0.7581 0.6521 -0.0083
vn -0.6543 0.7503 -0.0941
vn 0.0179 0.6955 -0.7183
vn 0.0180 0.6955 -0.7183
vn -0.5383 0.6235 0.5670
vn 0.2236 0.9710 0.0841
vn 0.2237 0.9710 0.0841
vn -0.6754 0.6574 -0.3342
usemtl 1_2
s off
f 59//1 58//1 11//1
f 58//2 76//2 11//2
f 15//3 98//3 57//3
f 15//4 97//4 63//4
f 73//5 111//5 26//5
f 64//6 114//6 21//6
f 61//7 56//7 16//7
f 56//8 78//8 16//8
f 17//9 97//9 57//9
f 57//10 59//10 17//10
f 76//11 55//11 18//11
f 18//12 96//12 61//12
f 65//13 108//13 20//13
f 108//14 66//14 20//14
f 19//15 99//15 67//15
f 19//16 100//16 72//16
f 20//17 96//17 55//17
f 20//18 95//18 65//18
f 107//19 71//19 19//19
f 66//20 110//20 22//20
f 21//21 95//21 58//21
f 21//22 98//22 64//22
f 71//23 113//23 24//23
f 22//24 97//24 56//24
f 22//25 96//25 66//25
f 74//26 109//26 25//26
f 63//27 112//27 15//27
f 69//28 68//28 23//28
f 68//29 67//29 23//29
f 67//30 70//30 23//30
f 70//31 69//31 23//31
f 113//32 73//32 24//32
f 114//33 65//33 21//33
f 24//34 102//34 70//34
f 24//35 99//35 71//35
f 109//36 72//36 25//36
f 110//37 63//37 22//37
f 25//38 100//38 68//38
f 25//39 101//39 74//39
f 111//40 74//40 26//40
f 112//41 64//41 15//41
f 26//42 101//42 69//42
f 26//43 102//43 73//43
f 107//44 115//44 116//44
f 107//45 118//45 108//45
f 109//46 118//46 117//46
f 109//47 120//47 110//47
f 111//48 120//48 119//48
f 111//49 122//49 112//49
f 113//50 122//50 121//50
f 113//51 115//51 114//51
f 72//52 107//52 19//52
f 59//1 98//1 58//1
f 58//2 95//2 76//2
f 15//3 64//3 98//3
f 15//4 57//4 97//4
f 73//5 121//5 111//5
f 64//6 122//6 114//6
f 61//7 96//7 56//7
f 56//8 97//8 78//8
f 17//9 78//9 97//9
f 57//10 98//10 59//10
f 76//11 95//11 55//11
f 18//12 55//12 96//12
f 65//13 115//13 108//13
f 108//14 118//14 66//14
f 19//53 71//53 99//53
f 19//54 67//54 100//54
f 20//17 66//17 96//17
f 20//18 55//18 95//18
f 107//19 116//19 71//19
f 66//20 118//20 110//20
f 21//21 65//21 95//21
f 21//22 58//22 98//22
f 71//23 116//23 113//23
f 22//24 63//24 97//24
f 22//25 56//25 96//25
f 74//26 119//26 109//26
f 63//27 120//27 112//27
f 69//55 101//55 68//55
f 68//56 100//56 67//56
f 67//57 99//57 70//57
f 70//58 102//58 69//58
f 113//32 121//32 73//32
f 114//33 115//33 65//33
f 24//59 73//59 102//59
f 24//60 70//60 99//60
f 109//36 117//36 72//36
f 110//37 120//37 63//37
f 25//61 72//61 100//61
f 25//62 68//62 101//62
f 111//40 119//40 74//40
f 112//41 122//41 64//41
f 26//63 74//63 101//63
f 26//64 69//64 102//64
f 107//65 108//65 115//65
f 107//66 117//66 118//66
f 109//67 110//67 118//67
f 109//68 119//68 120//68
f 111//69 112//69 120//69
f 111//70 121//70 122//70
f 113//71 114//71 122//71
f 113//72 116//72 115//72
f 72//52 117//52 107//52
usemtl 2_2
f 1//73 83//73 32//73
f 32//74 33//74 1//74
f 1//75 86//75 34//75
f 1//76 85//76 31//76
f 2//77 85//77 34//77
f 34//78 36//78 2//78
f 36//79 37//79 2//79
f 2//80 89//80 35//80
f 3//81 89//81 37//81
f 3//82 90//82 39//82
f 39//83 40//83 3//83
f 3//84 87//84 38//84
f 4//85 87//85 40//85
f 4//86 88//86 42//86
f 4//87 84//87 32//87
f 4//88 83//88 41//88
f 5//89 85//89 35//89
f 5//90 89//90 38//90
f 5//91 87//91 41//91
f 5//92 83//92 31//92
f 6//93 88//93 39//93
f 39//94 47//94 6//94
f 6//95 93//95 45//95
f 45//96 48//96 6//96
f 52//97 45//97 7//97
f 7//98 93//98 51//98
f 27//99 54//99 12//99
f 50//100 33//100 8//100
f 8//101 84//101 49//101
f 49//102 43//102 8//102
f 8//103 92//103 50//103
f 49//104 42//104 9//104
f 42//105 48//105 9//105
f 9//106 94//106 46//106
f 9//107 91//107 49//107
f 10//108 90//108 36//108
f 10//109 86//109 50//109
f 50//110 44//110 10//110
f 44//111 47//111 10//111
f 76//112 82//112 11//112
f 82//113 59//113 11//113
f 12//114 92//114 43//114
f 43//115 53//115 12//115
f 13//116 91//116 46//116
f 13//117 94//117 52//117
f 14//118 62//118 51//118
f 51//119 44//119 14//119
f 44//120 54//120 14//120
f 16//121 106//121 81//121
f 16//122 105//122 61//122
f 17//123 103//123 80//123
f 80//124 78//124 17//124
f 61//125 79//125 18//125
f 18//126 104//126 76//126
f 60//127 79//127 27//127
f 27//128 105//128 77//128
f 28//129 106//129 80//129
f 80//130 75//130 28//130
f 77//131 81//131 29//131
f 81//132 62//132 29//132
f 51//133 28//133 7//133
f 60//134 12//134 53//134
f 30//135 103//135 82//135
f 30//136 104//136 60//136
f 77//137 14//137 54//137
f 30//138 53//138 13//138
f 52//139 30//139 13//139
f 7//140 75//140 52//140
f 1//141 31//141 83//141
f 32//74 84//74 33//74
f 1//75 33//75 86//75
f 1//142 34//142 85//142
f 2//143 35//143 85//143
f 34//78 86//78 36//78
f 36//79 90//79 37//79
f 2//144 37//144 89//144
f 3//145 38//145 89//145
f 3//82 37//82 90//82
f 39//83 88//83 40//83
f 3//146 40//146 87//146
f 4//147 41//147 87//147
f 4//86 40//86 88//86
f 4//87 42//87 84//87
f 4//148 32//148 83//148
f 5//149 31//149 85//149
f 5//150 35//150 89//150
f 5//151 38//151 87//151
f 5//152 41//152 83//152
f 6//93 48//93 88//93
f 39//94 90//94 47//94
f 6//95 47//95 93//95
f 45//96 94//96 48//96
f 52//97 94//97 45//97
f 7//98 45//98 93//98
f 27//99 77//99 54//99
f 50//100 86//100 33//100
f 8//101 33//101 84//101
f 49//102 91//102 43//102
f 8//103 43//103 92//103
f 49//104 84//104 42//104
f 42//105 88//105 48//105
f 9//106 48//106 94//106
f 9//107 46//107 91//107
f 10//108 47//108 90//108
f 10//109 36//109 86//109
f 50//110 92//110 44//110
f 44//111 93//111 47//111
f 76//112 104//112 82//112
f 82//113 103//113 59//113
f 12//114 54//114 92//114
f 43//115 91//115 53//115
f 13//116 53//116 91//116
f 13//117 46//117 94//117
f 14//118 29//118 62//118
f 51//119 93//119 44//119
f 44//120 92//120 54//120
f 16//121 78//121 106//121
f 16//122 81//122 105//122
f 17//123 59//123 103//123
f 80//124 106//124 78//124
f 61//125 105//125 79//125
f 18//126 79//126 104//126
f 60//127 104//127 79//127
f 27//128 79//128 105//128
f 28//129 62//129 106//129
f 80//130 103//130 75//130
f 77//131 105//131 81//131
f 81//132 106//132 62//132
f 51//133 62//133 28//133
f 60//134 27//134 12//134
f 30//135 75//135 103//135
f 30//136 82//136 104//136
f 77//137 29//137 14//137
f 30//138 60//138 53//138
f 52//139 75//139 30//139
f 7//140 28//140 75//140
usemtl 3_3
f 131//153 126//153 129//153
f 131//154 124//154 128//154
f 123//153 131//153 128//153
f 125//153 131//153 127//153
f 140//155 135//155 138//155
f 140//155 133//155 137//155
f 132//155 140//155 137//155
f 134//155 140//155 136//155
f 149//156 144//156 147//156
f 149//156 142//156 146//156
f 141//156 149//156 146//156
f 143//157 149//157 145//157
f 158//158 153//158 156//158
f 158//158 151//158 155//158
f 150//158 158//158 155//158
f 152//158 158//158 154//158
f 167//159 162//159 165//159
f 167//159 160//159 164//159
f 159//159 167//159 164//159
f 161//159 167//159 163//159
f 176//160 171//160 174//160
f 176//160 169//160 173//160
f 168//160 176//160 173//160
f 170//160 176//160 172//160
f 185//161 180//161 183//161
f 185//161 178//161 182//161
f 177//162 185//162 182//162
f 179//161 185//161 181//161
f 194//163 189//163 192//163
f 194//163 187//163 191//163
f 186//163 194//163 191//163
f 188//163 194//163 190//163
f 203//164 198//164 201//164
f 203//164 196//164 200//164
f 195//165 203//165 200//165
f 197//165 203//165 199//165
f 212//166 207//166 210//166
f 212//166 205//166 209//166
f 204//166 212//166 209//166
f 206//166 212//166 208//166
f 131//153 130//153 126//153
f 131//153 129//153 124//153
f 123//153 127//153 131//153
f 125//153 130//153 131//153
f 140//155 139//155 135//155
f 140//155 138//155 133//155
f 132//155 136//155 140//155
f 134//155 139//155 140//155
f 149//156 148//156 144//156
f 149//156 147//156 142//156
f 141//156 145//156 149//156
f 143//156 148//156 149//156
f 158//158 157//158 153//158
f 158//158 156//158 151//158
f 150//158 154//158 158//158
f 152//158 157//158 158//158
f 167//159 166//159 162//159
f 167//159 165//159 160//159
f 159//159 163//159 167//159
f 161//159 166//159 167//159
f 176//160 175//160 171//160
f 176//160 174//160 169//160
f 168//160 172//160 176//160
f 170//160 175//160 176//160
f 185//161 184//161 180//161
f 185//161 183//161 178//161
f 177//161 181//161 185//161
f 179//161 184//161 185//161
f 194//163 193//163 189//163
f 194//163 192//163 187//163
f 186//163 190//163 194//163
f 188//163 193//163 194//163
f 203//165 202//165 198//165
f 203//164 201//164 196//164
f 195//165 199//165 203//165
f 197//164 202//164 203//164
f 212//166 211//166 207//166
f 212//166 210//166 205//166
f 204//166 208//166 212//166
f 206//166 211//166 212//166
