# Blender v2.79 (sub 0) OBJ File: 'zabor.blend'
# www.blender.org
mtllib zabor.mtl
o Cube.005_Cube.006
v 0.377985 0.351806 -13.894048
v -0.784424 0.350335 -13.841832
v -0.183033 0.321225 -14.442060
v 0.341576 10.848948 -13.288030
v 0.622941 10.947203 -13.795084
v 0.178249 0.197644 -14.300933
v 0.197227 0.337537 -13.425772
v -0.378307 11.019694 -13.469516
v 0.398038 10.914353 -14.384357
v -0.641874 0.290047 -14.266472
v -0.277275 0.124964 -13.289617
v -0.649635 0.308378 -13.393311
v -0.492091 10.908764 -14.207517
vn -0.1162 -0.9856 -0.1232
vn 0.9344 -0.0183 -0.3556
vn 0.8762 -0.0248 0.4814
vn -0.1949 0.0160 -0.9807
vn 0.4317 -0.8921 0.1332
vn 0.1569 0.9497 0.2711
vn -0.4017 -0.9158 -0.0048
vn -0.1184 -0.8773 -0.4651
vn -0.2484 0.0137 0.9685
vn 0.0481 0.9961 -0.0739
vn -0.0347 0.9891 -0.1433
vn -0.9567 0.0263 0.2900
vn -0.9473 0.0151 -0.3201
vn -0.9885 0.0325 0.1475
vn 0.9329 -0.0175 0.3596
vn 0.9007 -0.0219 -0.4339
vn 0.2826 -0.0164 0.9591
vn -0.3580 0.0102 -0.9337
vn 0.3595 -0.0146 -0.9330
vn -0.4531 -0.8899 0.0529
usemtl Material
s off
f 11//1 10//1 6//1
f 1//2 9//2 5//2
f 5//3 4//3 1//3
f 3//4 13//4 9//4
f 11//5 6//5 1//5 7//5
f 4//6 5//6 8//6
f 2//7 10//7 11//7
f 3//8 6//8 10//8
f 12//9 11//9 4//9 8//9
f 8//10 5//10 9//10
f 8//11 9//11 13//11
f 2//12 12//12 8//12
f 2//13 13//13 10//13
f 13//14 2//14 8//14
f 1//15 4//15 7//15
f 6//16 9//16 1//16
f 7//17 4//17 11//17
f 3//18 10//18 13//18
f 3//19 9//19 6//19
f 2//20 11//20 12//20
o Cube.004_Cube.005
v -0.222351 0.329948 8.371688
v 0.355669 0.310837 8.922113
v -0.529883 10.874086 8.932472
v -0.140970 11.089787 9.138634
v -0.823381 0.375366 8.983597
v -0.639098 5.064606 8.955973
v 0.544100 6.140776 8.957694
v -0.238825 0.347298 9.568492
v -0.083605 3.926026 8.395930
v 0.052226 10.855629 8.376624
v 0.037946 10.835811 9.556893
v 0.622941 10.947203 9.035462
v 0.395058 6.290219 8.527297
v 0.196434 0.319447 8.520446
v 0.197227 0.337537 9.404775
v -0.407132 10.824429 9.388419
v 0.468202 10.824457 9.430448
v 0.480892 10.936265 8.550213
v -0.008446 0.100710 8.705790
v -0.671302 0.310036 8.542482
v -0.247943 0.059821 9.192109
v -0.663276 0.301930 9.419013
v -0.513531 4.218754 8.546528
v -0.377012 10.907219 8.509323
v -0.479885 5.256199 9.406519
vn -0.1286 -0.7866 0.6039
vn 0.2044 -0.7803 0.5910
vn 0.5913 -0.7664 -0.2509
vn -0.2492 -0.9471 -0.2024
vn -0.9408 0.0163 -0.3386
vn 0.9438 -0.0101 -0.3303
vn 0.9331 -0.0211 0.3590
vn 0.9291 -0.0278 -0.3689
vn 0.9491 -0.0326 0.3134
vn 0.2818 -0.0064 0.9595
vn -0.3335 0.0147 0.9426
vn 0.3040 -0.0086 -0.9526
vn -0.2950 0.0031 -0.9555
vn 0.3346 -0.0066 -0.9423
vn -0.0122 0.9180 -0.3963
vn -0.2382 0.7816 0.5765
vn 0.4418 -0.8811 0.1685
vn -0.4716 -0.8812 -0.0321
vn 0.2091 -0.7387 -0.6407
vn -0.1494 -0.8573 -0.4926
vn -0.9417 0.0373 0.3344
vn -0.5645 0.7903 0.2381
vn -0.4456 0.8906 -0.0912
vn 0.1735 0.9821 -0.0729
vn -0.0196 0.9622 -0.2718
vn -0.9379 0.0364 -0.3451
vn -0.3757 0.0099 0.9267
vn -0.9446 0.0134 0.3281
vn -0.9452 0.0175 -0.3260
vn -0.9649 0.0192 0.2619
vn 0.9597 -0.0163 -0.2806
vn 0.9194 -0.0247 0.3925
vn 0.9411 -0.0309 -0.3366
vn 0.1934 0.8924 0.4076
vn 0.3513 -0.0114 0.9362
vn 0.3757 -0.0024 -0.9267
vn -0.3297 0.0015 -0.9441
vn 0.3062 -0.0091 -0.9519
vn -0.3563 0.0200 -0.9342
vn -0.3221 0.0140 -0.9466
vn -0.4898 -0.8712 0.0331
usemtl Material
s off
f 21//21 35//21 34//21
f 21//22 34//22 28//22
f 15//23 32//23 27//23
f 34//24 33//24 32//24
f 16//25 37//25 19//25
f 20//26 26//26 25//26
f 25//27 30//27 20//27
f 15//28 27//28 20//28
f 20//29 28//29 15//29
f 21//30 30//30 24//30
f 21//31 38//31 35//31
f 23//32 26//32 22//32
f 22//33 37//33 23//33
f 22//34 27//34 14//34
f 23//35 37//35 31//35
f 24//36 17//36 29//36
f 34//37 32//37 15//37 28//37
f 18//38 33//38 34//38
f 14//39 27//39 32//39
f 14//40 32//40 33//40
f 19//41 18//41 35//41 38//41
f 16//42 29//42 17//42
f 16//43 17//43 37//43
f 17//44 25//44 31//44
f 17//45 31//45 37//45
f 36//46 33//46 18//46 19//46
f 38//47 21//47 24//47 29//47
f 19//48 38//48 29//48
f 19//49 37//49 36//49
f 16//50 19//50 29//50
f 25//51 26//51 31//51
f 20//52 30//52 28//52
f 27//53 26//53 20//53
f 25//54 17//54 24//54 30//54
f 28//55 30//55 21//55
f 23//56 31//56 26//56
f 22//57 36//57 37//57
f 22//58 26//58 27//58
f 22//59 14//59 33//59
f 22//60 33//60 36//60
f 18//61 34//61 35//61
o Cube.002_Cube.003
v 0.635552 3.189032 8.492742
v 0.475832 2.396275 8.216795
v 0.231099 2.827734 8.376427
v 0.562467 2.250279 10.184224
v 1.158228 9.183748 -13.376686
v 0.851310 9.757652 -15.181141
v 0.893184 2.751394 8.362666
v 0.890304 3.468171 5.963320
v 1.055273 5.440886 -0.735295
v 1.061728 7.312901 -7.032976
v 1.141319 8.566746 -11.335300
v 0.496143 9.260088 -13.362925
v 0.435948 8.462690 -10.663652
v 0.431979 6.621779 -4.444576
v 0.374779 5.731509 -1.501971
v 0.314359 4.684473 2.149014
v 0.268615 3.718416 5.379778
v 0.806390 8.832061 -13.536602
v 0.699355 7.281630 -8.287067
v 0.713065 6.071851 -4.218969
v 0.613176 4.601910 0.756152
v 0.851697 9.628489 -13.253298
v 0.783508 8.026140 -7.835930
v 0.772523 5.940531 -0.810185
v 0.658624 4.346364 4.586560
v 0.597287 9.555473 -13.277264
v 0.411585 4.714501 3.079703
v 0.853256 3.062313 8.455111
v 1.095835 9.476250 -13.213274
v 0.560520 8.945618 -13.452028
v 0.767591 2.459560 8.273662
v 0.939505 5.313082 -1.384967
v 0.411545 7.654664 -7.930595
v 0.674752 9.766369 -14.290703
v 0.789493 2.701345 9.424016
v 0.645155 9.307081 -14.420441
v 0.722401 2.249626 9.284710
v 0.527329 8.299351 -9.033096
v 0.540148 6.408160 -2.664077
v 0.383978 3.127056 8.434028
v 0.855928 3.689768 6.342653
v 1.003961 5.500358 0.196037
v 1.000788 7.426053 -6.280619
v 0.459933 7.659633 -9.089054
v 0.472550 6.235818 -4.300731
v 0.390256 5.203533 -0.797752
v 0.356806 4.072947 3.017985
v 0.243097 2.545397 8.200279
v 0.770385 3.341969 5.301878
v 0.965910 6.211838 -4.426834
v 0.962889 7.302710 -8.092112
v 1.068201 8.825304 -13.250706
v 1.079802 9.595488 -14.720114
v 0.610393 9.643616 -14.708319
v 0.829603 9.317511 -14.801819
v 0.860599 9.922188 -14.628553
v 1.035594 9.722258 -14.298880
v 1.006051 9.264029 -14.432005
v 0.619848 2.687721 9.803141
v 0.504646 2.093166 9.626956
v 0.307693 2.422321 9.726340
v 0.818892 2.355033 9.712392
v 0.414709 2.740861 9.431149
v 0.322937 2.292825 9.286192
vn -0.2893 0.9183 0.2704
vn 0.2547 -0.9271 -0.2750
vn -0.8934 0.4336 0.1177
vn -0.9993 -0.0292 -0.0212
vn 0.9826 0.1754 0.0612
vn 0.9610 -0.2669 -0.0727
vn 0.9961 0.0754 0.0462
vn 0.9952 0.0846 0.0494
vn 0.9341 -0.3470 -0.0838
vn -0.9928 -0.1119 -0.0419
vn -0.9456 0.3143 0.0845
vn -0.9276 0.3566 0.1111
vn -0.9107 0.4000 0.1033
vn -0.9905 -0.1254 -0.0572
vn -0.9957 -0.0829 -0.0402
vn -0.9379 0.3358 0.0871
vn -0.9863 -0.1536 -0.0599
vn -0.4666 -0.8456 -0.2593
vn 0.2766 -0.9210 -0.2743
vn 0.2833 -0.9190 -0.2742
vn 0.2877 -0.9192 -0.2691
vn 0.2573 -0.9281 -0.2691
vn -0.5281 -0.8116 -0.2497
vn 0.3174 -0.9109 -0.2635
vn 0.4814 0.8388 0.2542
vn -0.3194 0.9086 0.2692
vn -0.2672 0.9259 0.2670
vn -0.2563 0.9285 0.2688
vn -0.6271 0.5906 0.5078
vn -0.8156 -0.5459 0.1917
vn 0.6184 -0.7781 0.1105
vn 0.8126 0.3615 0.4572
vn -0.7942 -0.4036 -0.4543
vn -0.7143 0.6840 -0.1483
vn 0.8025 0.5789 -0.1444
vn 0.7174 -0.5044 -0.4806
vn 0.9287 -0.3554 -0.1058
vn 0.9934 0.1097 0.0326
vn 0.9185 -0.3850 -0.0905
vn 0.9501 -0.2999 -0.0856
vn 0.9853 0.1637 0.0489
vn 0.9821 0.1760 0.0670
vn 0.9540 -0.2872 -0.0863
vn -0.9815 -0.1765 -0.0744
vn 0.9360 -0.3424 -0.0819
vn -0.9404 0.3304 0.0801
vn -0.9236 0.3727 0.0902
vn 0.5275 0.8139 0.2436
vn -0.9861 -0.1608 -0.0419
vn -0.9927 -0.1163 -0.0320
vn -0.9448 0.3136 0.0950
vn -0.9937 -0.0993 -0.0526
vn 0.2701 -0.9249 -0.2676
vn -0.9889 -0.1398 -0.0501
vn -0.9930 -0.1057 -0.0529
vn -0.9174 0.3829 0.1088
vn -0.4769 -0.8400 -0.2586
vn -0.4892 -0.8364 -0.2473
vn -0.4767 -0.8403 -0.2582
vn -0.2811 0.9213 0.2686
vn 0.2719 -0.9249 -0.2658
vn -0.4962 -0.8312 -0.2506
vn -0.5090 -0.8225 -0.2536
vn 0.5111 0.8239 0.2450
vn 0.4899 0.8341 0.2534
vn -0.2967 0.9153 0.2724
vn 0.5423 0.8230 0.1692
vn 0.4757 0.8408 0.2584
vn -0.2838 0.9197 0.2712
vn 0.4857 0.8353 0.2577
vn -0.3485 0.9196 0.1817
vn 0.3785 -0.8639 -0.3324
vn -0.5356 -0.7807 -0.3219
vn -0.9705 -0.1922 -0.1453
vn -0.9351 0.3542 0.0133
vn 0.9718 0.2355 0.0083
vn 0.9349 -0.3173 -0.1590
vn 0.9038 -0.4233 -0.0630
vn 0.9856 0.1346 0.1026
vn -0.8771 0.4416 0.1891
vn -0.9929 -0.1147 0.0328
vn -0.5524 -0.8184 -0.1582
vn 0.2936 -0.9356 -0.1963
vn 0.5586 0.7692 0.3105
vn -0.3375 0.8779 0.3398
usemtl Material
s off
f 63//62 78//62 39//62
f 40//63 87//63 69//63
f 41//64 78//64 55//64
f 55//65 86//65 41//65
f 43//66 67//66 49//66
f 49//67 90//67 43//67
f 46//68 80//68 79//68
f 80//69 46//69 47//69
f 48//70 89//70 49//70
f 82//71 71//71 51//71
f 71//72 76//72 51//72
f 52//73 76//73 71//73
f 53//74 77//74 52//74
f 52//75 83//75 53//75
f 53//76 84//76 54//76
f 65//77 54//77 55//77
f 54//78 85//78 55//78
f 57//79 82//79 56//79
f 57//80 89//80 88//80
f 88//81 58//81 57//81
f 58//82 88//82 70//82
f 58//83 70//83 59//83
f 40//84 85//84 59//84
f 59//85 87//85 40//85
f 61//86 67//86 60//86
f 61//87 77//87 62//87
f 62//88 77//88 65//88
f 65//89 63//89 62//89
f 99//90 42//90 97//90 101//90
f 98//91 42//91 99//91 102//91
f 100//92 42//92 98//92 75//92
f 97//93 42//93 100//93 73//93
f 92//94 44//94 93//94 74//94
f 94//95 44//95 92//95 72//95
f 91//96 44//96 94//96 95//96
f 93//97 44//97 91//97 96//97
f 46//98 45//98 69//98 87//98
f 66//99 45//99 46//99 79//99
f 70//100 47//100 46//100 87//100
f 88//101 48//101 47//101 70//101
f 80//102 47//102 48//102 81//102
f 81//103 48//103 49//103 67//103
f 48//104 88//104 89//104
f 82//105 51//105 50//105 68//105
f 49//106 89//106 90//106
f 76//107 64//107 50//107 51//107
f 77//108 53//108 54//108 65//108
f 79//109 63//109 39//109 66//109
f 52//110 71//110 82//110
f 82//111 83//111 52//111
f 52//112 77//112 76//112
f 53//113 83//113 84//113
f 89//114 57//114 56//114 90//114
f 84//115 85//115 54//115
f 55//116 85//116 86//116
f 55//117 78//117 65//117
f 56//118 82//118 68//118
f 83//119 82//119 57//119 58//119
f 83//120 58//120 59//120 84//120
f 61//121 60//121 64//121 76//121
f 59//122 70//122 87//122
f 59//123 85//123 84//123
f 40//124 86//124 85//124
f 81//125 61//125 62//125 80//125
f 61//126 81//126 67//126
f 61//127 76//127 77//127
f 95//128 94//128 60//128 67//128
f 62//129 63//129 80//129
f 63//130 65//130 78//130
f 79//131 80//131 63//131
f 72//132 64//132 60//132 94//132
f 96//133 90//133 56//133 93//133
f 74//134 93//134 56//134 68//134
f 74//135 68//135 50//135 92//135
f 72//136 92//136 50//136 64//136
f 95//137 67//137 43//137 91//137
f 96//138 91//138 43//138 90//138
f 75//139 69//139 45//139 100//139
f 73//140 100//140 45//140 66//140
f 101//141 78//141 41//141 99//141
f 102//142 99//142 41//142 86//142
f 102//143 86//143 40//143 98//143
f 75//144 98//144 40//144 69//144
f 73//145 66//145 39//145 97//145
f 101//146 97//146 39//146 78//146
o Cube.001_Cube.002
v -0.488810 2.791142 11.497662
v -1.075576 3.229164 11.485625
v -0.442007 3.229120 11.798247
v 0.888389 3.233064 -17.193756
v 0.334204 3.228307 -17.583944
v 0.170636 3.230826 7.466066
v 0.559214 3.232229 -0.823068
v 0.633629 3.232189 -8.123148
v -0.501445 3.216720 -11.481739
v -0.543282 3.229397 -4.818964
v -0.869095 3.259118 4.174478
v 0.379065 2.796352 -17.211456
v 0.077691 2.792475 -9.468727
v 0.061649 2.794060 -4.744656
v -0.268662 2.794924 3.503222
v 0.050581 3.664464 -9.217726
v -0.098513 3.670309 0.229163
v 0.196437 3.228356 11.530675
v -0.404809 3.667297 11.508140
v 0.278356 3.663298 -17.217833
v -0.242993 3.234150 -17.220041
v 0.845254 3.211427 -13.626007
v 0.298247 3.555163 -17.492699
v -0.087484 3.228592 -17.497747
v -0.408237 3.556570 11.727783
v -0.922973 3.228816 11.706282
v 0.040206 3.229396 11.740830
v 0.750271 3.228021 -17.479197
v 0.364539 2.901451 -17.484243
v -0.474530 2.901642 11.719328
v 0.760933 2.901037 -17.190340
v -0.711012 3.555962 3.464715
v -0.376172 2.900391 -9.677822
v 0.479502 2.903121 -2.860030
v 0.049987 3.556585 11.517765
v 0.027890 2.902062 11.514947
v 0.727008 3.557000 -17.180099
v -0.145757 3.556326 -17.207687
v -0.067569 2.901937 -17.173166
v -0.014850 3.470549 -17.425396
v -0.762328 3.471545 11.657169
v -0.070364 3.471776 11.680018
v 0.624160 3.470296 -17.409298
v 0.050322 2.986465 -17.417082
v -0.831075 2.986233 11.648401
v -0.099827 2.986825 11.676261
v 0.657198 2.985917 -17.405085
v -0.379712 3.552906 -10.532631
v -0.420330 3.557079 -3.205199
v -0.857506 3.556033 11.483295
v 0.391935 3.556197 0.146603
v 0.460644 3.554905 -7.775959
v -0.395165 2.902408 -4.893517
v -0.579080 2.901871 -0.838883
v -0.679173 2.902011 3.627799
v -0.988504 2.902240 11.451016
v 0.532405 2.901438 -9.299583
v 0.743171 2.905384 -13.934193
v 0.031246 3.556942 8.019630
v 0.003608 2.898515 7.390852
vn 0.2099 -0.9777 -0.0004
vn 0.9336 -0.3583 0.0056
vn 0.9161 0.4010 -0.0056
vn 0.9431 0.3298 0.0432
vn 0.9352 0.3515 0.0439
vn 0.9564 -0.2920 0.0098
vn 0.8951 0.4446 0.0327
vn 0.9117 -0.4092 0.0366
vn -0.9560 0.2902 -0.0422
vn -0.8811 -0.4711 -0.0411
vn -0.9079 0.4180 -0.0316
vn -0.8450 -0.5337 -0.0349
vn -0.9342 0.3567 -0.0065
vn -0.2607 0.8393 0.4771
vn -0.9524 -0.3030 -0.0335
vn 0.2323 -0.9726 0.0022
vn 0.2476 -0.9689 0.0012
vn 0.2155 -0.9765 0.0087
vn -0.2834 0.9590 -0.0051
vn -0.2346 0.9720 -0.0101
vn -0.9667 -0.2545 -0.0283
vn -0.8317 0.5547 -0.0212
vn -0.2165 -0.9763 -0.0064
vn 0.9457 -0.3250 0.0095
vn 0.8952 0.4454 0.0135
vn 0.2298 0.8340 0.5015
vn 0.2006 -0.8474 0.4915
vn 0.2365 0.9716 -0.0012
vn -0.2576 -0.8318 0.4916
vn -0.7268 -0.3265 0.6043
vn -0.6804 0.5007 0.5350
vn -0.2105 0.2689 0.9399
vn -0.2090 -0.2487 0.9458
vn 0.1394 -0.2812 0.9495
vn 0.1479 0.2409 0.9592
vn 0.8108 -0.3724 -0.4515
vn 0.7715 0.4570 -0.4427
vn -0.2300 -0.3552 -0.9061
vn -0.2271 0.2827 -0.9319
vn 0.2675 0.3323 -0.9045
vn 0.2731 -0.3085 -0.9112
vn 0.8860 -0.4619 0.0412
vn 0.8940 -0.4480 -0.0059
vn 0.8918 0.4523 0.0083
vn -0.8909 0.4528 -0.0359
vn 0.9480 -0.3181 0.0079
vn 0.9343 -0.3541 0.0422
vn -0.9196 -0.3928 -0.0050
vn -0.9112 -0.4120 -0.0034
vn -0.9273 0.3743 -0.0054
vn -0.9136 -0.4044 -0.0415
vn -0.2290 -0.9734 -0.0095
vn -0.8951 -0.4454 -0.0200
vn -0.9040 -0.4261 -0.0357
vn -0.8983 0.4391 -0.0164
vn 0.2232 -0.9747 0.0086
vn -0.2309 -0.9730 -0.0005
vn -0.2200 -0.9754 -0.0092
vn -0.2373 0.9714 -0.0073
vn 0.2266 -0.9739 0.0101
vn -0.2540 -0.9672 -0.0057
vn -0.2553 -0.9668 -0.0101
vn 0.2330 0.9725 0.0067
vn 0.2374 0.9714 0.0026
vn -0.2455 0.9694 -0.0019
vn -0.2218 0.9751 -0.0051
vn 0.6947 0.3909 0.6038
vn 0.3100 0.9507 0.0087
vn 0.2283 0.9735 0.0104
vn 0.6597 -0.4435 0.6067
vn -0.2693 0.8652 -0.4230
vn 0.8886 -0.4588 -0.0048
vn 0.9133 0.4073 -0.0049
vn 0.2678 -0.9635 0.0069
vn 0.2775 0.8799 -0.3858
vn -0.2740 -0.8838 -0.3792
vn 0.3023 -0.8611 -0.4089
vn -0.7946 0.3170 -0.5178
vn 0.2642 -0.9645 0.0027
vn -0.7326 -0.5017 -0.4599
vn 0.8440 0.5359 0.0240
usemtl Material
s off
f 103//147 162//147 138//147
f 106//148 160//148 133//148
f 108//149 161//149 120//149
f 108//150 153//150 161//150
f 153//151 108//151 109//151
f 109//152 136//152 110//152
f 124//153 154//153 110//153
f 110//154 159//154 124//154
f 140//155 123//155 111//155
f 123//156 141//156 111//156
f 111//157 150//157 140//157
f 111//158 141//158 135//158
f 112//159 150//159 111//159
f 143//160 127//160 121//160 152//160
f 112//161 156//161 113//161
f 115//162 159//162 136//162
f 136//163 116//163 115//163
f 116//164 136//164 117//164
f 118//165 151//165 119//165
f 119//166 151//166 134//166
f 113//167 158//167 104//167
f 104//168 152//168 113//168
f 158//169 117//169 103//169
f 124//170 160//170 106//170
f 106//171 139//171 124//171
f 144//172 137//172 121//172 127//172
f 148//173 132//173 103//173 138//173
f 121//174 137//174 161//174
f 147//175 158//175 103//175 132//175
f 147//176 128//176 104//176 158//176
f 143//177 152//177 104//177 128//177
f 143//178 128//178 105//178 127//178
f 147//179 132//179 105//179 128//179
f 148//180 129//180 105//180 132//180
f 144//181 127//181 105//181 129//181
f 149//182 130//182 106//182 133//182
f 145//183 139//183 106//183 130//183
f 146//184 126//184 107//184 131//184
f 142//185 125//185 107//185 126//185
f 145//186 130//186 107//186 125//186
f 149//187 131//187 107//187 130//187
f 136//188 109//188 108//188 162//188
f 108//189 120//189 162//189
f 153//190 109//190 110//190 154//190
f 151//191 112//191 113//191 134//191
f 110//192 136//192 159//192
f 124//193 159//193 160//193
f 112//194 111//194 135//194
f 135//195 155//195 112//195
f 112//196 151//196 150//196
f 112//197 155//197 156//197
f 141//198 114//198 115//198 135//198
f 156//199 157//199 113//199
f 113//200 157//200 158//200
f 113//201 152//201 134//201
f 159//202 115//202 114//202 160//202
f 155//203 135//203 115//203 116//203
f 155//204 116//204 117//204 156//204
f 118//205 122//205 140//205 150//205
f 117//206 136//206 162//206
f 117//207 157//207 156//207
f 117//208 158//208 157//208
f 139//209 122//209 118//209 154//209
f 154//210 118//210 119//210 153//210
f 118//211 150//211 151//211
f 152//212 121//212 119//212 134//212
f 144//213 129//213 120//213 137//213
f 119//214 121//214 161//214
f 161//215 153//215 119//215
f 148//216 138//216 120//216 129//216
f 142//217 140//217 122//217 125//217
f 138//218 162//218 120//218
f 120//219 161//219 137//219
f 103//220 117//220 162//220
f 145//221 125//221 122//221 139//221
f 146//222 131//222 114//222 141//222
f 149//223 133//223 114//223 131//223
f 142//224 126//224 123//224 140//224
f 133//225 160//225 114//225
f 146//226 141//226 123//226 126//226
f 124//227 139//227 154//227
o Cube
v 0.553496 9.475820 1.482332
v -0.073855 8.793574 -16.759794
v 0.068652 9.646991 -16.886580
v -0.612216 8.989709 -16.766172
v 0.407169 9.226612 -16.783421
v -0.669859 9.009215 -5.709818
v 0.362742 8.895818 -16.651361
v -0.664394 9.558481 -16.672421
v 0.203028 9.660348 12.221112
v -0.150056 8.815206 12.333511
v 0.454540 9.015362 12.253928
v -0.497543 9.552271 12.158348
v -0.702510 9.036443 12.198995
vn 0.9310 0.3643 0.0241
vn 0.9669 -0.2550 -0.0020
vn 0.9908 -0.1355 -0.0061
vn -0.9959 -0.0905 -0.0050
vn -0.9294 0.3691 -0.0023
vn -0.1387 0.1666 0.9762
vn -0.3435 -0.9391 -0.0002
vn 0.3145 -0.9493 0.0015
vn -0.1525 0.9883 0.0003
vn 0.1649 -0.2354 -0.9578
vn 0.1007 0.0897 0.9909
vn -0.0394 -0.1404 -0.9893
vn -0.2924 0.1294 -0.9475
vn 0.7805 0.6249 -0.0148
vn -0.9921 0.1250 0.0058
vn -0.3423 -0.9396 -0.0001
vn 0.2272 -0.9738 0.0033
vn -0.3719 -0.9283 0.0007
vn -0.1196 0.9928 0.0009
vn 0.4096 0.9123 -0.0023
usemtl Material
s off
f 173//228 163//228 171//228
f 173//229 169//229 163//229
f 163//230 169//230 167//230
f 170//231 166//231 168//231
f 175//232 174//232 168//232
f 174//233 175//233 172//233 171//233
f 172//234 168//234 164//234
f 164//235 173//235 172//235
f 165//236 174//236 171//236
f 169//237 164//237 165//237 167//237
f 172//238 173//238 171//238
f 165//239 164//239 166//239
f 165//240 166//240 170//240
f 167//241 165//241 163//241
f 168//242 174//242 170//242
f 164//243 168//243 166//243
f 164//244 169//244 173//244
f 172//245 175//245 168//245
f 165//246 170//246 174//246
f 171//247 163//247 165//247
