# Blender v2.78 (sub 5) OBJ File: 'derevo.blend'
# www.blender.org
mtllib drv1.mtl
o Cube.001
v -3.909638 24.687130 -0.868927
v -3.470719 25.528219 2.364821
v -2.205745 23.039299 0.568441
v -2.296460 23.345587 -1.258427
v -0.815774 23.876427 -3.739059
v 1.438337 24.197737 -3.168979
v 0.571197 23.443218 -2.169081
v -1.161633 23.076321 -2.282701
v 4.068489 24.515947 -0.169021
v 3.434840 24.305605 -2.426452
v 3.210321 25.716307 2.190274
v 1.973576 23.450611 -1.092294
v 2.513268 23.521252 2.016987
v -0.803607 25.997152 3.684195
v 1.471545 25.973812 3.537873
v 0.814565 23.397339 2.592631
v -1.437523 23.649282 2.432754
v -0.009856 21.959375 -0.595211
v 1.289601 21.919958 -0.433132
v -0.520469 22.013718 1.326401
v -1.129222 21.966129 -0.525561
v 1.243194 22.079815 1.052654
v 1.169167 79.147194 -1.022184
v -0.164642 81.403671 -0.068637
v -1.538214 79.140762 -0.351054
v -0.516260 79.189491 1.648011
v 0.494975 78.938477 1.568957
v 0.157656 79.025505 -1.679832
v -2.761854 24.365488 -2.553027
v -1.437393 80.657974 -0.326082
v -0.158496 80.555367 -1.229358
v 1.250722 80.752144 -0.095497
v -0.394178 80.615311 1.147034
v -1.373694 80.040802 0.675573
v 1.279648 76.110519 1.370254
v -1.082539 79.071274 -1.329267
v 0.617865 80.141693 0.861968
v -3.649931 27.534573 0.137546
v -3.832494 27.945786 1.644810
v -3.482143 27.155815 -1.253241
v 0.000644 26.524057 -3.418284
v -1.600127 26.657562 -3.456224
v 1.618555 26.663908 -3.515998
v 3.995238 27.554556 0.152172
v 3.558291 27.172585 -1.264585
v 3.832623 27.946297 1.644262
v 0.000499 28.541376 3.506592
v 1.458468 28.457289 3.791082
v -1.437023 28.452730 3.699920
v 1.365800 75.953362 0.879208
v 1.520427 75.641068 -0.406347
v -2.215796 75.624077 -0.485488
v -1.973495 75.921379 0.691737
v -0.596735 76.195168 1.912916
v 0.495377 76.139832 1.813608
v -0.557270 75.203377 -2.114681
v 0.657377 43.597794 -3.229255
v -2.058478 44.112450 -2.673727
v 0.732204 33.977890 -3.141778
v -2.206146 34.156719 -2.765722
v -0.719990 59.026859 -2.933194
v 1.573130 59.759792 -2.344461
v -0.724724 48.620663 2.988713
v -0.761818 36.038204 3.358371
v 0.961513 48.563057 2.700401
v 0.424038 63.535885 2.464411
v 1.258984 35.974339 3.246513
v -1.053340 63.432938 2.422859
v -3.493104 45.792633 -0.670957
v -3.586947 34.804573 -0.619939
v -3.222589 47.320267 1.321283
v -2.805879 61.483036 -0.589765
v -3.431309 35.445606 1.399560
v -2.164129 62.986710 1.394607
v 3.368996 46.877689 0.775095
v 3.665820 34.819485 -0.656637
v 2.680419 45.717163 -1.006495
v 2.295182 62.335941 0.485043
v 3.439636 35.433632 1.398783
v 2.249205 61.172916 -0.931411
v -2.873280 28.259645 2.942946
v -3.158746 30.917435 1.467781
v -3.649882 30.666580 0.216564
v -3.384302 30.428747 -1.173706
v -2.778070 26.843811 -2.540145
v -0.795279 30.321436 -3.609550
v -0.763823 29.978619 -3.469367
v 1.561061 30.077353 -3.274302
v 2.898216 26.859592 -2.673857
v 3.160672 30.447071 -1.101076
v 3.635341 30.657223 0.204737
v 3.196632 30.909931 1.475940
v 2.765046 28.253965 2.824900
v 1.301989 31.203653 3.641040
v -0.001128 31.286587 3.295270
v -1.322432 31.201500 3.636431
v 1.065307 75.324768 -1.737563
v 1.785704 63.111450 1.905358
v 2.382353 47.966888 2.481887
v 2.367833 35.759411 2.318561
v -1.583782 76.114929 1.378771
v -2.049536 60.340599 -1.861570
v 2.511487 34.277824 -2.242007
v 2.337504 44.592682 -2.208757
v -2.490632 35.776505 2.508711
v -2.281342 48.091225 2.271920
v -1.461691 75.413918 -1.277595
v -0.797224 70.985298 -2.057751
v 0.299394 70.711189 -2.184650
v 0.350344 72.426941 2.105487
v -0.805079 72.351013 1.667236
v -2.261064 71.517654 -0.494642
v 1.864616 71.516502 -0.470702
v -2.461427 31.104530 2.646093
v -2.853881 30.202484 -2.579566
v 2.387591 31.112700 2.539367
v 2.843235 30.189737 -2.565669
v 1.061358 71.034622 -1.485982
v 1.645515 72.141930 1.154140
v -2.012003 72.152046 1.188576
v -1.731911 71.124306 -1.545525
v -2.530701 31.681339 -3.328878
v 0.862267 31.434866 -3.888661
v 3.072594 31.784992 -2.900451
v 2.379422 33.380196 3.187219
v -0.951779 33.665405 4.272497
v -3.363307 33.138962 2.315445
v -4.182777 32.282791 -0.848159
v 4.367369 32.259197 -0.891688
v 4.052920 32.944683 1.682452
v -0.797370 35.973248 -3.524078
v -2.846516 36.357300 -2.644579
v 2.221848 36.249752 -2.878122
v 2.389194 37.955490 3.235191
v -0.808521 38.220161 3.605606
v -3.423433 37.737370 2.383564
v -3.821104 36.859936 -0.719217
v 3.637420 36.842625 -0.690287
v 3.686286 37.535156 1.547622
v -0.854668 50.449394 -3.553097
v 2.093817 50.983814 -2.964719
v -2.760607 51.153049 -2.619053
v 0.756284 54.408710 3.853702
v -2.240089 53.996017 2.872318
v -3.966292 52.017410 -0.835022
v -3.503736 53.261551 1.359649
v 3.885500 51.981300 -0.866138
v 3.234474 53.558853 2.277260
v 0.459891 65.315407 -2.820555
v -1.790854 65.787384 -2.347785
v 1.686460 66.038132 -1.831131
v -1.662779 68.005928 2.010248
v 0.460000 68.369041 2.643626
v -2.906637 66.567726 -0.668413
v -2.609799 67.479691 0.928360
v 2.121037 67.751877 1.476357
v 2.336092 66.661026 -0.596079
v 0.000000 25.510466 -0.778588
v 1.415614 5.073646 -0.030383
v -0.000000 5.089289 1.661416
v -1.420125 5.074481 -0.000000
v 0.069810 5.085868 -1.618813
v -1.168420 25.519485 -0.000000
v 0.853029 25.512188 0.000000
v -0.000000 25.510193 0.766792
v 1.913039 0.012513 -0.002534
v 0.001037 -0.012883 -1.674276
v 0.905471 5.065436 -0.709953
v -0.000000 -0.005362 1.769136
v 1.146531 5.084403 1.146531
v -2.148194 0.031119 -0.000000
v -1.245863 5.093581 1.245863
v -1.127749 5.082668 -1.127749
v 1.293772 12.715931 -0.018255
v 0.013702 12.710057 -1.050994
v -0.000000 12.707788 0.947211
v -1.353560 12.717724 -0.000000
v -0.653983 25.513344 0.653982
v -0.578166 25.510714 -0.578165
v 0.794949 25.518238 0.794950
v 0.721157 25.515556 -0.721168
v 1.333462 0.082533 -1.074859
v 1.419625 0.009997 1.419625
v -1.510793 0.023160 1.510792
v -1.414006 0.009186 -1.414006
v 0.804921 12.754594 -0.614481
v 0.909988 12.715195 0.909989
v -0.845765 12.712838 0.845765
v -0.695937 12.707339 -0.695937
vn -0.7748 -0.5782 0.2556
vn -0.6033 -0.6504 0.4614
vn -0.6509 -0.6923 -0.3114
vn 0.0229 -0.0097 -0.9997
vn 0.5524 -0.5255 -0.6471
vn 0.8838 0.1425 -0.4456
vn 0.2768 -0.6908 0.6680
vn 0.0563 -0.3565 0.9326
vn 0.9931 0.0458 0.1083
vn -0.1127 -0.4435 0.8892
vn -0.1234 -0.6025 0.7885
vn -0.5600 -0.7050 -0.4351
vn -0.0043 -0.9996 0.0271
vn -0.5753 -0.7906 0.2094
vn 0.9785 0.0636 -0.1962
vn 0.9863 0.0552 0.1554
vn 0.7526 0.2026 0.6266
vn -0.5146 0.7150 0.4733
vn -0.5943 0.7214 0.3556
vn 0.4767 0.6937 0.5399
vn 0.3271 0.6838 0.6522
vn -0.8761 0.0718 0.4767
vn -0.9926 0.0643 0.1027
vn 0.0940 0.0744 0.9928
vn -0.4797 0.0901 0.8728
vn 0.2209 0.0694 -0.9728
vn 0.4928 0.0758 0.8668
vn -0.6629 0.1662 0.7300
vn -0.2632 0.1575 -0.9518
vn -0.1631 -0.0045 -0.9866
vn 0.0931 -0.3703 -0.9242
vn 0.4691 -0.2080 -0.8583
vn -0.4042 -0.0674 -0.9122
vn -0.7879 0.1063 0.6066
vn -0.7658 0.0623 0.6400
vn 0.9700 0.1715 -0.1723
vn 0.9817 0.1329 0.1366
vn 0.0933 -0.3695 -0.9245
vn -0.7756 0.2131 0.5942
vn 0.6486 0.2638 0.7139
vn 0.9990 0.0313 -0.0315
vn 0.9100 0.0837 -0.4062
vn -0.7430 0.0891 0.6634
vn 0.1818 0.0739 0.9806
vn 0.2094 -0.0021 -0.9778
vn -0.1865 0.0735 -0.9797
vn 0.8299 -0.1064 0.5477
vn -0.3910 -0.0904 0.9159
vn -0.2165 -0.0937 -0.9718
vn 0.5506 -0.0773 -0.8312
vn 0.9345 -0.0348 0.3542
vn -0.6741 -0.0232 0.7383
vn -0.6490 -0.0370 -0.7599
vn 0.2579 -0.0311 -0.9657
vn -0.6102 -0.6436 0.4620
vn -0.8593 0.1746 0.4808
vn -0.9769 0.1447 -0.1573
vn -0.9330 0.0366 -0.3579
vn -0.9211 0.2277 0.3159
vn -0.8092 0.0532 0.5851
vn 0.0327 0.1103 -0.9934
vn -0.8673 0.0735 -0.4923
vn -0.5346 -0.7466 -0.3960
vn -0.6499 -0.7542 -0.0942
vn -0.7412 -0.6671 -0.0750
vn 0.2139 -0.8767 -0.4309
vn -0.0661 0.0694 -0.9954
vn 0.2000 -0.7487 -0.6320
vn -0.0480 -0.1357 -0.9896
vn -0.3934 -0.0197 -0.9192
vn 0.4810 0.0364 -0.8760
vn -0.6139 0.0001 -0.7894
vn 0.9587 0.0704 -0.2757
vn 0.5458 0.0336 -0.8372
vn 0.1885 -0.9076 -0.3751
vn 0.2360 -0.8630 -0.4466
vn 0.9353 0.2166 0.2797
vn 0.4701 -0.8812 -0.0498
vn 0.9598 -0.2276 0.1644
vn 0.9027 0.0288 -0.4292
vn 0.7999 0.1633 0.5774
vn -0.1961 -0.1005 0.9754
vn 0.9371 0.1300 -0.3240
vn 0.7137 -0.6937 0.0969
vn 0.7359 -0.0399 0.6759
vn 0.8363 -0.3017 0.4577
vn 0.3204 -0.3972 0.8600
vn 0.2448 0.0746 0.9667
vn 0.6029 0.1577 0.7821
vn 0.1316 0.0276 0.9909
vn -0.6577 0.0448 0.7520
vn 0.6013 -0.0930 0.7936
vn -0.1890 0.0428 0.9811
vn -0.4499 -0.1217 0.8847
vn -0.0433 -0.9935 0.1055
vn -0.3619 -0.3605 0.8597
vn -0.0383 -0.8451 -0.5332
vn 0.0615 -0.7375 -0.6726
vn 0.5207 -0.5232 -0.6746
vn 0.7921 -0.0365 -0.6094
vn 0.1308 -0.7350 0.6653
vn 0.9857 0.0829 0.1464
vn 0.9918 0.0800 0.0999
vn 0.5399 0.4001 -0.7405
vn 0.9429 0.0363 -0.3310
vn -0.5152 0.3727 -0.7718
vn -0.9897 0.0106 0.1425
vn -0.9713 0.1813 0.1541
vn -0.8768 0.0848 -0.4733
vn -0.7142 0.0642 -0.6970
vn 0.0946 0.0867 0.9917
vn -0.8777 0.1296 0.4614
vn -0.9026 0.0670 -0.4252
vn -0.3680 -0.0049 0.9298
vn 0.5935 0.0109 0.8048
vn 0.1869 0.4834 0.8552
vn -0.3520 -0.0407 0.9351
vn -0.4788 0.0154 -0.8778
vn 0.8485 0.2010 0.4896
vn -0.5560 0.3175 0.7682
vn 0.2301 -0.0572 -0.9715
vn 0.5274 0.1424 -0.8376
vn -0.1388 -0.2879 -0.9475
vn -0.5549 0.1109 -0.8245
vn -0.6706 0.0591 -0.7394
vn -0.2575 0.2236 -0.9401
vn 0.4842 0.3377 -0.8072
vn 0.2232 0.0819 -0.9713
vn -0.4047 -0.3414 -0.8483
vn -0.4603 0.1369 -0.8771
vn 0.6388 0.1323 -0.7579
vn 0.4853 -0.2459 -0.8391
vn 0.2114 -0.0252 -0.9771
vn -0.0860 0.1141 -0.9897
vn 0.1102 -0.0572 0.9923
vn 0.3128 0.0430 0.9488
vn 0.5613 0.1170 0.8193
vn -0.3589 0.1132 0.9265
vn -0.7001 0.1216 0.7036
vn 0.6902 -0.1965 0.6964
vn 0.6008 0.1231 0.7899
vn 0.2569 -0.2776 0.9257
vn -0.0382 0.1490 0.9881
vn -0.4192 -0.1422 0.8967
vn -0.6397 -0.1614 0.7515
vn 0.5704 -0.3211 0.7560
vn -0.3856 0.1480 0.9107
vn -0.9881 -0.1072 0.1102
vn -0.9253 -0.0581 0.3748
vn -0.8056 0.1138 -0.5814
vn -0.9681 0.1326 0.2126
vn -0.8081 -0.2735 0.5217
vn -0.8492 -0.2207 -0.4798
vn -0.9197 -0.3765 -0.1113
vn -0.8652 0.1298 -0.4843
vn -0.6876 -0.2845 0.6680
vn -0.9341 0.0236 -0.3562
vn -0.9876 0.1207 0.1006
vn 0.7356 0.0911 -0.6713
vn 0.8241 -0.5239 -0.2153
vn 0.9679 -0.1767 -0.1787
vn 0.9538 0.1547 0.2577
vn 0.9895 0.1138 0.0896
vn 0.8428 -0.3921 0.3688
vn 0.8450 0.1413 -0.5158
vn 0.7300 -0.2693 0.6282
vn 0.8171 -0.0648 -0.5728
vn 0.9930 -0.1176 0.0147
vn 0.6220 -0.2130 0.7534
vn -0.9829 -0.1688 -0.0730
vn -0.9821 0.0048 -0.1884
vn -0.3966 -0.3784 -0.8364
vn 0.1445 0.8285 -0.5411
vn 0.6732 0.2565 0.6936
vn 0.9695 0.2428 0.0341
vn 0.7600 0.3204 -0.5655
vn -0.7821 0.2339 -0.5776
vn -0.9589 0.2092 0.1918
vn -0.6428 0.1577 0.7496
vn 0.3166 0.1152 0.9415
vn 0.3853 0.3158 -0.8671
vn -0.1373 0.2727 -0.9523
vn 0.8351 0.0325 -0.5491
vn 0.8752 0.0369 0.4824
vn -0.8794 0.0876 -0.4680
vn -0.9925 0.0358 0.1171
vn -0.4313 0.0573 0.9004
vn 0.1202 0.0661 0.9905
vn 0.9607 0.0038 -0.2776
vn -0.3884 0.0360 -0.9208
vn 0.4906 0.0629 -0.8691
vn 0.9758 -0.0291 0.2167
vn 0.9513 -0.1774 -0.2521
vn -0.9716 -0.0475 0.2317
vn -0.8432 -0.0781 -0.5320
vn -0.7511 -0.0616 0.6573
vn 0.1570 0.0122 0.9875
vn -0.3025 -0.0647 0.9509
vn 0.1594 -0.1857 0.9696
vn 0.8937 0.0205 -0.4481
vn 0.1962 -0.0030 -0.9806
vn -0.4510 -0.0381 -0.8917
vn 0.9997 -0.0146 -0.0205
vn -0.9721 -0.0733 0.2226
vn 0.9953 0.0145 0.0957
vn -0.8380 -0.0250 -0.5451
vn 0.5828 0.0329 0.8119
vn -0.7510 -0.0060 0.6603
vn -0.2930 0.0471 0.9550
vn -0.1944 0.0540 -0.9794
vn 0.6075 0.0538 -0.7925
vn -0.8095 0.2161 0.5459
vn -0.8796 -0.0254 -0.4751
vn -0.9926 0.0031 -0.1211
vn -0.8266 -0.0025 -0.5629
vn -0.4874 -0.7112 -0.5065
vn 0.0835 0.0037 -0.9965
vn 0.2391 0.0438 -0.9700
vn -0.5928 0.1461 -0.7920
vn 0.5411 0.0685 -0.8382
vn -0.5310 -0.0638 -0.8450
vn 0.9498 0.0554 -0.3079
vn 0.3517 -0.1556 -0.9231
vn 0.3048 -0.8685 -0.3910
vn 0.9905 0.1136 0.0781
vn 0.9373 -0.0142 0.3482
vn 0.9643 0.1287 -0.2316
vn 0.7522 0.1971 0.6288
vn 0.0646 0.0492 0.9967
vn 0.9277 0.1136 -0.3555
vn 0.6683 -0.7300 0.1433
vn 0.5714 -0.2433 0.7838
vn 0.1322 0.0174 0.9911
vn 0.7133 0.0787 0.6964
vn -0.4770 0.1592 0.8644
vn 0.5847 -0.0792 0.8074
vn -0.2513 0.0741 0.9651
vn -0.4276 -0.0967 0.8988
vn 0.0436 -0.9983 0.0398
vn 0.9367 0.0835 -0.3401
vn 0.9914 0.0811 0.1025
vn 0.3395 0.7603 -0.5538
vn -0.3328 0.7605 -0.5576
vn -0.9806 0.0354 0.1929
vn -0.9890 0.1441 0.0321
vn -0.7230 0.0095 -0.6908
vn -0.8854 0.1869 -0.4257
vn 0.0986 0.0851 0.9915
vn -0.4738 -0.0306 0.8801
vn 0.4929 0.0490 0.8687
vn 0.3787 0.2778 0.8829
vn -0.6655 0.0882 -0.7412
vn 0.2946 -0.0297 -0.9552
vn -0.4174 0.0720 -0.9059
vn 0.1834 0.0680 -0.9807
vn 0.5830 0.1122 -0.8047
vn 0.4252 -0.1823 -0.8865
vn -0.1866 0.0903 -0.9783
vn 0.0514 -0.1114 0.9924
vn -0.2555 -0.4530 0.8541
vn 0.4155 0.1516 0.8969
vn -0.3044 0.1345 0.9430
vn 0.6048 0.1207 0.7872
vn -0.3207 0.0853 0.9433
vn -0.4038 -0.1115 0.9080
vn -0.6117 -0.1102 0.7834
vn -0.9880 -0.0580 0.1430
vn -0.9343 -0.1989 0.2958
vn -0.7978 0.1106 -0.5927
vn -0.9831 0.1169 0.1409
vn -0.8980 -0.1227 -0.4225
vn -0.8078 0.0963 -0.5815
vn -0.8301 -0.2720 -0.4868
vn -0.9859 0.1246 0.1121
vn 0.8290 0.1437 -0.5404
vn 0.7855 -0.4776 -0.3936
vn 0.9940 0.0952 0.0531
vn 0.9357 -0.2955 0.1930
vn 0.7597 0.0904 -0.6440
vn 0.6232 -0.1278 0.7715
vn 0.8392 0.0027 -0.5437
vn 0.9944 0.0157 0.1047
vn 0.7083 -0.3597 0.6074
vn -0.9914 0.0472 0.1223
vn -0.9912 0.0328 -0.1285
vn 0.6827 0.2466 0.6879
vn 0.9644 0.2598 0.0486
vn 0.7365 0.2592 -0.6248
vn -0.7828 0.2370 -0.5753
vn -0.9971 0.0010 0.0765
vn -0.4552 0.3516 0.8180
vn 0.0628 0.3544 0.9330
vn 0.3545 0.2801 -0.8921
vn -0.1094 0.2341 -0.9660
vn 0.9331 0.0882 -0.3486
vn 0.7996 0.0764 0.5956
vn -0.7994 0.0326 -0.6000
vn -0.9934 0.0330 0.1096
vn -0.4335 0.0568 0.8994
vn 0.1702 0.0570 0.9838
vn 0.7846 -0.1374 -0.6046
vn -0.9800 -0.0696 0.1864
vn -0.8408 -0.0797 -0.5354
vn -0.6947 -0.0375 0.7183
vn 0.4930 -0.1517 0.8567
vn 0.8818 0.0148 -0.4713
vn -0.9483 -0.0139 0.3172
vn -0.8612 -0.0045 -0.5082
vn 0.3696 -0.0372 0.9284
vn -0.0255 -0.0369 0.9990
vn 0.0792 0.0213 -0.9966
vn -0.3275 0.0198 -0.9447
vn 0.7970 0.0750 -0.5992
vn 0.7737 0.0133 -0.6335
vn 0.9742 0.0371 0.2224
vn 0.9705 0.0966 0.2210
vn 0.4097 0.0193 0.9120
vn 0.0399 0.0933 0.9948
vn -0.3155 0.0663 0.9466
vn -0.3163 0.0201 0.9485
vn -0.9807 0.1416 0.1350
vn -0.8573 0.0075 0.5148
vn -0.9658 0.0689 -0.2499
vn -0.9589 0.1384 -0.2476
vn 0.7362 0.0180 -0.6765
vn 0.7361 -0.0026 -0.6769
vn -0.3794 0.0152 -0.9251
vn -0.4468 0.0632 -0.8924
vn -0.6996 0.0101 -0.7144
vn -0.7859 0.0114 0.6183
vn 0.9968 0.0342 0.0726
vn 0.9831 0.0341 -0.1796
vn -0.1699 0.0139 0.9854
vn -0.0355 0.0141 0.9993
vn 0.4832 -0.0041 -0.8755
vn -0.4475 0.0123 -0.8942
vn 0.8774 0.1096 -0.4671
vn 0.7995 0.0179 -0.6004
vn 0.9240 0.0141 0.3821
vn 0.9425 0.0683 0.3271
vn 0.2379 0.0650 0.9691
vn 0.4095 0.0409 0.9114
vn -0.1180 0.0927 0.9887
vn -0.1671 0.0602 0.9841
vn -0.9191 0.0683 0.3881
vn -0.9887 0.0591 0.1374
vn -0.7268 0.0063 -0.6869
vn -0.8845 0.0759 -0.4604
vn 0.4790 0.0687 -0.8751
vn 0.4021 0.1012 -0.9100
vn -0.1795 0.0655 -0.9816
vn -0.3785 0.0737 -0.9226
vn -0.7267 0.0130 -0.6869
vn -0.8571 0.0206 0.5147
vn 0.9241 0.0117 0.3821
vn 0.7733 -0.0002 -0.6340
vn -0.1190 0.0167 0.9928
vn 0.0408 0.0093 0.9991
usemtl 1
s off
f 1//1 3//1 2//1
f 3//2 20//2 17//2
f 29//3 4//3 1//3
f 42//4 87//4 41//4
f 19//5 12//5 9//5
f 10//6 89//6 45//6
f 13//7 16//7 22//7
f 14//8 16//8 15//8
f 32//9 50//9 51//9
f 14//10 17//10 16//10
f 16//11 17//11 20//11
f 21//12 4//12 8//12
f 18//13 20//13 21//13
f 20//14 3//14 21//14
f 51//15 23//15 32//15
f 32//16 35//16 50//16
f 32//17 37//17 35//17
f 24//18 30//18 34//18
f 34//19 33//19 24//19
f 24//20 33//20 37//20
f 37//21 32//21 24//21
f 53//22 120//22 101//22
f 25//23 34//23 30//23
f 110//24 55//24 54//24
f 101//25 54//25 26//25
f 28//26 97//26 56//26
f 55//27 35//27 27//27
f 26//28 34//28 101//28
f 28//29 56//29 36//29
f 123//30 86//30 122//30
f 123//31 88//31 86//31
f 133//32 103//32 59//32
f 131//33 60//33 132//33
f 144//34 74//34 146//34
f 152//35 120//35 155//35
f 147//36 80//36 78//36
f 78//37 148//37 147//37
f 86//38 88//38 87//38
f 73//39 127//39 105//39
f 125//40 100//40 67//40
f 75//41 139//41 138//41
f 138//42 77//42 75//42
f 71//43 136//43 106//43
f 134//44 99//44 65//44
f 57//45 133//45 131//45
f 57//46 131//46 58//46
f 148//47 99//47 75//47
f 63//48 144//48 106//48
f 58//49 140//49 57//49
f 141//50 104//50 57//50
f 156//51 98//51 78//51
f 68//52 152//52 74//52
f 102//53 150//53 61//53
f 149//54 62//54 61//54
f 2//55 3//55 17//55
f 82//56 81//56 114//56
f 1//57 38//57 40//57
f 115//58 40//58 84//58
f 83//59 39//59 82//59
f 2//60 81//60 39//60
f 5//61 42//61 41//61
f 85//62 1//62 40//62
f 29//63 8//63 4//63
f 1//64 4//64 3//64
f 4//65 21//65 3//65
f 5//66 7//66 8//66
f 41//67 88//67 43//67
f 7//68 18//68 8//68
f 6//69 41//69 43//69
f 87//70 85//70 115//70
f 89//71 88//71 117//71
f 42//72 29//72 85//72
f 45//73 9//73 10//73
f 10//74 43//74 89//74
f 12//75 6//75 10//75
f 5//76 6//76 7//76
f 46//77 91//77 92//77
f 9//78 12//78 10//78
f 11//79 44//79 46//79
f 117//80 45//80 89//80
f 93//81 92//81 116//81
f 47//82 15//82 48//82
f 90//83 44//83 45//83
f 19//84 13//84 22//84
f 46//85 93//85 11//85
f 9//86 11//86 13//86
f 13//87 15//87 16//87
f 96//88 47//88 95//88
f 116//89 48//89 93//89
f 14//90 47//90 49//90
f 114//91 49//91 96//91
f 93//92 15//92 11//92
f 94//93 47//93 48//93
f 81//94 14//94 49//94
f 22//95 18//95 19//95
f 14//96 2//96 17//96
f 21//97 8//97 18//97
f 18//98 7//98 19//98
f 19//99 7//99 12//99
f 97//100 113//100 118//100
f 22//101 16//101 20//101
f 50//102 35//102 119//102
f 119//103 51//103 50//103
f 31//104 32//104 23//104
f 51//105 97//105 23//105
f 30//106 31//106 36//106
f 120//107 52//107 112//107
f 53//108 25//108 52//108
f 112//109 107//109 121//109
f 52//110 36//110 107//110
f 27//111 54//111 55//111
f 34//112 53//112 101//112
f 25//113 30//113 36//113
f 111//114 101//114 120//114
f 35//115 110//115 119//115
f 37//116 26//116 27//116
f 54//117 111//117 110//117
f 121//118 56//118 108//118
f 27//119 35//119 37//119
f 26//120 33//120 34//120
f 118//121 56//121 97//121
f 28//122 23//122 97//122
f 131//123 59//123 60//123
f 61//124 142//124 102//124
f 36//125 56//125 107//125
f 28//126 36//126 31//126
f 28//127 31//127 23//127
f 141//128 61//128 62//128
f 122//129 86//129 115//129
f 150//130 121//130 108//130
f 151//131 109//131 118//131
f 88//132 124//132 117//132
f 131//133 133//133 59//133
f 149//134 108//134 109//134
f 135//135 67//135 134//135
f 126//136 94//136 125//136
f 98//137 143//137 148//137
f 111//138 153//138 110//138
f 144//139 68//139 74//139
f 94//140 116//140 125//140
f 119//141 153//141 156//141
f 126//142 96//142 95//142
f 68//143 143//143 66//143
f 64//144 136//144 105//144
f 96//145 127//145 114//145
f 67//146 100//146 134//146
f 152//147 111//147 120//147
f 73//148 137//148 70//148
f 82//149 128//149 83//149
f 102//150 145//150 72//150
f 72//151 146//151 74//151
f 127//152 82//152 114//152
f 70//153 132//153 60//153
f 128//154 84//154 83//154
f 121//155 154//155 112//155
f 136//156 73//156 105//156
f 84//157 122//157 115//157
f 112//158 155//158 120//158
f 62//159 147//159 141//159
f 91//160 90//160 129//160
f 124//161 90//161 117//161
f 78//162 98//162 148//162
f 156//163 113//163 119//163
f 91//164 130//164 92//164
f 118//165 157//165 151//165
f 100//166 139//166 134//166
f 133//167 76//167 103//167
f 79//168 138//168 139//168
f 116//169 130//169 125//169
f 38//170 2//170 39//170
f 84//171 38//171 83//171
f 86//172 87//172 115//172
f 108//173 118//173 109//173
f 125//174 79//174 100//174
f 130//175 76//175 79//175
f 103//176 129//176 124//176
f 128//177 60//177 122//177
f 127//178 70//178 128//178
f 126//179 105//179 127//179
f 67//180 126//180 125//180
f 124//181 59//181 103//181
f 122//182 59//182 123//182
f 104//183 138//183 133//183
f 134//184 75//184 99//184
f 137//185 58//185 132//185
f 136//186 69//186 137//186
f 135//187 106//187 136//187
f 65//188 135//188 134//188
f 141//189 77//189 104//189
f 58//190 131//190 132//190
f 57//191 104//191 133//191
f 147//192 148//192 75//192
f 75//193 77//193 147//193
f 145//194 71//194 146//194
f 142//195 69//195 145//195
f 146//196 106//196 144//196
f 148//197 65//197 99//197
f 63//198 143//198 144//198
f 63//199 65//199 143//199
f 151//200 80//200 62//200
f 140//201 141//201 57//201
f 58//202 142//202 140//202
f 78//203 80//203 157//203
f 154//204 74//204 155//204
f 157//205 156//205 78//205
f 150//206 72//206 154//206
f 153//207 98//207 156//207
f 74//208 152//208 155//208
f 68//209 153//209 152//209
f 61//210 150//210 149//210
f 149//211 151//211 62//211
f 82//212 39//212 81//212
f 115//213 85//213 40//213
f 83//214 38//214 39//214
f 85//215 29//215 1//215
f 29//216 5//216 8//216
f 41//217 87//217 88//217
f 6//218 5//218 41//218
f 87//219 42//219 85//219
f 89//220 43//220 88//220
f 42//221 5//221 29//221
f 45//222 44//222 9//222
f 10//223 6//223 43//223
f 12//224 7//224 6//224
f 46//225 44//225 91//225
f 11//226 9//226 44//226
f 117//227 90//227 45//227
f 93//228 46//228 92//228
f 47//229 14//229 15//229
f 90//230 91//230 44//230
f 19//231 9//231 13//231
f 13//232 11//232 15//232
f 96//233 49//233 47//233
f 116//234 94//234 48//234
f 114//235 81//235 49//235
f 93//236 48//236 15//236
f 94//237 95//237 47//237
f 81//238 2//238 14//238
f 22//239 20//239 18//239
f 97//240 51//240 113//240
f 119//241 113//241 51//241
f 31//242 24//242 32//242
f 30//243 24//243 31//243
f 120//244 53//244 52//244
f 53//245 34//245 25//245
f 112//246 52//246 107//246
f 52//247 25//247 36//247
f 27//248 26//248 54//248
f 111//249 54//249 101//249
f 35//250 55//250 110//250
f 37//251 33//251 26//251
f 121//252 107//252 56//252
f 118//253 108//253 56//253
f 61//254 140//254 142//254
f 141//255 140//255 61//255
f 151//256 149//256 109//256
f 88//257 123//257 124//257
f 149//258 150//258 108//258
f 135//259 64//259 67//259
f 126//260 95//260 94//260
f 98//261 66//261 143//261
f 111//262 152//262 153//262
f 119//263 110//263 153//263
f 68//264 144//264 143//264
f 64//265 135//265 136//265
f 96//266 126//266 127//266
f 73//267 136//267 137//267
f 82//268 127//268 128//268
f 102//269 142//269 145//269
f 72//270 145//270 146//270
f 70//271 137//271 132//271
f 121//272 150//272 154//272
f 84//273 128//273 122//273
f 112//274 154//274 155//274
f 62//275 80//275 147//275
f 124//276 129//276 90//276
f 156//277 157//277 113//277
f 91//278 129//278 130//278
f 118//279 113//279 157//279
f 100//280 79//280 139//280
f 133//281 138//281 76//281
f 79//282 76//282 138//282
f 116//283 92//283 130//283
f 38//284 1//284 2//284
f 84//285 40//285 38//285
f 125//286 130//286 79//286
f 130//287 129//287 76//287
f 103//288 76//288 129//288
f 128//289 70//289 60//289
f 127//290 73//290 70//290
f 126//291 64//291 105//291
f 67//292 64//292 126//292
f 124//293 123//293 59//293
f 122//294 60//294 59//294
f 104//295 77//295 138//295
f 134//296 139//296 75//296
f 137//297 69//297 58//297
f 136//298 71//298 69//298
f 135//299 63//299 106//299
f 65//300 63//300 135//300
f 141//301 147//301 77//301
f 145//302 69//302 71//302
f 142//303 58//303 69//303
f 146//304 71//304 106//304
f 148//305 143//305 65//305
f 151//306 157//306 80//306
f 154//307 72//307 74//307
f 150//308 102//308 72//308
f 153//309 66//309 98//309
f 68//310 66//310 153//310
usemtl 2
f 181//311 175//311 158//311
f 175//312 179//312 158//312
f 166//313 168//313 159//313
f 159//314 186//314 174//314
f 159//315 187//315 170//315
f 170//316 166//316 159//316
f 169//317 170//317 160//317
f 160//318 187//318 176//318
f 160//319 188//319 172//319
f 172//320 169//320 160//320
f 171//321 172//321 161//321
f 161//322 188//322 177//322
f 161//323 189//323 173//323
f 173//324 171//324 161//324
f 162//325 186//325 168//325
f 168//326 167//326 162//326
f 167//327 173//327 162//327
f 162//328 189//328 175//328
f 179//329 177//329 163//329
f 177//330 178//330 163//330
f 180//331 174//331 164//331
f 174//332 181//332 164//332
f 178//333 176//333 165//333
f 176//334 180//334 165//334
f 181//335 186//335 175//335
f 175//336 189//336 179//336
f 166//337 182//337 168//337
f 159//338 168//338 186//338
f 159//339 174//339 187//339
f 170//340 183//340 166//340
f 169//341 183//341 170//341
f 160//342 170//342 187//342
f 160//343 176//343 188//343
f 172//344 184//344 169//344
f 171//345 184//345 172//345
f 161//346 172//346 188//346
f 161//347 177//347 189//347
f 173//348 185//348 171//348
f 162//349 175//349 186//349
f 168//350 182//350 167//350
f 167//351 185//351 173//351
f 162//352 173//352 189//352
f 179//353 189//353 177//353
f 177//354 188//354 178//354
f 180//355 187//355 174//355
f 174//356 186//356 181//356
f 178//357 188//357 176//357
f 176//358 187//358 180//358
