# Blender v2.79 (sub 0) OBJ File: ''
# www.blender.org
mtllib Utes.mtl
o Plane_Plane.001
v 0.499268 0.044898 -0.137573
v 0.999910 -0.006355 -1.000075
v -0.697216 0.207307 -0.911170
v -0.142358 0.405464 -0.432847
v -0.338974 0.189097 0.789611
v 0.107782 0.174684 0.502163
v -0.076586 0.105708 0.635970
v -0.021519 0.102249 0.124319
v -0.961886 0.153014 0.535858
v -0.474436 0.460562 -0.391995
v 1.000921 -0.001191 -0.742660
v -0.961338 0.183257 0.268290
v 0.019236 0.175766 -0.139085
v -0.958992 0.440549 -0.144924
v -0.960384 0.420172 -0.066294
v 0.999950 0.028686 -0.059945
v 0.385258 0.030609 0.090609
v -0.306660 0.462167 -0.418671
v 0.242759 0.030006 -0.999913
v 0.145948 0.011530 0.999666
v 0.297107 0.031168 -0.479228
v -0.808400 0.291264 0.226961
v 0.435157 0.034403 0.695845
v -0.345433 0.123352 -0.868244
v -0.155483 0.299486 0.276878
v -0.332068 0.497791 0.100250
v 0.195098 0.001764 0.887185
v -0.645751 0.336932 0.364514
v -0.958341 0.199890 1.085375
v -0.860485 0.203134 0.729900
v -0.403676 0.457083 -0.174475
v -0.636479 0.450847 -0.368732
v -0.669198 0.283518 0.174738
v -0.953846 0.237542 -0.528169
v -0.708457 0.196886 0.927400
v -0.963406 0.207558 0.389619
v -0.298428 0.491821 -0.502202
v -0.557379 0.474554 -0.082463
v -0.954468 0.208457 -0.911993
v 0.731574 0.100038 -0.640166
v -0.085612 0.130568 1.006701
v 0.999898 0.011355 -0.424359
v -0.472168 0.162458 -0.930490
v 0.016318 0.102246 -0.403293
v -0.524449 0.531861 -0.297925
v -0.058382 0.398397 -0.529623
v -0.951099 0.410505 -0.265101
v -0.959985 0.181920 -0.667114
v -0.167519 0.230660 0.873249
v -0.811563 0.318887 0.445530
v -0.600907 0.553607 -0.526443
v 0.142628 0.193943 -0.176660
v -0.579018 0.429408 0.146837
v 0.664118 0.040404 0.710356
v -0.191849 0.272026 0.172419
v -0.960650 0.389388 0.018613
v -0.457924 0.139886 1.054924
v -0.767780 0.399435 -0.341637
v -0.231203 0.165954 1.023920
v 0.109280 0.041786 0.198395
v -0.708931 0.197669 1.084989
v 0.160518 0.158874 0.574124
v -0.173163 0.208561 0.791952
v -0.844606 0.286466 0.159768
v -0.279674 0.354737 0.359926
v 0.077091 0.049895 -1.000961
v -0.837779 0.521425 0.032901
v 0.698838 0.015696 0.999808
v -0.590121 0.316783 0.701567
v 0.986723 0.024466 -0.583939
v -0.972639 0.203705 0.130217
v -0.195100 0.072983 -0.972890
v 1.000032 0.025091 1.000952
v -0.736238 0.515822 0.029547
v -0.660730 0.302695 0.789726
v -0.791627 0.332795 0.356077
v -0.121372 0.347044 -0.766060
v -0.146372 0.397427 -0.164953
v -0.408180 0.532908 -0.047270
v 0.529361 0.019215 -0.342020
v 0.854812 0.017888 -0.281786
v -0.006485 0.165667 -0.817916
v -0.151623 0.126329 0.010968
v -0.555883 0.185147 -0.801005
v -0.768451 0.191536 -0.754517
v -0.287431 0.511840 -0.203002
v -0.427517 0.453733 -0.354396
v -0.865336 0.465015 -0.282892
v -0.957200 0.250370 -0.392735
v -0.786905 0.443220 -0.463889
v -0.501006 0.506874 -0.596045
v -0.441099 0.247453 0.654421
v -0.293161 0.350032 0.254341
v -0.026053 0.140620 0.464286
v -0.325908 0.414985 -0.702875
v -0.422441 0.528957 -0.619769
v 0.446028 0.029110 -0.636263
v 0.651289 0.019380 0.079684
v -0.631296 0.502527 -0.653107
v 0.696554 0.111893 -0.459380
v 0.362618 0.035469 -0.807578
v -0.810751 0.521595 -0.118256
v -0.817632 0.365477 -0.583837
v -0.497908 0.243043 0.314344
v -0.121792 0.217353 0.416235
v 0.563203 0.091089 -0.637992
v -0.166421 0.513617 -0.572031
v -0.449884 0.383965 -0.737913
v -0.347624 0.221279 0.493846
v -0.421398 0.469915 0.192400
v 0.409510 0.043810 0.326704
v 0.814942 0.041747 0.816818
v -0.659349 0.300817 0.514225
v -0.953941 0.208844 0.810717
v -0.470165 0.170471 0.908895
v -0.699899 0.477516 -0.146093
v -0.640708 0.473698 0.038679
v 0.278090 0.067637 -0.611532
v 0.083502 0.178979 -0.634414
v 0.552844 0.091837 -0.461225
v -0.285442 0.140081 0.651229
v -0.058790 0.175291 0.267014
v 0.605994 0.024236 -0.818387
v -0.079880 0.356097 -0.287047
v -0.230816 0.504518 -0.347134
v -0.245632 0.374182 -0.079463
v 0.487676 0.021361 0.518378
v 0.801984 0.040249 -0.073395
v 0.999909 -0.008916 0.370158
vn 0.8505 0.3728 0.3710
vn 0.5271 0.8044 -0.2741
vn 0.9407 0.3328 -0.0659
vn 0.1749 0.9535 0.2454
vn -0.2176 0.9409 -0.2594
vn 0.7182 0.6016 -0.3497
vn 0.4334 0.8431 -0.3184
vn 0.8719 0.4342 -0.2266
vn 0.6137 0.7887 0.0368
vn 0.2666 0.6117 0.7448
vn 0.5597 0.8056 0.1945
vn 0.5653 0.8217 -0.0724
vn 0.4743 0.8638 0.1699
vn 0.1066 0.8616 -0.4963
vn 0.3294 0.9154 -0.2313
vn 0.3531 0.9061 0.2332
vn 0.1121 0.8979 -0.4258
vn 0.3963 0.8776 -0.2698
vn 0.7176 0.5883 -0.3727
vn 0.0981 0.3305 -0.9387
vn 0.3224 0.8664 0.3814
vn -0.1033 0.9243 -0.3674
vn 0.7209 0.5695 -0.3948
vn 0.1545 0.9016 0.4041
vn 0.1909 0.9051 0.3799
vn 0.5550 0.7684 0.3187
vn 0.1910 0.8982 0.3959
vn 0.6997 0.4223 0.5763
vn -0.0243 0.8398 -0.5423
vn 0.4894 0.8694 0.0684
vn 0.7699 0.6004 0.2160
vn 0.7348 0.5726 0.3635
vn 0.7848 0.5981 0.1628
vn 0.7503 0.6085 -0.2582
vn 0.3667 0.7775 0.5110
vn 0.3558 0.9305 -0.0869
vn 0.5056 0.4627 0.7282
vn 0.5154 0.4594 0.7234
vn -0.0630 0.9638 0.2592
vn -0.0493 0.9640 0.2614
vn 0.3296 0.9162 -0.2281
vn 0.9085 0.3998 -0.1213
vn 0.1047 0.8588 -0.5015
vn 0.4734 0.8411 -0.2615
vn 0.6705 0.6262 -0.3980
vn 0.0380 0.9207 -0.3885
vn 0.3729 0.8572 -0.3552
vn 0.8435 0.5358 0.0372
vn 0.0467 0.9988 0.0143
vn 0.2721 0.9606 0.0565
vn 0.3371 0.9320 -0.1335
vn 0.0522 0.9948 0.0870
vn -0.3454 0.3778 0.8590
vn 0.5869 0.7869 0.1905
vn -0.2025 0.9768 -0.0702
vn 0.1337 0.7628 0.6326
vn 0.3803 0.9237 -0.0469
vn 0.3147 0.9492 -0.0013
vn 0.3070 0.9435 -0.1251
vn 0.1449 0.9051 -0.3998
vn -0.2750 0.9547 0.1132
vn 0.1912 0.9804 -0.0481
vn 0.0290 0.8345 0.5503
vn 0.2799 0.9289 0.2423
vn 0.6013 0.6955 -0.3933
vn -0.2079 0.8369 -0.5063
vn -0.6350 0.7123 -0.2990
vn -0.2049 0.9788 -0.0077
vn -0.4391 0.8984 -0.0026
vn 0.5772 0.7803 0.2407
vn -0.4328 0.8070 -0.4017
vn -0.0542 0.9321 -0.3583
vn 0.5676 0.6948 0.4418
vn 0.2411 0.9668 -0.0847
vn -0.4587 0.8884 0.0190
vn 0.5258 0.8190 -0.2298
vn -0.1322 0.9434 0.3042
vn 0.2141 0.8823 0.4191
vn -0.0365 0.9887 0.1456
vn -0.5899 0.8075 -0.0059
vn -0.6324 0.7236 0.2765
vn -0.5384 0.8261 0.1664
vn 0.2239 0.9746 -0.0042
vn -0.1089 0.9748 -0.1948
vn -0.0553 0.9257 0.3742
vn -0.7616 0.6431 -0.0798
vn 0.1678 0.5569 0.8135
vn -0.1584 0.8788 0.4502
vn -0.3131 0.9265 -0.2088
vn -0.4978 0.8417 0.2093
vn -0.7244 0.6489 0.2330
vn -0.5557 0.7973 -0.2358
vn 0.2382 0.8707 -0.4303
vn 0.6701 0.7216 -0.1740
vn 0.5913 0.8010 -0.0933
vn 0.2491 0.9422 0.2239
vn -0.7468 0.6231 0.2325
vn 0.0455 0.9953 0.0851
vn -0.1261 0.8580 0.4979
vn 0.0615 0.9970 -0.0474
vn -0.4675 0.8521 -0.2352
vn 0.2756 0.9177 0.2862
vn -0.5695 0.5086 -0.6458
vn 0.0239 0.9962 -0.0840
vn 0.4396 0.8490 -0.2933
vn 0.0179 0.9982 -0.0577
vn -0.0177 0.9929 0.1179
vn 0.1466 0.8689 -0.4729
vn 0.6718 0.7312 0.1184
vn 0.0404 0.9921 -0.1187
vn -0.4181 0.9076 0.0385
vn -0.1696 0.5055 -0.8460
vn 0.0555 0.9984 0.0110
vn 0.4934 0.8599 0.1309
vn -0.1660 0.9623 0.2155
vn 0.0530 0.9986 -0.0092
vn 0.0131 0.4700 0.8826
vn 0.1241 0.4832 -0.8667
vn 0.0116 0.9570 0.2900
vn 0.1626 0.9043 -0.3948
vn -0.0669 0.4756 0.8771
vn 0.2963 0.8388 0.4568
vn -0.2742 0.8910 0.3620
vn -0.1174 0.6433 0.7566
vn 0.4302 0.8147 -0.3888
vn -0.6427 0.5071 0.5742
vn 0.2136 0.9746 -0.0678
vn 0.3309 0.8533 -0.4030
vn -0.1325 0.9467 0.2937
vn -0.2080 0.9112 -0.3556
vn -0.0094 0.9523 -0.3051
vn -0.5656 0.7863 0.2486
vn -0.0478 0.9947 0.0906
vn 0.3831 0.7131 0.5871
vn -0.1017 0.4958 -0.8624
vn -0.0539 0.9957 -0.0757
vn 0.3043 0.9523 -0.0212
vn 0.0227 0.9946 -0.1010
vn 0.2869 0.9578 0.0176
vn 0.0548 0.9944 -0.0901
vn -0.1375 0.7528 -0.6437
vn 0.0436 0.9975 -0.0555
vn 0.0041 0.9948 0.1020
vn -0.4441 0.8960 -0.0083
vn 0.6296 0.7762 0.0319
vn -0.3091 0.9015 -0.3029
vn 0.5648 0.7419 -0.3614
vn -0.4677 0.8833 -0.0311
vn 0.0551 0.7639 -0.6430
vn 0.0448 0.9400 0.3381
vn 0.3327 0.8779 0.3444
vn 0.1784 0.7917 0.5843
vn 0.0644 0.6230 -0.7796
vn -0.4763 0.7317 0.4875
vn 0.0238 0.9924 -0.1204
vn 0.0396 0.9974 -0.0598
vn 0.0897 0.9959 -0.0107
vn -0.1187 0.9095 -0.3985
vn 0.3656 0.9286 -0.0639
vn -0.0075 0.9959 -0.0897
vn 0.5230 0.8380 0.1558
vn -0.0805 0.8873 0.4542
vn -0.0314 0.9921 0.1213
vn -0.0750 0.9928 0.0937
vn 0.0092 0.9719 0.2353
vn -0.2558 0.6307 0.7326
vn -0.4776 0.4750 0.7390
vn -0.5313 0.4144 0.7389
vn -0.6021 0.7796 -0.1725
vn -0.5985 0.7835 -0.1671
vn 0.1229 0.9734 0.1936
vn 0.0329 0.9989 0.0331
vn 0.0089 0.9999 -0.0049
vn -0.5023 0.7610 0.4107
vn 0.2605 0.8423 0.4718
vn 0.4362 0.8277 0.3531
vn -0.5484 0.8129 -0.1962
vn -0.3332 0.8226 0.4608
vn -0.6361 0.6895 0.3464
vn -0.5911 0.4736 -0.6530
vn -0.6553 0.4265 -0.6234
vn 0.0135 0.9998 0.0163
vn 0.4099 0.9052 -0.1126
vn -0.5824 0.8063 -0.1032
vn 0.0576 0.5410 0.8390
vn -0.4916 0.5542 -0.6718
vn -0.4530 0.8785 -0.1517
vn -0.2424 0.9594 -0.1440
vn 0.0379 0.9990 0.0229
vn -0.0111 0.9922 0.1243
vn -0.0947 0.8425 0.5304
vn -0.0796 0.9888 -0.1263
vn 0.7134 0.6973 -0.0696
vn -0.3946 0.8923 -0.2193
vn -0.0886 0.9659 0.2434
vn 0.0573 0.9904 0.1258
vn -0.1869 0.3781 -0.9067
vn -0.3814 0.6262 -0.6800
vn 0.3427 0.4625 -0.8177
vn 0.3073 0.8701 0.3852
vn -0.0460 0.9630 -0.2654
vn 0.2935 0.9513 -0.0948
vn -0.4538 0.5358 0.7121
vn 0.3941 0.9177 0.0492
vn 0.0681 0.9975 -0.0203
vn 0.1420 0.9884 -0.0533
vn -0.1774 0.3824 -0.9068
vn 0.1142 0.9877 -0.1073
vn 0.0159 0.9871 0.1594
vn -0.2274 0.9244 -0.3062
vn -0.0008 0.9942 0.1077
vn -0.7150 0.6559 -0.2420
vn -0.1945 0.9508 0.2411
vn 0.4362 0.8980 0.0581
vn -0.0211 0.9966 -0.0795
vn 0.0826 0.9932 0.0826
vn -0.1381 0.9903 -0.0123
vn -0.0340 0.9914 0.1265
vn -0.1092 0.9611 -0.2537
vn 0.3814 0.6789 0.6274
vn 0.1984 0.7367 -0.6465
vn 0.0479 0.9968 -0.0641
vn -0.2596 0.9649 0.0402
usemtl zemlya.001
s off
f 44//1 119//1 46//1
f 60//2 8//2 122//2
f 83//3 126//3 55//3
f 121//4 7//4 94//4
f 52//5 44//5 13//5
f 119//6 77//6 107//6
f 8//7 83//7 122//7
f 124//8 44//8 4//8
f 94//9 122//9 105//9
f 109//10 105//10 65//10
f 121//11 109//11 92//11
f 121//12 92//12 5//12
f 21//13 118//13 119//13
f 19//14 66//14 82//14
f 101//15 19//15 82//15
f 17//16 1//16 52//16
f 52//17 21//17 44//17
f 1//18 21//18 52//18
f 122//19 83//19 25//19
f 82//20 24//20 77//20
f 44//21 21//21 119//21
f 63//22 121//22 5//22
f 119//23 82//23 77//23
f 121//24 105//24 109//24
f 8//25 17//25 52//25
f 65//26 105//26 25//26
f 8//27 60//27 17//27
f 4//28 44//28 46//28
f 82//29 66//29 24//29
f 118//30 101//30 119//30
f 78//31 13//31 124//31
f 26//32 93//32 55//32
f 105//33 122//33 25//33
f 46//34 119//34 107//34
f 121//35 94//35 105//35
f 65//36 25//36 93//36
f 83//37 13//37 78//37
f 126//38 83//38 78//38
f 8//39 52//39 13//39
f 8//40 13//40 83//40
f 119//41 101//41 82//41
f 13//42 44//42 124//42
f 63//43 7//43 121//43
f 49//44 7//44 63//44
f 25//45 83//45 55//45
f 24//46 66//46 72//46
f 25//47 55//47 93//47
f 26//48 55//48 126//48
usemtl trava
f 97//49 123//49 101//49
f 70//50 40//50 42//50
f 74//51 116//51 102//51
f 129//52 16//52 128//52
f 110//53 53//53 33//53
f 78//54 125//54 86//54
f 49//55 5//55 115//55
f 115//56 75//56 35//56
f 127//57 111//57 62//57
f 42//58 40//58 100//58
f 70//59 11//59 40//59
f 91//60 99//60 51//60
f 6//61 94//61 7//61
f 43//62 3//62 84//62
f 32//63 10//63 51//63
f 81//64 42//64 100//64
f 126//65 31//65 79//65
f 79//66 31//66 38//66
f 90//67 99//67 103//67
f 75//68 69//68 113//68
f 30//69 113//69 9//69
f 113//70 104//70 28//70
f 97//71 106//71 123//71
f 40//72 123//72 106//72
f 4//73 46//73 107//73
f 109//74 104//74 113//74
f 93//75 104//75 65//75
f 27//76 7//76 49//76
f 62//77 6//77 7//77
f 27//78 23//78 62//78
f 28//79 76//79 50//79
f 76//80 36//80 50//80
f 50//81 36//81 9//81
f 22//82 71//82 12//82
f 57//83 35//83 61//83
f 114//84 30//84 9//84
f 59//85 49//85 57//85
f 90//86 34//86 89//86
f 33//87 117//87 74//87
f 26//88 117//88 53//88
f 117//89 79//89 38//89
f 102//90 14//90 15//90
f 67//91 15//91 56//91
f 14//92 88//92 47//92
f 116//93 58//93 102//93
f 26//94 126//94 79//94
f 31//95 87//95 45//95
f 21//96 97//96 118//96
f 80//97 120//97 97//97
f 98//98 1//98 17//98
f 80//99 100//99 120//99
f 16//100 42//100 128//100
f 116//101 45//101 32//101
f 38//102 31//102 45//102
f 91//103 108//103 84//103
f 22//104 33//104 64//104
f 104//105 33//105 28//105
f 111//106 17//106 60//106
f 128//107 98//107 129//107
f 11//108 123//108 40//108
f 78//109 124//109 125//109
f 1//110 128//110 80//110
f 86//111 87//111 31//111
f 88//112 58//112 89//112
f 74//113 102//113 67//113
f 10//114 91//114 51//114
f 49//115 115//115 57//115
f 35//116 30//116 114//116
f 93//117 110//117 104//117
f 95//118 24//118 108//118
f 10//119 37//119 96//119
f 111//120 60//120 6//120
f 64//121 33//121 67//121
f 115//122 5//122 75//122
f 32//123 90//123 58//123
f 126//124 86//124 31//124
f 87//125 10//125 45//125
f 53//126 117//126 33//126
f 97//127 101//127 118//127
f 102//128 58//128 88//128
f 117//129 26//129 79//129
f 48//130 34//130 85//130
f 76//131 28//131 22//131
f 71//132 22//132 64//132
f 68//133 54//133 27//133
f 110//134 93//134 26//134
f 95//135 77//135 24//135
f 106//136 100//136 40//136
f 24//137 72//137 43//137
f 128//138 81//138 80//138
f 24//139 43//139 84//139
f 112//140 129//140 54//140
f 32//141 45//141 10//141
f 101//142 123//142 19//142
f 39//143 85//143 3//143
f 30//144 75//144 113//144
f 94//145 60//145 122//145
f 37//146 107//146 95//146
f 37//147 95//147 96//147
f 97//148 120//148 106//148
f 107//149 77//149 95//149
f 18//150 37//150 10//150
f 18//151 4//151 37//151
f 4//152 107//152 37//152
f 96//153 95//153 108//153
f 109//154 65//154 104//154
f 127//155 54//155 129//155
f 111//156 98//156 17//156
f 111//157 129//157 98//157
f 6//158 60//158 94//158
f 62//159 111//159 6//159
f 20//160 68//160 27//160
f 20//161 27//161 49//161
f 27//162 62//162 7//162
f 68//163 73//163 112//163
f 68//164 112//164 54//164
f 113//165 28//165 50//165
f 9//166 113//166 50//166
f 64//167 56//167 71//167
f 64//168 67//168 56//168
f 36//169 76//169 22//169
f 12//170 36//170 22//170
f 35//171 57//171 115//171
f 29//172 35//172 114//172
f 29//173 61//173 35//173
f 35//174 75//174 30//174
f 41//175 49//175 59//175
f 49//176 41//176 20//176
f 90//177 51//177 99//177
f 32//178 51//178 90//178
f 58//179 90//179 89//179
f 103//180 99//180 85//180
f 34//181 103//181 85//181
f 117//182 38//182 116//182
f 74//183 117//183 116//183
f 15//184 67//184 102//184
f 67//185 33//185 74//185
f 47//186 88//186 89//186
f 14//187 102//187 88//187
f 86//188 125//188 87//188
f 21//189 80//189 97//189
f 98//190 128//190 1//190
f 80//191 81//191 100//191
f 128//192 42//192 81//192
f 124//193 4//193 125//193
f 58//194 116//194 32//194
f 38//195 45//195 116//195
f 85//196 84//196 3//196
f 85//197 99//197 84//197
f 91//198 96//198 108//198
f 91//199 84//199 99//199
f 75//200 5//200 69//200
f 28//201 33//201 22//201
f 113//202 69//202 92//202 109//202
f 104//203 110//203 33//203
f 62//204 23//204 127//204
f 11//205 2//205 123//205
f 73//206 129//206 112//206
f 84//207 108//207 24//207
f 1//208 80//208 21//208
f 87//209 18//209 10//209
f 87//210 125//210 18//210
f 85//211 39//211 48//211
f 34//212 90//212 103//212
f 10//213 96//213 91//213
f 5//214 92//214 69//214
f 23//215 54//215 127//215
f 127//216 129//216 111//216
f 120//217 100//217 106//217
f 54//218 23//218 27//218
f 49//219 63//219 5//219
f 126//220 78//220 86//220
f 125//221 4//221 18//221
f 123//222 2//222 19//222
f 110//223 26//223 53//223
