# Blender v2.79 (sub 0) OBJ File: ''
# www.blender.org
mtllib untitled.mtl
o Cube
v 0.629524 -0.035690 0.462779
v -0.589812 -0.085326 0.123214
v 0.148919 -0.078729 -0.647224
v -0.157925 -0.117592 0.387906
v -0.190596 2.148027 -0.025808
v 0.064175 1.903229 -0.577696
v -0.874145 1.916838 0.114350
v -0.530862 1.939772 0.517274
v 0.655995 1.843804 0.041845
v 1.012989 1.654186 -0.568316
v -0.933600 1.624648 -0.435392
v -0.860878 1.697416 0.621159
v 0.011176 1.896027 0.610739
v 1.104199 0.377037 0.012603
v 1.139684 0.330058 -0.452676
v 1.204324 0.642694 -0.016639
v 1.130999 0.650099 0.670424
v 1.111718 0.141453 -0.234308
v 1.356077 0.557154 -0.459631
v 0.860311 0.228044 0.436348
v 0.448976 0.519654 1.035753
v 0.230634 0.750525 1.182255
v -0.307988 0.056521 0.763067
v 0.480392 0.199859 0.926257
v -0.577346 0.563637 1.097665
v -1.025436 0.274504 -0.041815
v -1.207059 0.556276 0.019286
v -0.956940 0.173301 -0.359778
v -0.669393 -0.058383 0.290199
v -0.925671 0.374570 0.872956
v -1.403656 0.491366 -0.474781
v 0.022302 0.444871 -1.284052
v 0.522613 0.145212 -0.992615
v 0.007728 0.115330 -1.062077
v -0.301635 0.333633 -1.132821
v 1.163556 0.551943 -0.946053
v -0.307493 0.094544 -0.885481
v -0.308388 0.575467 -1.289549
v 0.891989 0.006067 -0.108145
v 0.814132 0.111131 0.674596
v 0.899034 0.155300 -0.748120
v 0.911656 0.375126 -0.885181
v 0.620363 0.069392 0.817917
v 0.755350 0.287930 0.807656
v 1.027587 0.639662 1.064871
v -1.031365 0.375128 -0.989741
v 1.512004 1.079437 -0.430486
v 1.385886 1.203879 0.041371
v 0.959546 1.029214 1.141920
v 0.904039 1.257343 -1.231944
v -0.026582 1.265875 -1.505324
v -0.640044 1.088706 -1.315112
v 0.287069 1.262368 1.266978
v -0.282229 1.312892 1.293376
v -0.747188 1.037249 1.152165
v -1.163206 0.924528 0.621774
v -1.310376 1.085736 0.131694
v -1.552931 0.933528 -0.518642
v 0.635672 0.018652 -0.707346
v -0.590738 0.034030 0.590945
v 1.390148 0.903149 -0.863535
v -0.947700 0.706223 0.932409
v -1.147936 0.741873 -0.996060
v 0.064175 1.903229 -0.577696
v -0.874145 1.916838 0.114350
v -0.530862 1.939772 0.517274
v 0.655995 1.843804 0.041845
v 1.012989 1.654186 -0.568316
v -0.933600 1.624648 -0.435392
v -0.860878 1.697416 0.621159
v 0.011176 1.896027 0.610739
v 0.064175 1.903229 -0.577696
v -0.874145 1.916838 0.114350
v -0.530862 1.939772 0.517274
v 0.655995 1.843804 0.041845
v 1.012989 1.654186 -0.568316
v -0.933600 1.624648 -0.435392
v -0.860878 1.697416 0.621159
v 0.011176 1.896027 0.610739
vn 0.1041 -0.9945 -0.0065
vn 0.1834 -0.9780 -0.0990
vn 0.0723 -0.9559 0.2847
vn 0.3897 -0.8803 0.2705
vn -0.0437 -0.9978 -0.0504
vn 0.3622 0.7420 0.5642
vn 0.9953 -0.0534 0.0813
vn 0.9344 -0.3408 0.1034
vn 0.9599 0.1173 0.2548
vn 0.7165 -0.6280 0.3038
vn 0.4498 -0.2494 0.8576
vn 0.0309 -0.1665 0.9855
vn -0.1328 -0.3327 0.9336
vn -0.0352 -0.6605 0.7500
vn -0.7937 -0.4913 0.3586
vn -0.8578 -0.1453 0.4930
vn -0.7144 -0.6965 0.0678
vn -0.4888 -0.8674 -0.0930
vn -0.3144 -0.9155 -0.2512
vn 0.5365 -0.8252 -0.1768
vn 0.1427 -0.5573 -0.8180
vn -0.1747 -0.7059 -0.6865
vn -0.1506 -0.9141 -0.3764
vn -0.1916 -0.5375 -0.8212
vn 0.0000 0.0000 1.0000
vn 0.1244 -0.9921 -0.0154
vn 0.4921 -0.8550 0.1637
vn -0.1325 -0.9865 0.0960
vn -0.0120 -0.9088 0.4170
vn 0.2965 0.9352 -0.1935
vn 0.1942 0.8112 -0.5516
vn 0.6934 0.7132 0.1026
vn 0.7262 0.5346 -0.4322
vn -0.3275 0.8252 -0.4603
vn -0.8217 0.5700 -0.0043
vn -0.3304 0.7743 -0.5397
vn -0.6083 0.5255 -0.5948
vn -0.3584 0.8983 0.2543
vn -0.4156 0.5879 0.6940
vn -0.8671 0.4026 0.2933
vn -0.7873 0.2464 0.5652
vn 0.1979 0.9313 0.3060
vn 0.5389 0.7412 0.4002
vn 0.0245 0.7549 0.6554
vn 0.8075 -0.4308 -0.4029
vn 0.4270 -0.8816 -0.2009
vn 0.8239 -0.5113 0.2444
vn 0.8897 -0.3045 0.3401
vn 0.5963 -0.7425 -0.3051
vn 0.9008 -0.3643 -0.2361
vn 0.9554 -0.1526 0.2528
vn 0.7154 -0.6778 0.1696
vn 0.8042 -0.5253 0.2782
vn 0.8256 -0.5040 0.2535
vn 0.5267 -0.2878 0.7999
vn 0.9594 0.1307 0.2501
vn 0.0777 -0.5727 0.8161
vn 0.1206 -0.1739 0.9774
vn 0.0282 -0.5328 0.8458
vn -0.0935 -0.2170 0.9717
vn -0.1731 -0.6048 0.7773
vn -0.4695 -0.2324 0.8518
vn -0.7175 -0.6797 0.1526
vn -0.2905 -0.7634 0.5769
vn -0.1607 -0.9239 0.3473
vn -0.9360 -0.2659 0.2307
vn -0.6799 -0.6899 0.2484
vn -0.8848 -0.2574 0.3884
vn -0.5335 -0.8217 -0.2002
vn -0.7946 -0.2941 -0.5311
vn 0.2850 -0.2499 -0.9254
vn -0.3173 -0.9134 -0.2551
vn 0.2957 -0.3649 -0.8828
vn 0.1168 -0.8862 -0.4483
vn 0.5286 -0.1445 -0.8365
vn -0.2586 -0.6093 -0.7496
vn 0.4862 -0.4823 -0.7287
vn 0.3402 -0.8021 -0.4907
vn -0.1762 -0.2274 -0.9577
vn -0.2358 -0.9432 -0.2342
vn -0.1984 -0.5369 -0.8200
vn -0.3601 -0.2163 -0.9075
usemtl Material
s off
f 3//1 1//1 4//1
f 3//2 59//2 39//2
f 1//3 43//3 4//3
f 1//4 40//4 43//4
f 4//5 2//5 3//5
f 53//6 49//6 13//6
f 14//7 18//7 15//7
f 16//8 17//8 14//8
f 49//9 45//9 17//9
f 17//10 44//10 20//10
f 24//11 44//11 21//11
f 22//12 53//12 54//12
f 21//13 23//13 24//13
f 24//14 23//14 43//14
f 29//15 60//15 26//15
f 30//16 62//16 56//16
f 26//17 28//17 29//17
f 28//18 2//18 29//18
f 37//19 2//19 28//19
f 36//20 42//20 33//20
f 33//21 34//21 32//21
f 35//22 37//22 46//22
f 3//23 37//23 34//23
f 35//24 46//24 38//24
f 12//25 66//25 70//25
f 9//25 68//25 67//25
f 8//25 71//25 66//25
f 11//25 65//25 69//25
f 7//25 70//25 65//25
f 10//25 64//25 68//25
f 13//25 67//25 71//25
f 6//25 69//25 64//25
f 70//25 74//25 78//25
f 69//25 73//25 77//25
f 68//25 72//25 76//25
f 66//25 79//25 74//25
f 65//25 78//25 73//25
f 64//25 77//25 72//25
f 67//25 76//25 75//25
f 71//25 75//25 79//25
f 1//26 3//26 39//26
f 39//27 40//27 1//27
f 2//28 4//28 29//28
f 4//29 43//29 23//29
f 6//30 5//30 9//30 10//30
f 50//31 51//31 6//31 10//31
f 10//32 9//32 48//32 47//32
f 61//33 50//33 10//33 47//33
f 11//34 7//34 5//34 6//34
f 57//35 7//35 11//35 58//35
f 52//36 11//36 6//36 51//36
f 63//37 58//37 11//37 52//37
f 8//38 5//38 7//38 12//38
f 54//39 8//39 12//39 55//39
f 12//40 7//40 57//40 56//40
f 55//41 12//41 56//41 62//41
f 13//42 9//42 5//42 8//42
f 49//43 48//43 9//43 13//43
f 13//44 8//44 54//44 53//44
f 41//45 42//45 15//45 18//45
f 59//46 41//46 18//46 39//46
f 16//47 14//47 15//47 19//47
f 47//48 48//48 16//48 19//48
f 36//49 19//49 15//49 42//49
f 61//50 47//50 19//50 36//50
f 17//51 16//51 48//51 49//51
f 17//52 45//52 44//52
f 20//53 18//53 14//53 17//53
f 39//54 18//54 20//54 40//54
f 44//55 24//55 43//55 40//55
f 20//56 44//56 40//56
f 22//57 21//57 44//57 45//57
f 49//58 53//58 22//58 45//58
f 25//59 23//59 21//59 22//59
f 55//60 25//60 22//60 54//60
f 23//61 25//61 30//61
f 62//62 30//62 25//62 55//62
f 30//63 27//63 26//63 60//63
f 30//64 60//64 23//64
f 60//65 29//65 4//65 23//65
f 56//66 57//66 27//66 30//66
f 28//67 26//67 27//67 31//67
f 58//68 31//68 27//68 57//68
f 28//69 31//69 46//69
f 63//70 46//70 31//70 58//70
f 36//71 32//71 51//71 50//71
f 46//72 37//72 28//72
f 32//73 36//73 33//73
f 3//74 34//74 33//74 59//74
f 50//75 61//75 36//75
f 35//76 32//76 34//76 37//76
f 42//77 41//77 33//77
f 33//78 41//78 59//78
f 51//79 32//79 38//79 52//79
f 37//80 3//80 2//80
f 32//81 35//81 38//81
f 52//82 38//82 46//82 63//82
f 12//25 8//25 66//25
f 9//25 10//25 68//25
f 8//25 13//25 71//25
f 11//25 7//25 65//25
f 7//25 12//25 70//25
f 10//25 6//25 64//25
f 13//25 9//25 67//25
f 6//25 11//25 69//25
f 70//25 66//25 74//25
f 69//25 65//25 73//25
f 68//25 64//25 72//25
f 66//25 71//25 79//25
f 65//25 70//25 78//25
f 64//25 69//25 77//25
f 67//25 68//25 76//25
f 71//25 67//25 75//25
