# Blender v2.79 (sub 0) OBJ File: ''
# www.blender.org
mtllib back4_1.mtl
o Plane
v 0.000000 0.463120 -13.659739
v 0.000000 2.164604 13.659739
v 0.120256 3.866089 0.910649
v 0.116862 0.459876 9.789480
v 0.082582 0.458253 8.065464
v 0.119483 0.462013 0.341366
v 0.089921 0.458152 -2.867331
v 0.120256 0.463120 -4.553246
v 0.114382 0.463952 -8.393575
v 0.027328 2.281040 -4.367276
v 0.097262 2.522797 -7.863139
v 0.105844 2.168103 -12.228438
v 0.000645 0.463683 -12.897310
v -0.000000 3.015347 -13.659739
v 0.120256 3.015347 13.659739
v 0.120854 1.318827 -13.652200
v -0.007564 2.508590 -12.859047
v 0.020059 3.868576 -12.812306
v 0.004548 3.866399 3.900961
v 0.051541 0.467652 8.769759
v 0.054375 0.458987 7.560479
v 0.073699 0.465274 1.573084
v 0.001062 0.462540 -3.847073
v -0.003586 0.463120 -9.405517
v 0.132484 2.349794 7.420018
v 0.019914 2.518504 3.671154
v 0.108408 2.152019 -3.853523
v 0.077001 2.188359 -10.885814
v -0.000652 3.015176 11.974763
v 0.118077 3.434929 6.106099
v 0.126012 3.301591 1.076540
v 0.120256 3.015347 -0.910649
v 0.015047 3.051776 -6.291070
v 0.103545 3.017765 -8.326338
v 0.121339 1.732733 9.856892
v 0.115076 2.280193 2.802154
v -0.003905 1.306836 -6.638051
v 0.028633 1.329864 -12.005785
v 0.120891 1.729427 -7.101652
v -0.004160 1.335785 -5.559025
v 0.014362 1.339409 10.583086
v 0.000024 3.018700 -11.341168
v 0.000392 3.013545 -9.520147
v 0.119540 3.148280 -7.386132
v -0.003329 3.605664 -5.485173
v 0.076487 3.071337 -3.392653
v 0.014359 3.063085 1.690289
v 0.120256 3.015347 -12.749090
v 0.119742 3.866572 3.552971
v 0.120256 3.866089 -1.179194
v 0.002378 3.155571 3.176736
v -0.000007 3.015272 4.881724
v -0.000000 3.866089 5.456111
v -0.000000 3.151813 11.838441
v 0.120256 3.283563 13.659739
v 0.118666 2.907510 8.150537
v 0.117966 3.770929 10.788834
v 0.120256 3.527251 -3.642598
v -0.000000 3.773536 9.106492
v -0.000000 3.866089 9.211505
v 0.120085 3.646647 -1.826865
v -0.000000 2.696546 4.553246
v 0.120256 3.015347 4.378809
v 0.120256 3.225698 2.731948
v -0.000000 3.546111 1.821299
v 0.120256 3.866089 0.911888
v 0.120256 2.889868 -11.838441
v 0.120188 3.015280 -11.934478
v 0.123537 2.728753 -11.602913
v -0.000962 3.656515 -10.734389
v 0.120099 3.866083 -10.517580
v 0.120256 3.257129 -8.195844
v -0.010176 3.110833 -7.877957
v 0.120256 3.735450 -10.017141
v -0.000000 3.866089 -10.514578
v 0.120256 3.496289 -9.106493
v 0.150274 3.870304 -13.311189
v -0.000000 3.707870 -13.659739
v -0.000000 3.850791 -4.509224
v 0.000015 3.266248 -6.823164
v -0.000000 2.589976 13.659739
v 0.120256 2.164604 -13.204415
v 0.029211 3.862017 -0.897710
v 0.009617 3.874130 6.499481
v 0.111951 3.868074 10.043206
v 0.006070 0.463497 10.472466
v 0.079167 0.460078 7.035551
v 0.008222 0.456319 2.981718
v 0.014073 0.465247 -0.580629
v 0.119594 0.461649 -11.592968
v 0.003981 1.765618 10.821568
v -0.000855 2.578479 8.892357
v -0.006170 2.126210 0.165673
v 0.005581 2.990619 -1.853669
v -0.000000 3.440718 10.017142
v -0.008143 3.435201 -0.641277
v 0.000258 1.335944 12.122849
v 0.119401 2.149264 4.535766
v 0.118978 1.920665 -2.851445
v 0.008973 1.753929 -12.116993
v 0.000534 1.314616 13.670397
v 0.100695 2.981747 -13.656864
v -0.000000 3.149455 13.659739
v 0.000000 0.888491 -13.659739
v 0.126067 3.865416 -0.116426
v 0.119362 3.866034 5.444950
v 0.019648 0.462892 4.719633
v 0.005327 0.464996 3.869783
v 0.120256 0.463120 -6.374544
v 0.001542 0.461197 -7.158915
v 0.013602 2.192974 12.696212
v 0.124113 2.181557 11.142961
v 0.008403 2.130876 5.543694
v 0.119640 2.186282 1.917912
v 0.007431 2.992895 -2.750466
v 0.115372 2.181555 -5.167944
v 0.121752 1.530615 -8.461609
v 0.056842 2.163043 -10.389844
v 0.064220 3.038255 10.430929
v 0.121616 2.276753 6.401484
v 0.072099 2.968817 -7.501242
v 0.097916 0.807610 2.434323
v 0.117164 0.936052 0.931706
v -0.003794 0.885434 -1.162383
v 0.112875 1.139260 -8.664605
v 0.118447 1.288351 -9.777451
v 0.002349 0.880708 -12.202036
v 0.026964 1.607486 -10.187211
v 0.081266 1.676824 -11.257036
v 0.116730 1.061770 -10.930540
v -0.003752 0.886805 -9.291185
v 0.120314 1.349691 -4.719295
v 0.000470 1.731318 -4.046968
v 0.074320 0.784888 -3.445782
v 0.125729 1.599468 -2.099282
v 0.117221 1.292859 -1.492825
v 0.122800 0.462424 -1.967569
v 0.139328 1.596403 -0.694720
v 0.000372 0.905208 0.101301
v 0.118922 1.340879 1.656430
v 0.032440 0.994566 1.739452
v 0.009175 1.993903 3.125703
v -0.000073 0.941470 3.438475
v 0.000616 1.156672 5.518959
v 0.002097 1.276961 6.625082
v -0.004360 1.394057 7.427016
v -0.001943 1.316530 8.280046
v 0.002531 0.916652 9.743472
v 0.015611 2.150512 9.543347
v 0.095231 1.576239 9.455244
v 0.000484 0.897359 11.396432
v 0.118950 0.892146 13.656022
v 0.117285 2.268152 -7.351252
v -0.007730 2.619763 -6.218399
v 0.113617 3.429831 -4.307340
v 0.113464 3.309617 -2.802429
v 0.049447 3.894871 0.397645
v 0.121899 2.576597 -0.270776
v 0.118897 3.086114 2.749923
v 0.000312 2.580119 1.293866
v -0.001244 3.003287 3.856806
v -0.005213 3.013731 5.686664
v -0.000000 2.589976 5.463896
v 0.123694 3.028092 11.182322
v 0.115861 2.566244 10.629366
v -0.000000 3.440718 -12.749090
v -0.000000 3.756795 -1.500247
v 0.120256 2.809893 4.742465
v 0.120256 2.794861 12.365370
v -0.000000 2.595690 12.719970
v 0.010034 2.941098 8.192685
v -0.000000 3.460259 11.383117
v 0.120256 3.015347 8.005692
v 0.120256 3.784836 7.200132
v -0.000000 3.359465 7.645442
v 0.120256 3.819812 9.158999
v -0.000000 3.440718 4.146059
v 0.120256 2.650493 4.578446
v 0.120256 2.855947 4.466028
v -0.000404 3.386289 2.263275
v 0.120256 3.706100 1.366593
v 0.120256 3.280729 1.821299
v 0.120256 3.866089 0.911269
v -0.004900 3.424825 8.712554
v 0.113005 3.079255 11.926450
v 0.158214 3.870574 7.063588
v 0.120483 3.015347 5.123966
v -0.000000 3.866089 10.400588
v -0.000000 3.331424 -1.821299
v 0.120076 2.616916 12.751771
v 0.001934 2.604771 4.601272
v 0.121388 2.571481 12.738344
v 0.001528 3.704446 7.288062
v 0.113058 3.020324 8.251196
v -0.000000 2.952608 -11.885815
v -0.000000 3.440718 -12.254390
v 0.120256 3.171296 -7.869018
v -0.000000 3.800769 -10.265860
v -0.000000 3.376709 -8.651168
v -0.000000 3.615870 -9.561817
v 0.120256 3.786980 -13.512432
v 0.120256 3.724787 -5.008572
v 0.120255 3.845208 -4.531882
v 0.023042 2.506907 -11.205726
v 0.052941 3.156309 -6.736917
v -0.004553 3.181928 -8.612648
v 0.120256 3.361609 -13.659739
v 0.120256 3.236602 -10.927791
v -0.000000 3.689021 -4.075911
v -0.001135 3.357564 -9.828105
v 0.118332 3.865104 -12.611992
v -0.004320 1.547896 -12.886491
v -0.002947 2.445454 11.717838
v 0.055584 2.785762 9.661048
v -0.000000 2.589976 -8.651168
v 0.120256 0.463120 13.659739
v 0.121176 1.671726 12.542356
v 0.016850 0.464505 6.266664
v 0.110946 1.760360 5.578331
v 0.054190 0.905600 4.042941
v 0.021380 2.068311 4.123653
v 0.120937 1.706142 0.418809
v -0.006332 2.158735 -1.170134
v 0.046154 1.378436 -2.626316
v 0.119846 0.885748 -6.069690
v 0.120256 1.739233 -5.919220
v -0.007640 2.110113 -7.740518
v 0.123582 2.167104 -9.615840
v 0.118828 0.460401 -10.670358
v 0.083517 2.099525 -10.080854
v 0.119507 0.898153 -7.624575
v 0.120007 0.887611 -4.191882
v 0.094864 1.026936 4.807235
v 0.056914 0.741248 6.663496
v 0.115479 0.885717 8.401786
v 0.118529 0.461631 11.521584
v 0.056701 2.526103 -2.396942
v -0.011190 3.012986 7.040491
vn -0.9660 -0.1425 -0.2156
vn -0.9941 -0.0769 0.0759
vn -0.6857 0.6506 0.3265
vn -0.9872 0.1387 0.0781
vn -0.0082 0.4635 0.8861
vn -0.9963 -0.0005 0.0859
vn -0.9905 0.0847 -0.1080
vn -0.9898 -0.1122 -0.0874
vn -0.9948 -0.0136 0.1008
vn -0.2812 0.7726 -0.5692
vn -0.9929 0.0734 0.0935
vn -0.9998 0.0219 0.0000
vn -0.9997 -0.0254 -0.0018
vn -0.9481 -0.2595 -0.1836
vn -0.9751 -0.2160 -0.0507
vn -0.9903 -0.1248 -0.0613
vn -0.9915 0.0045 0.1301
vn -0.9969 0.0518 0.0592
vn -0.9733 -0.1910 -0.1274
vn -0.9990 -0.0282 -0.0340
vn -0.9963 0.0118 0.0848
vn -0.9972 0.0096 0.0735
vn -1.0000 -0.0080 -0.0040
vn -0.9973 -0.0403 0.0618
vn -0.9577 0.2085 -0.1982
vn -0.9645 -0.0294 -0.2624
vn -0.9589 0.0765 0.2733
vn -0.7776 -0.4340 0.4549
vn -0.1253 -0.6186 -0.7756
vn -0.9954 0.0672 -0.0689
vn -0.9235 -0.3723 0.0921
vn -0.9998 0.0148 0.0100
vn -0.9707 -0.2003 0.1327
vn -0.0944 -0.8242 -0.5583
vn -0.9771 -0.0487 -0.2071
vn -0.9008 -0.4082 -0.1484
vn -0.7145 -0.6407 0.2813
vn -0.6686 0.5995 -0.4400
vn -0.9355 0.0069 -0.3531
vn -0.9854 0.0732 -0.1534
vn -0.9717 0.0556 0.2298
vn -0.9832 -0.1522 -0.1011
vn -0.9728 0.0599 -0.2236
vn -0.9899 0.0306 0.1384
vn -0.9800 0.1583 0.1208
vn -0.9624 -0.0292 0.2701
vn -0.9943 0.0180 -0.1047
vn -1.0000 0.0040 -0.0078
vn -0.9812 0.1736 0.0842
vn -1.0000 -0.0031 -0.0042
vn -0.9999 -0.0008 -0.0141
vn -1.0000 0.0027 -0.0020
vn -0.9915 0.0442 -0.1221
vn -0.9801 -0.1549 0.1241
vn -0.9979 0.0329 0.0558
vn -0.9941 0.0482 -0.0975
vn -0.9898 0.1418 0.0157
vn -0.9552 -0.2747 -0.1102
vn -0.9999 0.0114 0.0087
vn -0.9997 0.0157 -0.0162
vn -0.9663 -0.2455 0.0778
vn -0.9725 -0.1836 0.1436
vn -0.9668 -0.2556 -0.0061
vn -0.9856 0.0036 -0.1689
vn -0.9695 0.2367 -0.0632
vn -0.9802 -0.1747 0.0936
vn -0.9963 -0.0815 -0.0259
vn -0.9999 0.0010 -0.0135
vn -0.9681 0.1597 0.1929
vn -0.9021 -0.4080 0.1405
vn -0.9829 -0.1084 0.1490
vn -1.0000 -0.0072 -0.0012
vn -0.9585 0.1146 0.2611
vn -0.9854 -0.0895 0.1449
vn -0.9951 -0.0421 -0.0893
vn -0.9413 0.3351 0.0402
vn -0.9620 -0.2731 0.0071
vn -0.9677 0.2507 -0.0247
vn -0.9754 0.1545 -0.1573
vn -0.9653 -0.2264 0.1299
vn -0.9935 0.0857 -0.0753
vn -0.9879 -0.1352 -0.0761
vn -0.9976 0.0437 -0.0528
vn -0.7539 0.3442 0.5596
vn -0.9684 -0.2068 -0.1393
vn -0.9829 0.1330 -0.1271
vn -0.9707 0.1824 -0.1563
vn -0.9799 -0.1982 0.0247
vn -0.9941 -0.0761 0.0777
vn -0.9702 0.2421 0.0119
vn -0.9870 -0.0029 -0.1605
vn -0.9997 -0.0121 0.0214
vn -0.9864 0.1081 -0.1237
vn -0.4136 -0.8057 -0.4240
vn -0.9977 0.0058 -0.0677
vn -0.9979 0.0049 -0.0640
vn -0.9814 -0.1761 0.0765
vn -0.9601 0.2797 0.0069
vn -0.9958 -0.0896 -0.0171
vn -0.9728 -0.0992 -0.2095
vn -0.9826 -0.1848 -0.0183
vn 0.9522 0.2582 0.1633
vn -0.9548 -0.2545 -0.1535
vn -0.9927 0.1120 -0.0452
vn -0.9963 0.0282 0.0809
vn -0.9961 0.0791 -0.0380
vn -0.9764 0.1396 -0.1647
vn -0.9887 0.0936 -0.1168
vn -0.9946 -0.0478 0.0921
vn -0.9987 0.0091 -0.0501
vn -0.9846 -0.0898 0.1499
vn -0.9901 0.0183 0.1389
vn -0.9588 0.2840 -0.0052
vn -0.9983 0.0572 0.0053
vn -0.9934 -0.0708 0.0898
vn -0.9831 0.1649 0.0793
vn -0.9104 -0.0266 0.4129
vn -1.0000 0.0047 -0.0002
vn -0.9989 -0.0302 -0.0363
vn -0.9956 -0.0342 0.0873
vn -0.9722 0.1609 0.1701
vn -0.9997 -0.0114 -0.0232
vn -0.9999 -0.0143 -0.0038
vn -0.9926 -0.0681 -0.1001
vn -0.9887 0.0210 -0.1486
vn -0.9932 0.0089 -0.1160
vn -0.9993 -0.0020 0.0384
vn -0.9802 0.1770 -0.0885
vn -0.9775 0.1754 -0.1169
vn -0.9989 -0.0390 0.0277
vn -0.9853 -0.1454 0.0896
vn -0.9826 0.1853 -0.0133
vn -0.9954 0.0760 -0.0581
vn -0.9976 0.0239 -0.0649
vn -0.9999 -0.0086 0.0096
vn -0.5113 0.8569 -0.0663
vn -0.1985 -0.2830 0.9383
vn -0.9971 0.0081 0.0754
vn -0.9907 -0.0238 0.1337
vn -0.9783 -0.1878 -0.0872
vn -0.9978 0.0657 0.0130
vn -0.9998 0.0147 -0.0151
vn -0.9602 0.2558 0.1123
vn -0.9674 -0.2144 -0.1346
vn -0.9999 0.0141 -0.0036
vn -0.8900 -0.4492 0.0785
vn -0.9924 -0.0707 -0.1009
vn -0.8708 -0.4846 -0.0833
vn -0.8919 0.1067 0.4394
vn -1.0000 0.0070 -0.0063
vn -0.9625 -0.1477 0.2274
vn -0.9995 -0.0314 -0.0080
vn -0.9997 0.0111 0.0206
vn -0.9638 0.0432 0.2630
vn -0.9926 0.0735 0.0969
vn -0.9942 -0.0438 0.0983
vn -0.9768 0.0996 -0.1895
vn -0.9873 0.1287 -0.0935
vn -0.6487 -0.3547 0.6733
vn -0.9920 -0.0679 0.1060
vn -0.9897 -0.0898 0.1118
vn -1.0000 -0.0005 -0.0022
vn -0.8727 0.4483 -0.1936
vn -0.9961 0.0722 0.0513
vn -1.0000 0.0044 -0.0056
vn -0.9881 0.1149 0.1027
vn -0.9876 -0.0491 0.1493
vn -0.9946 -0.1036 0.0018
vn -0.9946 0.0105 -0.1037
vn -0.9876 -0.1093 0.1126
vn -0.9543 -0.2985 -0.0127
vn -0.9678 0.2509 -0.0220
vn -0.9954 0.0728 -0.0629
vn -0.9989 -0.0382 0.0253
vn -0.9757 -0.1560 -0.1537
vn -0.9727 0.0770 0.2187
vn -0.9913 -0.1164 0.0612
vn -0.9897 0.1429 0.0087
vn -0.9998 -0.0086 0.0196
vn -0.9814 -0.1537 0.1151
vn -0.9965 -0.0693 -0.0472
vn -0.9916 0.1287 -0.0110
vn -0.9999 0.0133 0.0046
vn -0.9829 -0.0890 0.1613
vn -0.9929 0.1161 0.0253
vn -0.9954 0.0229 -0.0929
vn -0.9675 0.1929 -0.1633
vn -0.9932 0.0061 0.1161
vn -0.9998 0.0106 0.0138
vn -0.9999 -0.0043 0.0096
vn -0.9472 0.2757 0.1634
vn -0.9998 0.0201 -0.0073
vn -1.0000 -0.0015 -0.0021
vn -0.9863 0.0949 0.1352
vn -0.9702 0.1153 -0.2131
vn -0.9859 -0.1485 -0.0770
vn -0.9908 -0.1146 -0.0718
vn -1.0000 -0.0008 0.0000
vn -0.9908 0.0914 -0.1003
vn -0.9856 -0.1385 -0.0970
vn -1.0000 0.0008 0.0001
vn -0.9911 -0.0526 -0.1227
vn -0.9868 0.0724 0.1451
vn -0.9814 0.0998 -0.1641
vn -0.9999 -0.0103 -0.0005
vn -0.9738 0.1931 -0.1200
vn -0.9999 0.0109 0.0005
vn -0.9850 -0.0951 0.1440
vn -0.9440 0.1531 -0.2924
vn -0.9926 0.0987 0.0712
vn -0.9985 -0.0540 0.0021
vn -0.9954 0.0934 0.0220
vn -0.9963 -0.0242 0.0823
vn -0.9987 -0.0404 0.0323
vn -0.9842 -0.0194 0.1761
vn -1.0000 -0.0038 -0.0008
vn -0.9998 0.0173 0.0104
vn -0.9940 -0.0816 -0.0721
vn -0.9886 0.0136 -0.1502
vn -0.9857 0.1210 0.1177
vn -0.9912 0.1012 -0.0852
vn -0.9732 -0.2017 0.1106
vn -0.9698 0.2141 -0.1172
vn -0.9956 -0.0938 0.0003
vn -0.9999 -0.0142 -0.0031
vn -0.9966 0.0782 -0.0253
vn -0.9976 -0.0429 0.0535
vn -0.9999 0.0109 -0.0112
vn -0.9671 -0.2324 0.1033
vn -0.9655 -0.2230 0.1343
vn -0.9939 -0.0423 0.1019
vn -0.9845 -0.1530 0.0857
vn -0.9992 0.0171 0.0366
vn -0.9386 0.2928 0.1824
vn -0.9896 0.0805 -0.1188
vn -0.9941 -0.0022 -0.1082
vn -0.9941 0.0164 -0.1075
vn -0.9869 -0.0428 -0.1558
vn -0.9748 0.1707 0.1435
usemtl None
s off
f 82//1 17//1 102//1
f 165//2 119//2 35//2
f 194//3 171//3 92//3
f 104//4 1//4 13//4 16//4
f 62//5 191//5 178//5
f 228//6 118//6 230//6
f 143//7 122//7 88//7
f 231//8 227//8 117//8
f 134//9 99//9 133//9
f 224//10 134//10 23//10
f 108//11 220//11 143//11
f 233//12 219//12 98//12
f 107//13 218//13 144//13
f 152//14 101//14 217//14
f 118//15 204//15 28//15
f 117//16 215//16 43//16
f 113//17 120//17 163//17
f 149//18 214//18 92//18
f 112//19 213//19 165//19
f 14//20 102//20 48//20 166//20 18//20 77//20 201//20 78//20 207//20
f 95//21 119//21 164//21 57//21 188//21 85//21
f 179//22 63//22 161//22 26//22 221//22 98//22 191//22 62//22
f 206//23 210//23 43//23
f 44//24 73//24 197//24 72//24 206//24 34//24 121//24
f 200//25 74//25 210//25
f 199//26 76//26 206//26
f 72//27 199//27 206//27
f 42//28 208//28 70//28
f 68//29 196//29 211//29
f 45//30 205//30 33//30
f 80//31 205//31 45//31
f 193//32 238//32 175//32
f 175//33 238//33 173//33
f 54//34 172//34 185//34
f 194//35 92//35 184//35
f 180//36 65//36 182//36
f 190//37 15//37 103//37
f 190//38 103//38 55//38
f 17//39 82//39 212//39
f 29//40 164//40 213//40
f 30//41 162//41 120//41
f 30//42 84//42 106//42
f 93//43 157//43 158//43
f 31//44 3//44 157//44
f 96//45 105//45 83//45
f 158//46 105//46 96//46
f 115//47 46//47 27//47
f 116//48 155//48 202//48
f 215//49 34//49 43//49
f 216//50 152//50 217//50
f 101//51 2//51 111//51
f 151//52 97//52 91//52
f 41//53 91//53 35//53
f 35//54 149//54 150//54
f 235//55 21//55 5//55
f 147//56 92//56 25//56
f 147//57 25//57 146//57
f 219//58 113//58 98//58
f 143//59 26//59 142//59
f 122//60 36//60 140//60
f 114//61 93//61 222//61
f 123//62 139//62 6//62
f 138//63 93//63 223//63
f 139//64 93//64 138//64
f 124//65 138//65 136//65
f 138//66 223//66 136//66
f 135//67 94//67 99//67
f 137//68 136//68 135//68
f 133//69 27//69 10//69
f 132//70 40//70 225//70
f 109//71 225//71 110//71
f 39//72 116//72 153//72
f 39//73 153//73 227//73
f 39//74 227//74 231//74
f 229//75 128//75 130//75
f 131//76 125//76 126//76
f 225//77 40//77 37//77
f 23//78 134//78 232//78
f 144//79 233//79 107//79
f 150//80 147//80 235//80
f 150//81 235//81 20//81
f 117//82 43//82 228//82
f 154//83 45//83 33//83
f 237//84 156//84 115//84
f 158//85 96//85 32//85
f 47//86 31//86 160//86
f 26//87 36//87 142//87
f 25//88 238//88 120//88
f 164//89 119//89 165//89
f 17//90 48//90 102//90
f 13//91 212//91 16//91
f 82//92 102//92 16//92
f 165//93 35//93 91//93
f 56//94 92//94 171//94
f 168//95 191//95 98//95 113//95 163//95 162//95 187//95 52//95
f 123//96 6//96 22//96 141//96
f 160//97 93//97 114//97
f 93//98 158//98 223//98
f 237//99 99//99 94//99
f 42//100 67//100 204//100
f 28//101 204//101 12//101
f 67//102 42//102 69//102
f 86//103 148//103 4//103
f 20//104 235//104 5//104
f 234//105 218//105 87//105
f 9//106 110//106 231//106 125//106
f 232//107 8//107 23//107
f 126//108 229//108 24//108 131//108
f 100//109 38//109 90//109 129//109
f 130//110 128//110 230//110 129//110
f 229//111 126//111 228//111 128//111
f 131//112 24//112 9//112 125//112
f 39//113 37//113 40//113 226//113
f 22//114 88//114 122//114 141//114
f 224//115 23//115 7//115
f 135//116 99//116 224//116
f 222//117 93//117 139//117
f 140//118 222//118 123//118
f 20//119 4//119 148//119 150//119
f 221//120 143//120 220//120
f 218//121 219//121 144//121
f 151//122 91//122 41//122
f 189//123 94//123 32//123 96//123 83//123 50//123 167//123 61//123
f 223//124 94//124 135//124
f 157//125 105//125 158//125
f 19//126 49//126 51//126 64//126 159//126 161//126
f 184//127 92//127 214//127 119//127 95//127 85//127 60//127 176//127 59//127
f 192//128 111//128 2//128 81//128 15//128 190//128
f 94//129 189//129 61//129 156//129
f 100//130 212//130 38//130
f 127//131 13//131 90//131
f 46//132 115//132 156//132 58//132
f 238//133 193//133 174//133 186//133 84//133 30//133
f 31//134 47//134 182//134 65//134 181//134 66//134 183//134 3//134
f 56//135 173//135 238//135 25//135 92//135
f 185//136 164//136 29//136
f 192//137 190//137 170//137
f 111//138 192//138 169//138 29//138 213//138 217//138
f 48//139 68//139 211//139 166//139
f 209//140 79//140 203//140 155//140 46//140 58//140
f 195//141 68//141 48//141 17//141 12//141 204//141 67//141
f 208//142 42//142 118//142 43//142 210//142 74//142 198//142 75//142 71//142 70//142
f 210//143 206//143 76//143 200//143
f 164//144 185//144 172//144 57//144
f 202//145 155//145 203//145
f 206//146 43//146 34//146
f 44//147 33//147 205//147
f 44//148 205//148 80//148
f 18//149 166//149 211//149
f 19//150 161//150 177//150
f 177//151 161//151 63//151
f 159//152 180//152 182//152 47//152
f 212//153 13//153 127//153 38//153
f 64//154 180//154 159//154
f 17//155 212//155 100//155 12//155
f 149//156 35//156 119//156 214//156
f 82//157 16//157 212//157
f 164//158 165//158 213//158
f 53//159 52//159 187//159 106//159
f 162//160 163//160 120//160
f 47//161 160//161 114//161 159//161
f 30//162 106//162 187//162
f 30//163 187//163 162//163
f 157//164 93//164 160//164 31//164
f 36//165 159//165 114//165
f 94//166 223//166 158//166 32//166
f 45//167 154//167 116//167 202//167
f 237//168 115//168 99//168
f 153//169 154//169 33//169 44//169
f 117//170 11//170 121//170 215//170
f 116//171 154//171 153//171
f 121//172 34//172 215//172
f 91//173 97//173 213//173 112//173
f 118//174 42//174 204//174
f 101//175 111//175 217//175
f 217//176 213//176 97//176
f 21//177 235//177 147//177 146//177
f 35//178 150//178 148//178
f 149//179 92//179 147//179
f 149//180 147//180 150//180
f 21//181 146//181 87//181
f 145//182 146//182 25//182 120//182
f 219//183 145//183 120//183 113//183
f 145//184 218//184 234//184
f 108//185 107//185 233//185 220//185
f 145//186 219//186 218//186
f 219//187 233//187 144//187
f 221//188 220//188 233//188 98//188
f 221//189 26//189 143//189
f 133//190 99//190 115//190 27//190
f 122//191 140//191 141//191
f 36//192 114//192 222//192
f 36//193 222//193 140//193
f 123//194 222//194 139//194
f 136//195 137//195 124//195
f 89//196 124//196 137//196
f 223//197 135//197 136//197
f 225//198 109//198 8//198 232//198
f 99//199 134//199 224//199
f 134//200 133//200 132//200
f 232//201 132//201 225//201
f 116//202 132//202 133//202 10//202
f 132//203 116//203 40//203
f 39//204 231//204 110//204 37//204
f 226//205 116//205 39//205
f 116//206 226//206 40//206
f 228//207 126//207 125//207 117//207
f 37//208 110//208 225//208
f 227//209 11//209 117//209
f 228//210 230//210 128//210
f 129//211 230//211 118//211 28//211
f 100//212 129//212 28//212 12//212
f 7//213 137//213 135//213 224//213
f 130//214 129//214 90//214
f 90//215 38//215 127//215
f 130//216 90//216 229//216
f 231//217 117//217 125//217
f 134//218 132//218 232//218
f 36//219 122//219 143//219 142//219
f 89//220 138//220 124//220
f 139//221 138//221 89//221
f 139//222 89//222 6//222
f 140//223 123//223 141//223
f 234//224 87//224 146//224 145//224
f 108//225 143//225 88//225
f 148//226 86//226 41//226 35//226
f 236//227 216//227 217//227 97//227
f 151//228 41//228 86//228
f 151//229 86//229 236//229
f 97//230 151//230 236//230
f 11//231 153//231 44//231 121//231
f 43//232 118//232 228//232
f 155//233 10//233 27//233 46//233
f 153//234 11//234 227//234
f 10//235 155//235 116//235
f 159//236 36//236 26//236 161//236
f 94//237 156//237 237//237
f 238//238 30//238 120//238
f 112//239 165//239 91//239
