# Blender v2.78 (sub 5) OBJ File: 'derevo.blend'
# www.blender.org
mtllib drv3.mtl
o Cube.000_Cube.003
v -13.847451 71.329338 1.978134
v 14.196058 73.457016 4.344992
v 3.877222 77.453583 14.269817
v -5.514338 66.915779 -12.944745
v 3.477559 103.486069 7.921624
v 9.352713 67.121605 -11.984868
v -5.244072 82.946396 13.593622
v -8.487181 93.645142 7.190125
v -3.768886 96.574715 -7.847549
v -14.351433 78.667931 2.761684
v 10.335543 86.314857 -2.926761
v 6.315227 85.567490 12.303212
v -8.790961 87.089394 -7.710556
v -7.353348 73.601402 -13.110442
v 7.753868 74.302818 -12.430726
v 14.525843 77.721214 1.194562
v 4.362351 82.595543 -13.215750
v -8.329241 89.726616 11.073624
v -11.888148 81.796280 -6.813336
v 6.137157 94.370560 11.194710
v 3.981431 -0.482061 0.753603
v -1.974187 -0.468461 3.520614
v -2.010461 -0.714529 -2.980229
v -0.822445 75.178070 -0.992390
v 1.460475 75.055756 -0.240700
v -0.240669 75.356064 1.531269
v -15.695229 63.210526 11.356318
v -1.708006 53.371479 -17.335535
v 16.008577 55.439045 -11.970044
v -17.244118 56.785049 -5.966068
v -2.462705 63.343513 19.432901
v 6.968278 66.837204 17.312311
v -4.810047 64.508430 -16.921667
v -8.722400 58.400009 -17.607069
v 15.694666 66.077621 1.051185
v 2.741602 73.372253 -13.689397
v 11.938269 71.051666 11.137143
v -11.249896 73.641769 9.140777
v 18.264496 61.011436 7.546518
v -11.340956 70.408722 15.101857
v -15.035501 66.855568 -2.540965
v 7.900769 64.259544 -15.611533
v 1.722272 76.854042 14.835074
v -11.850766 47.693092 2.512456
v -2.367730 59.942215 -13.608751
v 11.943631 50.172436 -6.324736
v 3.385806 46.372578 10.374188
v 3.065699 86.133354 9.341740
v -5.591559 55.101089 11.343412
v -6.130843 80.228539 7.664868
v -0.066071 88.149559 -5.737429
v -3.816985 78.537010 -8.826003
v 9.212301 64.831825 -8.871363
v 2.646742 60.626614 12.377250
v -10.012327 63.651173 -7.916814
v 8.665260 72.448753 -4.734958
v 11.026106 55.682617 4.164826
v -5.949597 67.487915 10.842935
v -9.848500 71.635300 -0.731674
v 5.576985 70.917511 11.099007
v -1.452290 52.944138 3.152710
v -1.712439 15.861611 0.145711
v 0.434701 16.491472 -0.050583
v -1.548820 52.175827 4.324286
v -0.653835 52.949326 3.226595
v -0.495412 14.818570 2.185810
v -6.916539 94.971100 1.958254
v 1.037751 99.058655 6.667283
v -4.331438 102.511719 3.989062
v -4.138497 96.928871 -5.348876
v 4.139065 96.809502 -3.338762
v -4.639268 88.539787 -5.216660
v 2.762938 88.547203 -5.663189
v 6.513485 94.072746 1.318319
v 2.113399 105.840401 4.144565
v -1.220736 64.138763 -3.829367
v -1.634980 3.129130 -2.218300
v -1.987196 64.940796 -3.392121
v -1.068701 66.146774 -2.831172
v -0.180205 6.121026 -0.559227
v 0.415745 3.060143 -2.646716
vn 0.0950 -0.9389 0.3308
vn -0.6327 0.7729 -0.0480
vn 0.8311 0.1482 -0.5360
vn 0.9649 0.0519 0.2573
vn 0.0473 -0.0514 -0.9976
vn -0.0106 -0.9312 0.3644
vn 0.9207 0.1836 -0.3443
vn 0.6868 -0.0303 0.7262
vn 0.0592 0.2183 0.9741
vn 0.9444 0.3124 0.1026
vn -0.8698 0.4579 -0.1837
vn -0.2671 0.2557 0.9291
vn 0.6109 0.5826 -0.5361
vn 0.0483 -0.0745 -0.9960
vn 0.1383 0.9030 -0.4067
vn -0.9995 -0.0140 0.0265
vn -0.7355 -0.1217 0.6665
vn 0.8553 0.2634 0.4461
vn 0.8253 0.2918 -0.4834
vn -0.9116 -0.2592 -0.3192
vn -0.8591 0.5089 -0.0547
vn -0.3474 0.4429 -0.8265
vn -0.0480 0.1238 0.9911
vn -0.8749 -0.2509 -0.4143
vn 0.0645 -0.0070 -0.9979
vn -0.0104 -0.9313 0.3642
vn -0.3646 -0.5094 0.7795
vn 0.2350 -0.1383 -0.9621
vn -0.3684 0.0583 -0.9278
vn -0.2246 0.6814 0.6966
vn -0.8657 0.4983 -0.0487
vn -0.9172 -0.0205 -0.3979
vn 0.8760 -0.3285 -0.3530
vn -0.7438 -0.0924 0.6619
vn 0.0232 0.3575 0.9336
vn 0.8213 0.5166 0.2421
vn -0.0208 -0.9650 0.2613
vn 0.6123 0.7754 -0.1543
vn 0.4668 0.8797 -0.0907
vn -0.1862 0.9745 -0.1256
vn 0.1033 0.0453 -0.9936
vn -0.2084 -0.9108 0.3565
vn 0.2457 0.2928 -0.9241
vn 0.0462 -0.9619 0.2693
vn 0.0813 0.7916 0.6057
vn -0.9477 0.2863 0.1408
vn 0.8328 -0.3063 0.4612
vn 0.7545 0.5134 -0.4089
vn 0.7620 0.5941 -0.2577
vn 0.1919 -0.2186 -0.9568
vn -0.7241 0.5152 -0.4586
vn -0.9728 0.1547 0.1726
vn -0.5026 -0.7264 -0.4687
vn 0.0331 -0.9644 0.2622
vn 0.3707 -0.5436 0.7531
vn -0.4933 0.8120 -0.3119
vn 0.1040 0.2613 -0.9596
vn -0.3915 0.8114 0.4341
vn -0.8147 0.5637 -0.1363
vn -0.5579 0.6592 -0.5043
vn 0.6317 0.7124 0.3057
vn 0.9064 -0.0735 -0.4159
vn -0.5157 -0.1288 0.8470
vn -0.0013 0.5214 0.8533
vn -0.7325 0.3577 -0.5792
vn 0.1682 -0.3020 0.9384
vn 0.1951 -0.8328 -0.5180
vn -0.2253 0.0750 0.9714
vn 0.9923 0.1059 -0.0638
vn -0.0639 0.1409 0.9880
vn 0.3728 0.1488 -0.9159
vn -0.8784 0.3282 0.3473
vn -0.6630 -0.3545 -0.6594
vn 0.4069 -0.0822 -0.9098
vn 0.8259 -0.4662 0.3171
vn -0.4266 -0.5209 0.7394
vn -0.3784 -0.8416 -0.3854
vn 0.9616 0.1824 0.2052
vn 0.8711 0.4769 -0.1171
vn -0.8610 0.4255 -0.2787
vn -0.0470 -0.0414 -0.9980
vn 0.4680 0.4475 -0.7621
vn -0.1479 0.0357 0.9884
vn -0.9372 0.0718 0.3414
vn 0.3286 -0.6227 0.7101
vn -0.0787 0.7836 -0.6163
vn 0.9542 -0.2516 0.1618
vn -0.9477 -0.2025 0.2467
vn 0.9833 0.1816 -0.0094
vn 0.3718 0.2843 0.8837
vn -0.5551 0.8015 0.2225
vn -0.8694 0.4821 -0.1085
vn -0.0928 0.2397 0.9664
vn -0.9763 -0.0195 0.2154
vn 0.7516 0.3887 0.5329
vn -0.8696 0.3400 -0.3580
vn 0.0401 -0.7576 0.6515
vn -0.3940 0.7852 -0.4776
vn -0.0105 -0.7463 0.6656
vn 0.1879 0.6513 -0.7352
vn -0.2130 0.3701 0.9042
vn 0.7487 0.1235 0.6513
vn 0.8865 -0.0176 -0.4623
vn -0.9380 0.0506 -0.3430
vn -0.8963 0.3722 -0.2410
vn -0.0602 -0.0121 -0.9981
vn 0.2329 0.2272 -0.9456
vn -0.0688 -0.7639 0.6416
vn -0.4811 -0.0704 0.8738
vn 0.8931 0.3885 -0.2270
vn 0.3137 0.0200 -0.9493
vn -0.9745 0.0094 0.2240
vn 0.7215 0.0017 0.6924
vn 0.5287 0.0065 -0.8488
vn -0.9997 0.0230 0.0047
vn 0.4213 0.0260 0.9066
vn 0.0912 0.0919 -0.9916
vn -0.9972 0.0130 -0.0737
vn 0.7856 -0.0321 0.6179
vn -0.1143 0.0811 -0.9901
vn -0.8692 -0.0527 0.4916
vn 0.9223 0.0039 0.3865
vn -0.5105 -0.0192 -0.8596
vn -0.5336 0.0130 0.8457
vn 0.9860 0.0083 -0.1668
vn -0.2052 -0.0244 -0.9784
vn -0.7634 0.0131 0.6457
vn 0.9721 0.0306 0.2327
usemtl 1
s off
f 1//1 4//1 3//1
f 5//2 9//2 8//2
f 16//3 17//3 11//3
f 20//4 12//4 11//4
f 14//5 15//5 6//5
f 2//6 4//6 6//6
f 15//7 2//7 6//7
f 12//8 3//8 2//8
f 12//9 7//9 3//9
f 20//10 11//10 5//10
f 8//11 9//11 13//11
f 5//12 8//12 20//12
f 9//13 5//13 11//13
f 17//14 15//14 14//14
f 17//15 13//15 11//15
f 13//16 18//16 8//16
f 10//17 1//17 7//17
f 2//18 16//18 12//18
f 17//19 16//19 15//19
f 10//20 19//20 14//20
f 18//21 19//21 10//21
f 19//22 17//22 14//22
f 20//23 18//23 12//23
f 14//24 4//24 1//24
f 6//25 4//25 14//25
f 4//26 2//26 3//26
f 7//27 1//27 3//27
f 11//28 13//28 9//28
f 13//29 17//29 19//29
f 8//30 18//30 20//30
f 13//31 19//31 18//31
f 1//32 10//32 14//32
f 15//33 16//33 2//33
f 7//34 18//34 10//34
f 12//35 18//35 7//35
f 12//36 16//36 11//36
f 30//37 28//37 31//37
f 36//38 37//38 35//38
f 36//39 43//39 37//39
f 38//40 43//40 36//40
f 33//41 42//41 34//41
f 27//42 30//42 31//42
f 28//43 34//43 29//43
f 29//44 39//44 31//44
f 40//45 32//45 37//45
f 41//46 40//46 38//46
f 32//47 35//47 37//47
f 36//48 35//48 42//48
f 42//49 39//49 29//49
f 29//50 34//50 42//50
f 30//51 33//51 34//51
f 40//52 41//52 30//52
f 34//53 28//53 30//53
f 28//54 29//54 31//54
f 39//55 32//55 31//55
f 41//56 38//56 36//56
f 42//57 33//57 36//57
f 38//58 40//58 43//58
f 27//59 40//59 30//59
f 36//60 33//60 41//60
f 32//61 39//61 35//61
f 42//62 35//62 39//62
f 31//63 40//63 27//63
f 32//64 40//64 31//64
f 30//65 41//65 33//65
f 37//66 43//66 40//66
f 47//67 44//67 45//67
f 50//68 60//68 48//68
f 56//69 57//69 53//69
f 54//70 60//70 58//70
f 51//71 56//71 52//71
f 55//72 44//72 49//72
f 45//73 44//73 55//73
f 46//74 45//74 53//74
f 47//75 46//75 57//75
f 44//76 47//76 49//76
f 47//77 45//77 46//77
f 60//78 56//78 48//78
f 56//79 51//79 48//79
f 59//80 51//80 52//80
f 52//81 53//81 55//81
f 52//82 56//82 53//82
f 54//83 58//83 49//83
f 59//84 58//84 50//84
f 54//85 49//85 57//85
f 55//86 53//86 45//86
f 54//87 56//87 60//87
f 58//88 59//88 55//88
f 53//89 57//89 46//89
f 57//90 49//90 47//90
f 50//91 48//91 51//91
f 59//92 50//92 51//92
f 50//93 58//93 60//93
f 49//94 58//94 55//94
f 54//95 57//95 56//95
f 55//96 59//96 52//96
f 72//97 73//97 68//97
f 75//98 70//98 69//98
f 67//99 72//99 68//99
f 70//100 75//100 71//100
f 69//101 68//101 75//101
f 68//102 74//102 75//102
f 71//103 74//103 73//103
f 67//104 70//104 72//104
f 69//105 70//105 67//105
f 70//106 73//106 72//106
f 70//107 71//107 73//107
f 73//108 74//108 68//108
f 68//109 69//109 67//109
f 75//110 74//110 71//110
usemtl 2
f 25//111 23//111 24//111
f 23//112 26//112 24//112
f 22//113 25//113 26//113
f 25//114 21//114 23//114
f 23//115 22//115 26//115
f 22//116 21//116 25//116
f 65//117 63//117 61//117
f 61//118 62//118 64//118
f 64//119 63//119 65//119
f 63//120 62//120 61//120
f 62//121 66//121 64//121
f 64//122 66//122 63//122
f 76//123 77//123 78//123
f 77//124 79//124 78//124
f 80//125 76//125 79//125
f 81//126 77//126 76//126
f 77//127 80//127 79//127
f 80//128 81//128 76//128
