# Blender v2.79 (sub 0) OBJ File: ''
# www.blender.org
mtllib Utes.mtl
o Plane
v -1.013021 0.638028 1.136403
v 0.975888 0.055821 1.018532
v -1.027899 0.601762 -0.928647
v -1.011191 1.000281 0.757879
v 0.968543 0.071994 -0.582133
v -0.490368 0.931402 1.242699
v -0.460764 0.990248 0.284473
v -1.009156 0.886971 0.893387
v 0.760604 0.109642 1.036187
v 0.969828 0.074019 -0.743820
v -0.744643 0.961585 -0.744744
v -1.014221 0.837008 -0.018195
v -1.011136 0.808732 0.391011
v 0.979049 0.050397 -0.415567
v -0.748600 1.015925 1.167245
v 0.970237 0.068763 0.699289
v 0.595617 0.125108 -0.045097
v -0.175777 0.944160 0.703379
v 0.619439 0.102865 -0.233342
v 0.507179 0.150837 0.673256
v 0.983288 0.039923 -0.987180
v -0.871834 0.693602 -0.809889
v -1.005074 0.948036 0.094737
v -0.621547 0.953909 1.150314
v -0.017647 0.380432 -0.409303
v -0.485164 1.152683 0.859398
v -0.683921 1.017038 -0.753734
v -0.363728 0.992981 1.246286
v 0.195716 0.296794 -0.929878
v -1.010330 0.939573 -0.186002
v -1.004197 0.807442 0.236034
v -0.825861 0.962787 1.188013
v -0.995263 0.772495 -0.766891
v -0.467207 1.006253 0.083469
v -0.162665 0.698174 -0.525901
v 0.478209 0.146114 -0.069076
v 0.144473 0.315027 -0.568257
v -0.557695 0.881865 -0.054970
v -0.762287 0.946540 -0.682941
v -0.830936 0.980078 -0.503320
v -0.263987 1.045052 0.838247
v -0.107685 0.774686 0.804695
v -0.877032 1.017964 0.864349
v -0.758063 0.905461 0.352112
v 0.639553 0.097164 0.189925
v -0.411894 0.862424 0.460411
v -0.269769 0.860389 -0.536405
v -0.116859 0.840126 0.564868
v -0.322407 0.916621 0.684463
v -0.879697 1.044842 1.124711
v -0.638560 1.001288 -0.250585
v -0.933071 0.803388 -0.867171
v 0.010571 0.344041 1.057913
v 0.021050 0.379890 -0.922021
v -0.022848 0.390116 0.056421
v -0.441789 0.927967 -0.766303
v -0.562132 1.030247 1.195258
v -1.004524 0.966555 -0.345818
v 0.968463 0.072320 0.508485
v 0.374310 0.198495 0.597053
v -0.480138 0.843249 -0.286865
v -1.005260 0.930719 0.800645
v -0.275587 0.957510 1.199244
v -0.003771 0.395664 0.368595
v 0.191655 0.318195 0.023035
v -1.005123 0.749349 0.290531
v -0.216325 0.856523 -0.822931
v 0.710901 0.073278 -0.975601
v -1.011290 0.747473 -0.574644
v 0.979079 0.047947 0.836435
v -0.765220 1.062698 -0.366245
v 0.139499 0.331192 -0.433346
v -0.029211 0.372849 -0.099290
v 0.001177 0.334927 -0.732396
v -0.740890 0.964653 -0.320177
v -0.723285 0.966116 0.020278
v -0.769201 1.129220 0.967711
v -0.897603 0.867518 0.386675
v -0.768074 0.996367 0.408485
v 0.745398 0.079245 0.270237
v -0.276796 0.888148 0.451120
v -0.207520 0.687737 0.339109
v -0.209634 0.947785 -0.712355
v -1.016161 0.893524 1.034179
v -0.809353 0.843991 -0.765314
v -0.122206 0.680859 1.108398
v 0.957487 0.098196 0.102140
v -1.019032 0.889280 0.542361
v 0.450908 0.173582 1.049299
v -0.335617 0.966910 -0.761897
v -0.682645 0.972163 1.125553
v -0.088670 0.343101 -0.247955
v -1.007297 0.951995 -0.457196
v -0.517786 0.889013 0.313612
v -0.893301 1.062758 -0.301913
v 0.506965 0.139374 -0.554738
v -0.541318 0.919364 -0.810439
v -0.429338 0.975331 1.258275
v 0.024329 0.366939 -0.521050
v -1.008217 0.906471 -0.295436
v 0.059425 0.384121 0.495346
v -1.003616 0.902333 0.182675
v 0.136245 0.322009 1.063623
v 0.954057 0.105991 -0.081599
v -0.056161 0.429707 -0.899188
v -0.951521 0.701511 1.167403
v -0.482566 1.134475 0.699944
v -0.554633 0.960652 -0.280228
v 0.733033 0.125001 -0.586527
v -0.759267 0.997658 -0.165901
v -0.682469 0.945032 0.167771
v -0.804405 0.926677 -0.019451
v -0.493006 0.951904 -0.482385
v -0.745384 1.236637 0.875296
v -0.802872 0.974804 0.619906
v 0.772254 0.120808 0.634141
v 0.256997 0.326744 0.788442
v -0.413686 0.930448 -0.460294
v -0.329388 0.953501 -0.498297
v -0.398844 0.856127 0.311601
v 0.194768 0.302012 0.191175
v 0.227348 0.338117 0.365785
v 0.218498 0.349720 0.933713
v 0.089465 0.412763 0.895599
v 0.104802 0.388145 0.799092
v 0.069718 0.338981 0.646977
v -0.631342 0.928634 0.391567
v -0.657997 0.948277 0.601633
v -0.757751 0.945480 0.442692
v -0.570876 0.971720 0.591290
v -0.882684 0.849540 0.276822
v -0.682534 1.092994 0.964856
v -0.968366 0.889441 1.054975
v -0.877038 0.931943 0.704474
v -0.120982 0.660624 1.013398
v -0.356407 0.903171 1.123087
v -0.337778 1.063747 0.837210
v -0.298846 0.971458 0.905084
v -0.395864 1.147004 0.810644
v -0.604589 0.984338 -0.487253
v -0.668261 0.953960 -0.336389
v -0.511082 1.013252 -0.362693
v -0.929405 0.822314 -0.771902
v -0.582974 0.933364 0.130266
v -0.703342 0.995515 0.096179
v -0.919989 0.981376 -0.106213
v -0.131069 0.651114 0.004764
v -0.281062 0.882939 -0.039899
v -0.391790 0.999781 0.074230
v -0.305060 0.738660 -0.329063
v -0.001609 0.386154 -0.836815
v 0.767309 0.076049 -0.360170
v 0.203381 0.282259 -0.287984
v 0.191930 0.269418 -0.763539
v -0.558229 0.944533 -0.660178
v -0.585328 1.088710 0.687093
v -0.624043 1.189905 0.842236
v -0.570407 0.899099 0.265305
v -0.143161 0.518004 0.208834
v -0.033345 0.337743 0.201338
v 0.706659 0.121040 -0.767448
v -0.126449 0.653975 -0.630898
v -0.226557 0.938735 -0.647048
v -0.295893 0.933812 0.185609
v 0.811275 0.121295 0.097286
v -0.782016 0.876284 0.285037
v -0.600172 1.135130 0.998705
v -0.738438 1.214848 0.769934
v -0.659349 0.974932 -0.622027
v -0.217321 0.629474 -0.257294
v 0.188873 0.313998 -0.141631
v 0.802360 0.129205 -0.099507
v -0.449284 0.845321 -0.117028
v -0.418030 0.827488 -0.310984
v -0.807874 0.840369 0.127994
v -0.864087 0.708513 -0.671560
v -0.933474 0.745064 -0.645063
v -0.692918 0.960305 -0.527033
v -0.405109 1.041390 0.979840
v -0.480433 1.065469 1.115662
v -0.287785 0.894790 1.031711
v -0.819381 1.205583 0.850942
v -1.011074 0.789958 1.092902
v -0.913436 0.905728 0.339846
v -0.946111 0.962928 0.142141
v -0.911355 0.936566 0.516848
v 0.529222 0.152039 0.949572
v 0.979813 0.053592 0.319383
v -0.333356 0.771766 0.351557
v -0.400787 0.972783 0.311565
v -0.422738 0.861381 0.561795
v -0.408110 1.004547 -0.526358
v -0.342475 0.828862 -0.469948
v 0.566892 0.073865 -0.974743
v 0.604006 0.119625 0.395730
v 0.589318 0.118215 0.832463
v -0.842626 0.854121 0.023454
v -0.875647 1.005752 -0.275956
v 0.382464 0.166958 -0.650704
v 0.466964 0.109049 -0.836466
vn 0.6310 0.7110 0.3103
vn 0.7537 0.3878 0.5306
vn 0.8435 0.5332 -0.0648
vn 0.8228 0.4572 -0.3375
vn 0.9363 0.3105 0.1638
vn 0.8963 0.3962 -0.1991
vn 0.8114 0.3790 0.4449
vn 0.2348 0.9192 0.3160
vn 0.1634 0.9528 -0.2560
vn 0.9263 0.3685 -0.0787
vn 0.9247 0.3747 -0.0679
vn 0.7740 0.5725 -0.2707
vn 0.7935 0.5438 0.2732
vn 0.8763 0.4815 0.0164
vn 0.2826 0.5406 -0.7924
vn 0.5895 0.5397 -0.6010
vn 0.6202 0.7250 0.2995
vn 0.8665 0.4905 0.0924
vn 0.4384 0.8691 0.2290
vn 0.3225 0.8658 -0.3825
vn 0.9320 0.3571 0.0618
vn 0.8102 0.3959 -0.4322
vn 0.6476 0.6794 -0.3450
vn 0.3708 0.9275 -0.0484
vn 0.5215 0.3934 0.7572
vn 0.6992 0.4301 -0.5711
vn 0.4690 0.8708 -0.1476
vn 0.7832 0.5144 0.3492
vn 0.8003 0.4423 -0.4048
vn 0.2376 0.9643 -0.1166
vn 0.8252 0.4837 0.2916
vn 0.8557 0.3363 0.3933
vn 0.8471 0.3836 -0.3679
vn 0.9007 0.3325 0.2795
vn 0.9340 0.3300 0.1370
vn 0.7917 0.3082 0.5275
vn 0.8042 0.5031 -0.3164
vn 0.7979 0.5271 -0.2925
vn 0.2223 0.9572 -0.1855
vn 0.8302 0.4683 -0.3025
vn 0.8955 0.4070 0.1800
vn 0.8566 0.5068 -0.0969
vn 0.9340 0.3547 0.0422
vn 0.8398 0.4779 0.2578
vn 0.8317 0.5526 0.0542
vn 0.8978 0.4102 -0.1605
vn 0.8401 0.3833 -0.3839
vn 0.6522 0.2789 0.7049
vn 0.3416 0.8684 -0.3595
vn 0.8334 0.4977 0.2402
vn -0.2754 0.4059 0.8714
vn 0.0013 0.9935 -0.1134
vn 0.2162 0.9699 0.1121
vn -0.0522 0.9909 -0.1237
vn 0.3201 0.9360 -0.1462
vn -0.8598 0.4950 -0.1250
vn -0.6310 0.5259 -0.5704
vn 0.1011 0.9919 -0.0763
vn 0.2107 0.9684 0.1334
vn 0.5309 0.8474 0.0067
vn 0.1798 0.9825 -0.0477
vn 0.7760 0.5085 0.3732
vn -0.2336 0.5458 0.8047
vn 0.4778 0.8527 0.2111
vn -0.2425 0.9607 0.1353
vn 0.0676 0.5312 -0.8446
vn -0.5367 0.7675 0.3506
vn -0.0048 0.7993 0.6010
vn -0.8862 0.4380 0.1509
vn 0.6852 0.6005 0.4123
vn 0.5446 0.7084 0.4489
vn -0.5445 0.2708 0.7939
vn 0.2833 0.8207 0.4962
vn 0.4667 0.8766 0.1174
vn 0.5208 0.8532 -0.0291
vn 0.2997 0.9426 -0.1473
vn 0.4309 0.9011 0.0483
vn 0.3554 0.8429 0.4040
vn 0.4082 0.8997 -0.1546
vn 0.4359 0.9000 0.0005
vn 0.3569 0.9070 0.2234
vn -0.4701 0.8720 0.1363
vn -0.0236 0.5286 -0.8485
vn -0.0508 0.8798 0.4727
vn 0.4037 0.8781 -0.2569
vn 0.1474 0.9717 0.1844
vn -0.0686 0.9891 0.1304
vn -0.0115 0.9726 0.2321
vn -0.3592 0.4630 -0.8103
vn 0.4444 0.8958 0.0049
vn -0.1329 0.9254 -0.3551
vn 0.4382 0.8949 0.0844
vn 0.4087 0.5415 0.7347
vn 0.3127 0.9340 -0.1725
vn 0.2820 0.9487 -0.1428
vn 0.0770 0.9854 0.1520
vn 0.5314 0.8028 0.2705
vn -0.1879 0.9556 -0.2268
vn 0.4849 0.8704 -0.0855
vn 0.5274 0.8364 0.1497
vn 0.4627 0.8703 0.1687
vn 0.5074 0.8612 -0.0305
vn 0.3621 0.9270 -0.0977
vn 0.3846 0.8905 -0.2430
vn 0.5202 0.7462 -0.4155
vn -0.0099 0.7794 -0.6265
vn 0.1280 0.7524 -0.6461
vn 0.2263 0.9726 -0.0530
vn -0.0526 0.9903 0.1285
vn 0.0788 0.8873 0.4544
vn -0.2836 0.5944 0.7525
vn -0.5565 0.7922 -0.2504
vn -0.6249 0.7771 -0.0748
vn 0.1000 0.7055 -0.7017
vn -0.6448 0.7244 0.2438
vn -0.7647 0.6202 -0.1748
vn -0.5244 0.6363 -0.5658
vn -0.2140 0.8786 -0.4269
vn -0.6324 0.7699 -0.0849
vn -0.2927 0.4805 -0.8267
vn 0.4320 0.1406 -0.8908
vn -0.2909 0.9542 0.0694
vn 0.3303 0.7925 0.5127
vn 0.6306 0.5087 0.5862
vn -0.3089 0.7597 -0.5722
vn 0.7561 0.5870 0.2893
vn -0.6054 0.3787 0.7000
vn 0.2516 0.8523 -0.4586
vn -0.1493 0.5407 0.8279
vn -0.6135 0.2246 0.7571
vn 0.1028 0.9939 -0.0411
vn 0.3598 0.8268 0.4323
vn -0.6053 0.5042 0.6160
vn -0.8442 0.3738 0.3842
vn -0.5145 0.7573 0.4021
vn 0.8750 0.4840 -0.0046
vn 0.2566 0.8554 -0.4499
vn -0.1531 0.5703 -0.8070
vn 0.1641 0.9791 -0.1202
vn -0.0094 0.5318 -0.8468
vn 0.1997 0.9783 -0.0545
vn 0.3118 0.8696 0.3829
vn 0.5147 0.8272 0.2255
vn 0.4165 0.9048 -0.0884
vn 0.1870 0.9786 -0.0857
vn -0.1794 0.6884 -0.7028
vn 0.1580 0.5202 0.8393
vn -0.0450 0.7172 -0.6954
vn 0.5698 0.4669 -0.6763
vn 0.5003 0.7810 -0.3738
vn 0.7989 0.2976 0.5227
vn 0.1570 0.6506 0.7430
vn 0.4674 0.8511 0.2391
vn 0.4196 0.4324 0.7981
vn 0.3398 0.8568 -0.3878
vn 0.2193 0.9756 0.0140
vn -0.1951 0.9682 -0.1563
vn 0.7703 0.0130 0.6375
vn -0.2769 0.8365 -0.4729
vn -0.3240 0.6292 0.7065
vn -0.6762 0.7321 -0.0825
vn 0.0327 0.8706 0.4909
vn -0.9479 0.2805 -0.1509
vn 0.1477 0.6257 0.7660
vn -0.3464 0.9371 0.0425
vn -0.5911 0.7527 -0.2899
vn -0.7519 0.5733 0.3254
vn 0.2336 0.9561 -0.1767
vn 0.2095 0.9771 0.0377
vn 0.5417 0.8368 -0.0792
vn 0.2821 0.8342 -0.4737
vn 0.4624 0.8412 -0.2802
vn 0.5583 0.8250 0.0878
vn 0.3986 0.4729 0.7858
vn 0.2986 0.9544 -0.0031
vn 0.1668 0.9746 -0.1497
vn -0.6734 0.7221 0.1587
vn 0.6051 0.7928 0.0729
vn 0.5022 0.8647 -0.0076
vn 0.3478 0.7127 -0.6092
vn 0.0187 0.9721 -0.2338
vn 0.3661 0.1697 0.9150
vn 0.4671 0.8514 0.2384
vn -0.4455 0.8945 -0.0385
vn -0.3955 0.9136 0.0948
vn 0.1731 0.9697 0.1723
vn 0.1775 0.9782 -0.1080
vn 0.2345 0.9594 -0.1568
vn 0.8956 0.4320 -0.1063
vn 0.3977 0.6154 0.6805
vn -0.8547 0.5155 -0.0620
vn 0.6678 0.3016 0.6805
vn 0.4096 0.8737 -0.2623
vn 0.6519 0.7490 -0.1182
vn -0.6276 0.5382 0.5625
vn 0.2928 0.9544 -0.0585
vn -0.1655 0.9793 -0.1167
vn 0.0639 0.9761 -0.2077
vn 0.4823 0.8722 0.0817
vn 0.9082 0.4112 0.0775
vn 0.4221 0.7882 0.4478
vn 0.1093 0.9693 -0.2202
vn 0.1855 0.9745 -0.1263
vn 0.0523 0.9656 0.2547
vn 0.5386 0.8358 -0.1066
vn 0.1310 0.9823 0.1337
vn 0.0342 0.9959 -0.0834
vn 0.2134 0.9318 0.2936
vn 0.4355 0.7998 -0.4131
vn 0.8576 0.4698 0.2095
vn -0.0273 0.6664 0.7451
vn -0.5045 0.8230 0.2611
vn 0.1508 0.9879 0.0359
vn -0.0995 0.7716 -0.6282
vn -0.6005 0.2131 0.7707
vn 0.0057 0.9797 -0.2005
vn 0.3996 0.9160 -0.0358
vn 0.1581 0.9835 0.0874
vn 0.1608 0.9822 0.0973
vn -0.0091 0.9991 0.0406
vn 0.3186 0.9319 0.1737
vn 0.3136 0.9491 -0.0295
vn 0.4669 0.8708 0.1539
vn 0.3311 0.9269 -0.1767
vn 0.5052 0.8589 -0.0843
vn 0.6565 0.7439 -0.1246
vn -0.4334 0.6582 0.6156
vn -0.5168 0.8220 0.2391
vn -0.4320 0.9017 0.0167
vn -0.5279 0.4188 0.7389
vn -0.1577 0.9432 0.2924
vn -0.2389 0.9544 -0.1789
vn 0.2304 0.8090 -0.5408
vn 0.6521 0.7027 0.2845
vn -0.5062 0.8583 0.0846
vn 0.1964 0.9546 0.2240
vn -0.0689 0.5315 -0.8443
vn 0.6898 0.6585 0.3009
vn -0.5288 0.5955 -0.6048
vn -0.0442 0.5300 -0.8468
vn -0.8974 0.4381 -0.0525
vn -0.2511 0.8656 -0.4331
vn -0.2583 0.8705 0.4189
vn 0.6818 0.3979 0.6139
vn 0.7545 0.6519 -0.0759
vn -0.1583 0.8755 -0.4566
vn 0.6644 0.6040 0.4401
vn -0.6640 0.7169 0.2127
vn -0.3702 0.7217 -0.5849
vn 0.6914 0.5498 0.4688
vn -0.7998 0.2836 0.5291
vn -0.4685 0.6336 0.6157
vn -0.6009 0.2212 0.7681
vn -0.3224 0.4549 0.8302
vn -0.7172 0.6949 -0.0521
vn -0.6330 0.6943 -0.3425
vn 0.6731 0.5908 0.4447
vn 0.3031 0.6720 0.6757
vn -0.5449 0.5749 0.6103
vn -0.7418 0.5273 0.4143
vn -0.4349 0.7809 -0.4484
vn -0.1522 0.9681 -0.1990
vn -0.0423 0.8343 -0.5496
vn -0.2564 0.6290 -0.7339
vn 0.3724 0.5686 0.7335
vn 0.0399 0.9742 -0.2222
vn 0.2394 0.9702 -0.0378
vn 0.1355 0.8870 0.4414
vn 0.4016 0.8101 0.4271
vn 0.2219 0.9086 -0.3539
vn 0.1409 0.9640 -0.2256
vn 0.4305 0.8673 0.2500
vn 0.2411 0.9700 -0.0319
vn 0.2170 0.9737 -0.0688
vn 0.1501 0.9824 -0.1108
vn 0.3325 0.9430 0.0100
vn 0.1399 0.9776 -0.1570
vn 0.5556 0.7906 -0.2576
vn 0.6457 0.5148 -0.5640
vn 0.8158 0.4554 -0.3565
vn -0.0886 0.9648 -0.2478
vn -0.0110 0.9530 -0.3026
vn 0.7877 0.4962 0.3651
vn 0.6188 0.7258 0.3004
vn -0.0197 0.9944 -0.1042
vn 0.0898 0.9762 0.1975
vn 0.0592 0.9978 -0.0305
vn 0.0026 0.9747 -0.2236
vn 0.6460 0.1042 0.7562
vn -0.1636 0.9749 -0.1509
vn 0.3286 0.9407 0.0845
vn 0.5354 0.8440 0.0310
vn 0.3605 0.8833 -0.2997
vn 0.1827 0.4754 -0.8606
vn -0.5240 0.3994 0.7523
vn -0.9215 0.3878 0.0225
vn -0.7777 0.4161 -0.4712
vn -0.3180 0.9241 -0.2121
vn 0.2209 0.8447 -0.4875
vn 0.2713 0.8725 -0.4062
vn 0.0312 0.8494 -0.5269
vn 0.6621 0.7430 0.0977
vn 0.1934 0.9769 -0.0910
vn 0.1656 0.9688 0.1844
vn 0.5224 0.8367 0.1646
vn 0.4984 0.8162 0.2923
vn -0.3928 0.9130 -0.1107
vn -0.5331 0.4973 0.6845
vn 0.0171 0.0006 0.9999
vn 0.2494 0.9683 0.0157
vn 0.5303 0.8448 0.0715
vn 0.1602 0.9246 0.3457
usemtl zemlya
s off
f 170//1 35//1 150//1
f 53//2 124//2 135//2
f 147//3 148//3 164//3
f 125//4 126//4 42//4
f 162//5 151//5 83//5
f 92//6 170//6 148//6
f 92//7 25//7 170//7
f 92//8 153//8 25//8
f 73//9 153//9 92//9
f 55//10 73//10 147//10
f 53//11 135//11 86//11
f 135//12 181//12 63//12
f 135//13 124//13 181//13
f 124//14 125//14 42//14
f 82//15 189//15 81//15
f 48//16 82//16 81//16
f 35//17 193//17 150//17
f 35//18 99//18 162//18
f 60//19 101//19 126//19
f 117//20 60//20 125//20
f 126//21 48//21 42//21
f 151//22 105//22 83//22
f 120//23 189//23 82//23 159//23
f 123//24 117//24 125//24
f 193//25 35//25 47//25
f 48//26 64//26 82//26
f 124//27 123//27 125//27
f 181//28 124//28 42//28
f 148//29 147//29 73//29 92//29
f 55//30 171//30 73//30
f 170//31 25//31 35//31
f 164//32 159//32 55//32
f 83//33 105//33 67//33
f 163//34 162//34 83//34
f 162//35 74//35 151//35
f 47//36 162//36 163//36
f 64//37 160//37 159//37
f 64//38 159//38 82//38
f 73//39 171//39 153//39
f 148//40 170//40 150//40
f 164//41 55//41 147//41
f 86//42 135//42 63//42
f 126//43 101//43 48//43
f 35//44 25//44 99//44
f 47//45 35//45 162//45
f 99//46 74//46 162//46
f 101//47 64//47 48//47
f 120//48 159//48 164//48
f 125//49 60//49 126//49
f 159//50 160//50 55//50
usemtl Material.001
f 190//51 7//51 94//51
f 26//52 139//52 107//52
f 14//53 5//53 109//53
f 172//54 19//54 17//54
f 96//55 200//55 199//55
f 39//56 11//56 85//56
f 182//57 168//57 115//57
f 116//58 195//58 20//58
f 70//59 16//59 116//59
f 196//60 117//60 123//60
f 10//61 161//61 109//61
f 193//62 118//62 174//62
f 83//63 90//63 56//63
f 60//64 195//64 122//64
f 128//65 130//65 129//65
f 79//66 44//66 184//66
f 132//67 167//67 157//67
f 91//68 24//68 132//68
f 50//69 133//69 183//69
f 179//70 138//70 139//70
f 177//71 176//71 143//71
f 169//72 39//72 176//72
f 111//73 144//73 145//73
f 164//74 149//74 190//74
f 199//75 200//75 37//75
f 37//76 154//76 74//76
f 29//77 54//77 151//77
f 74//78 154//78 151//78
f 19//79 153//79 171//79
f 51//80 108//80 71//80
f 155//81 27//81 169//81
f 113//82 192//82 155//82
f 156//83 128//83 168//83
f 158//84 111//84 166//84
f 45//85 121//85 122//85
f 188//86 87//86 165//86
f 45//87 165//87 17//87
f 80//88 165//88 45//88
f 158//89 44//89 79//89
f 127//90 158//90 79//90
f 158//91 166//91 44//91
f 180//92 179//92 167//92
f 157//93 114//93 77//93
f 157//94 168//94 114//94
f 140//95 113//95 155//95
f 76//96 51//96 110//96
f 76//97 38//97 51//97
f 110//98 51//98 75//98
f 200//99 154//99 37//99
f 154//100 200//100 29//100
f 36//101 19//101 171//101
f 65//102 36//102 171//102
f 72//103 37//103 99//103
f 96//104 199//104 72//104
f 150//105 174//105 148//105
f 149//106 173//106 34//106
f 148//107 173//107 149//107
f 173//108 174//108 61//108
f 110//109 198//109 146//109
f 112//110 110//110 146//110
f 112//111 146//111 197//111
f 30//112 198//112 100//112
f 166//113 111//113 175//113
f 197//114 12//114 23//114
f 158//115 7//115 144//115
f 178//116 169//116 176//116
f 33//117 143//117 3//117
f 71//118 40//118 95//118
f 58//119 95//119 93//119
f 93//120 40//120 69//120
f 108//121 141//121 71//121
f 141//122 140//122 178//122
f 179//123 139//123 26//123
f 6//124 136//124 180//124
f 28//125 136//125 98//125
f 181//126 42//126 138//126
f 62//127 43//127 4//127
f 43//128 134//128 4//128
f 15//129 50//129 32//129
f 106//130 183//130 1//130
f 84//131 133//131 8//131
f 132//132 77//132 15//132
f 79//133 184//133 78//133
f 184//134 31//134 66//134
f 102//135 185//135 23//135
f 184//136 131//136 185//136
f 134//137 88//137 4//137
f 156//138 107//138 128//138
f 128//139 129//139 115//139
f 128//140 115//140 168//140
f 9//141 187//141 89//141
f 103//142 123//142 124//142
f 89//143 187//143 123//143
f 45//144 36//144 121//144
f 59//145 188//145 116//145
f 81//146 189//146 46//146
f 189//147 120//147 94//147
f 18//148 49//148 137//148
f 49//149 191//149 107//149
f 48//150 81//150 18//150
f 47//151 163//151 119//151
f 118//152 119//152 192//152
f 163//153 83//153 192//153
f 61//154 174//154 142//154
f 118//155 113//155 142//155
f 5//156 10//156 109//156
f 81//157 46//157 49//157
f 120//158 164//158 190//158
f 129//159 78//159 186//159
f 24//160 180//160 167//160
f 50//161 77//161 43//161
f 15//162 77//162 50//162
f 43//163 182//163 134//163
f 41//164 137//164 138//164
f 142//165 140//165 141//165
f 144//166 34//166 38//166
f 145//167 197//167 175//167
f 110//168 75//168 198//168
f 152//169 96//169 19//169
f 155//170 97//170 27//170
f 157//171 26//171 156//171
f 20//172 60//172 117//172
f 151//173 54//173 105//173
f 71//174 95//174 198//174 75//174
f 25//175 72//175 99//175
f 104//176 14//176 172//176
f 76//177 112//177 197//177 145//177
f 130//178 191//178 46//178
f 195//179 45//179 122//179
f 83//180 67//180 90//180
f 161//181 194//181 200//181
f 118//182 193//182 119//182
f 119//183 163//183 192//183
f 191//184 49//184 46//184
f 88//185 134//185 115//185 186//185
f 196//186 70//186 116//186
f 9//187 70//187 196//187
f 9//188 196//188 187//188
f 22//189 52//189 143//189 176//189
f 57//190 6//190 180//190
f 133//191 50//191 43//191
f 138//192 42//192 41//192
f 76//193 145//193 144//193 38//193
f 185//194 175//194 197//194
f 111//195 145//195 175//195
f 94//196 158//196 127//196 46//196
f 148//197 174//197 173//197
f 172//198 14//198 152//198
f 153//199 96//199 72//199
f 18//200 42//200 48//200
f 167//201 179//201 26//201
f 161//202 21//202 68//202
f 10//203 21//203 161//203
f 80//204 188//204 165//204
f 196//205 20//205 117//205
f 20//206 196//206 116//206
f 155//207 169//207 178//207 140//207
f 157//208 167//208 26//208
f 157//209 156//209 168//209
f 42//210 18//210 41//210
f 113//211 118//211 192//211
f 27//212 11//212 39//212 169//212
f 172//213 165//213 87//213 104//213
f 38//214 34//214 173//214
f 75//215 51//215 71//215
f 172//216 152//216 19//216
f 19//217 96//217 153//217
f 36//218 45//218 17//218
f 34//219 7//219 190//219 149//219
f 17//220 165//220 172//220
f 25//221 153//221 72//221
f 65//222 171//222 55//222
f 151//223 154//223 29//223
f 99//224 37//224 74//224
f 72//225 199//225 37//225
f 164//226 148//226 149//226
f 30//227 12//227 197//227 146//227
f 112//228 76//228 110//228
f 146//229 198//229 30//229
f 58//230 100//230 198//230 95//230
f 143//231 33//231 69//231 177//231
f 131//232 166//232 175//232
f 185//233 197//233 23//233
f 185//234 131//234 175//234
f 144//235 7//235 34//235
f 111//236 158//236 144//236
f 40//237 178//237 176//237
f 179//238 180//238 181//238 138//238
f 69//239 40//239 177//239
f 40//240 176//240 177//240
f 3//241 143//241 52//241
f 93//242 95//242 40//242
f 108//243 142//243 141//243
f 108//244 61//244 142//244
f 71//245 141//245 178//245
f 136//246 28//246 63//246 181//246
f 139//247 138//247 137//247
f 43//248 62//248 8//248 133//248
f 6//249 98//249 136//249
f 136//250 181//250 180//250
f 77//251 182//251 43//251
f 77//252 114//252 182//252
f 183//253 106//253 32//253 50//253
f 183//254 133//254 84//254
f 184//255 66//255 13//255 78//255
f 24//256 57//256 180//256
f 91//257 132//257 15//257
f 132//258 157//258 77//258
f 24//259 167//259 132//259
f 102//260 31//260 184//260 185//260
f 78//261 13//261 88//261 186//261
f 115//262 129//262 186//262
f 166//263 131//263 184//263 44//263
f 128//264 107//264 130//264
f 129//265 127//265 79//265
f 129//266 130//266 127//266
f 2//267 70//267 9//267
f 53//268 103//268 124//268
f 103//269 89//269 123//269
f 64//270 122//270 160//270
f 122//271 121//271 160//271
f 101//272 60//272 122//272
f 101//273 122//273 64//273
f 195//274 80//274 45//274
f 116//275 188//275 195//275
f 20//276 195//276 60//276
f 188//277 80//277 195//277
f 46//278 189//278 94//278
f 139//279 49//279 107//279
f 137//280 49//280 139//280
f 56//281 97//281 155//281 192//281
f 192//282 83//282 56//282
f 174//283 118//283 142//283
f 174//284 150//284 193//284
f 96//285 161//285 200//285
f 96//286 152//286 109//286
f 109//287 161//287 96//287
f 161//288 68//288 194//288
f 193//289 47//289 119//289
f 18//290 81//290 49//290
f 121//291 65//291 55//291
f 187//292 196//292 123//292
f 127//293 130//293 46//293
f 130//294 107//294 191//294
f 129//295 79//295 78//295
f 85//296 22//296 176//296 39//296
f 134//297 182//297 115//297
f 182//298 114//298 168//298
f 41//299 18//299 137//299
f 142//300 113//300 140//300
f 40//301 71//301 178//301
f 61//302 108//302 38//302 173//302
f 17//303 19//303 36//303
f 152//304 14//304 109//304
f 200//305 194//305 29//305
f 51//306 38//306 108//306
f 156//307 26//307 107//307
f 94//308 7//308 158//308
f 120//309 190//309 94//309
f 16//310 59//310 116//310
f 121//311 36//311 65//311
f 121//312 55//312 160//312
