# Blender v2.78 (sub 5) OBJ File: '1.blend'
# www.blender.org
mtllib 1.mtl
o rock
v -5.746165 0.246935 0.179871
v -5.817729 0.121828 0.120200
v -5.879637 0.507211 0.118982
v -5.825878 0.204595 -0.058399
v -5.834891 0.389998 0.236536
v -6.013237 -0.044830 -0.189648
v -5.928557 0.031740 -0.129429
v -5.936352 0.404059 -0.143649
v -6.199861 -0.108637 -0.046109
v -6.348145 -0.038874 -0.017040
v -6.391592 -0.019923 -0.203257
v -6.109869 -0.063788 -0.228722
v -6.258351 -0.089764 -0.217979
v -6.182335 0.005534 -0.307465
v -6.124427 -0.083865 0.115704
v -6.644866 0.086082 0.350397
v -6.596313 0.028863 -0.003241
v -6.469003 0.448736 0.341193
v -6.228839 0.596297 0.290713
v -6.716161 0.411985 0.306371
v -6.592479 0.485906 0.136949
v -6.035075 0.052445 0.378856
v -6.034369 -0.042834 0.300120
v -6.186608 0.155316 0.480924
v -6.352505 0.329034 0.538627
v -6.130266 0.399948 0.370319
v -6.010213 0.244663 0.352261
v -6.501486 0.170986 0.414631
v -6.321936 0.560882 0.120662
v -6.481524 0.553838 0.041432
v -5.959732 0.578120 -0.058756
v -6.310772 0.560486 -0.151393
v -6.157796 0.540529 -0.094519
v -6.466163 0.601993 -0.166417
v -6.517457 0.622262 -0.305735
v -6.622805 0.657141 -0.196104
v -6.024216 0.039218 -0.255411
v -6.192273 0.165737 -0.352580
v -6.283809 0.365074 -0.344284
v -6.420071 0.512108 -0.291732
v -6.130909 0.366274 -0.221924
v -6.544903 0.207622 -0.357668
v -6.330809 0.082629 -0.372036
v -6.488401 0.389808 -0.364404
v -6.722263 0.522189 -0.419803
v -6.978525 0.060747 0.244600
v -6.925995 0.445027 0.142291
v -6.848237 -0.055595 0.099577
v -6.946856 0.292193 -0.003261
v -6.774467 -0.003646 0.292131
v -6.938992 0.141944 0.334011
v -6.800179 0.601670 -0.098868
v -6.964316 0.463751 -0.019671
v -6.757832 0.663286 -0.335525
v -6.976748 0.422627 -0.256335
v -6.890285 0.328889 -0.369597
v -6.856550 0.122077 -0.083303
v -5.768584 0.407944 0.034317
v -6.904565 0.331228 0.346303
v -6.617774 0.334397 0.442568
v -6.588308 0.135046 -0.230870
v -6.853528 0.636133 -0.217900
v -6.547229 -0.053522 0.139896
v -6.324200 -0.072111 0.166368
v -6.158280 0.624700 0.170244
v -6.056854 0.279268 -0.257147
v -6.005682 0.498566 0.259199
vn 0.5458 0.0452 0.8367
vn 0.6877 -0.5931 0.4187
vn 0.7525 0.5869 0.2988
vn 0.9468 -0.1331 -0.2931
vn 0.6631 0.3982 -0.6338
vn 0.6655 0.7464 -0.0021
vn 0.5466 0.0073 0.8374
vn 0.3838 0.4337 0.8152
vn 0.8750 -0.4228 -0.2359
vn 0.7337 -0.3566 -0.5783
vn 0.4052 -0.5300 -0.7450
vn 0.6599 0.0449 -0.7500
vn 0.2375 -0.9640 -0.1197
vn -0.4626 -0.8864 0.0177
vn 0.1588 -0.9741 -0.1610
vn 0.0744 -0.7135 -0.6967
vn -0.2611 -0.8726 -0.4127
vn -0.0618 -0.9835 -0.1702
vn -0.0297 -0.9621 0.2709
vn 0.0751 -0.8529 -0.5166
vn -0.0432 -0.7176 -0.6952
vn -0.1097 0.9379 0.3291
vn -0.3220 -0.3776 0.8682
vn -0.3182 -0.0037 0.9480
vn -0.2248 -0.3174 0.9213
vn 0.0869 -0.6342 0.7683
vn -0.0021 -0.9759 0.2182
vn 0.7471 -0.4201 0.5151
vn -0.1695 -0.7620 0.6250
vn -0.3969 0.9002 0.1792
vn -0.2324 0.8939 -0.3833
vn -0.1469 0.9680 -0.2036
vn 0.4095 0.8958 0.1728
vn -0.0425 0.9991 -0.0032
vn 0.1335 0.7362 0.6634
vn 0.3482 0.5877 -0.7303
vn 0.1828 0.9739 -0.1342
vn 0.3642 0.2704 -0.8912
vn 0.5939 0.3037 -0.7450
vn 0.0347 0.1726 -0.9844
vn 0.0205 0.0509 -0.9985
vn 0.2277 0.5256 -0.8197
vn -0.4470 -0.7018 -0.5547
vn -0.2612 -0.7968 -0.5448
vn -0.4543 -0.6793 -0.5764
vn -0.5420 -0.7541 -0.3708
vn -0.1885 -0.8875 -0.4206
vn 0.1799 -0.0920 -0.9794
vn -0.5610 0.7967 0.2248
vn -0.2530 0.8333 0.4914
vn -0.1273 -0.4043 0.9057
vn -0.7237 0.5028 -0.4727
vn -0.5781 0.3061 -0.7564
vn -0.1161 0.9389 0.3239
vn 0.1935 0.5386 -0.8200
vn -0.9932 -0.0945 0.0686
vn 0.8881 -0.4002 -0.2260
vn 0.5557 -0.8267 -0.0875
vn 0.8571 0.4060 0.3171
vn 0.5105 0.6982 0.5019
vn 0.7222 0.1080 -0.6832
vn 0.4091 0.2131 0.8873
vn 0.6867 -0.7256 -0.0430
vn 0.5535 -0.8273 0.0958
vn 0.3651 -0.5060 -0.7814
vn 0.7951 0.1038 -0.5976
vn 0.6388 -0.0644 -0.7666
vn -0.4184 -0.9072 0.0428
vn -0.3568 -0.8841 0.3017
vn 0.3205 -0.9472 -0.0044
vn -0.2650 -0.9636 -0.0362
vn -0.0995 -0.9813 -0.1648
vn -0.1310 -0.8531 0.5050
vn 0.2452 -0.7517 0.6122
vn -0.3118 0.7197 0.6203
vn -0.5059 0.8570 0.0985
vn 0.4090 0.5117 0.7556
vn -0.1797 0.9430 0.2802
vn -0.2365 0.9207 0.3105
vn -0.2077 0.7778 0.5932
vn -0.1156 -0.3345 0.9353
vn 0.5761 0.0385 0.8165
vn -0.2168 -0.7436 0.6325
vn 0.5066 0.2056 0.8373
vn 0.5122 0.3025 0.8038
vn 0.0795 -0.6833 0.7258
vn -0.2037 -0.4783 0.8543
vn -0.2264 0.8985 0.3761
vn -0.3648 0.9311 0.0058
vn 0.4124 0.8027 0.4308
vn 0.4170 0.8038 0.4244
vn 0.3293 0.4920 0.8059
vn 0.2295 0.9443 0.2357
vn 0.1172 0.8038 0.5832
vn -0.1105 0.9427 0.3147
vn 0.4722 0.6525 -0.5927
vn 0.1280 0.9918 0.0038
vn 0.0765 0.4454 -0.8921
vn 0.2535 0.9662 0.0472
vn 0.3293 0.9441 0.0161
vn 0.6151 0.4626 -0.6385
vn 0.1809 0.4974 -0.8484
vn 0.5367 0.0669 -0.8411
vn 0.3486 -0.2340 -0.9076
vn 0.0899 -0.0646 -0.9938
vn 0.1409 0.4464 -0.8837
vn 0.4304 0.2711 -0.8609
vn 0.4717 0.6501 -0.5958
vn 0.1964 0.5983 -0.7769
vn -0.4283 -0.6955 -0.5769
vn 0.2772 -0.2445 -0.9292
vn -0.0276 -0.6725 -0.7396
vn -0.2609 -0.7966 -0.5453
vn -0.0423 -0.2165 -0.9754
vn -0.9610 0.1858 0.2046
vn -0.9908 0.1354 -0.0002
vn -0.9722 -0.0778 0.2210
vn -0.8150 -0.4337 -0.3843
vn -0.8789 -0.2874 -0.3807
vn -0.1987 0.7822 0.5905
vn -0.9478 0.1543 0.2790
vn -0.3567 -0.8586 0.3683
vn -0.3570 -0.6075 0.7096
vn -0.8620 0.5051 -0.0425
vn -0.4509 0.7828 0.4287
vn -0.6099 0.3157 -0.7269
vn -0.1032 0.9843 0.1433
vn -0.8986 -0.4241 -0.1124
vn -0.8425 -0.4790 -0.2467
usemtl r1
s off
f 1//1 27//1 22//1
f 22//2 2//2 1//2
f 5//3 58//3 3//3
f 58//4 1//4 4//4
f 58//5 8//5 31//5
f 31//6 3//6 58//6
f 27//7 1//7 5//7
f 67//8 26//8 5//8
f 4//9 2//9 7//9
f 6//10 37//10 7//10
f 37//11 6//11 12//11
f 4//12 66//12 8//12
f 6//13 9//13 12//13
f 13//14 10//14 11//14
f 12//15 9//15 13//15
f 14//16 12//16 13//16
f 63//17 17//17 10//17
f 10//18 64//18 63//18
f 50//19 48//19 63//19
f 63//20 48//20 17//20
f 48//21 57//21 17//21
f 47//22 20//22 21//22
f 60//23 28//23 25//23
f 59//24 51//24 60//24
f 16//25 28//25 60//25
f 24//26 23//26 22//26
f 64//27 15//27 23//27
f 2//28 22//28 23//28
f 28//29 64//29 24//29
f 34//30 21//30 30//30
f 29//31 65//31 31//31
f 33//32 29//32 31//32
f 31//33 65//33 3//33
f 29//34 32//34 30//34
f 36//35 52//35 34//35
f 41//36 32//36 33//36
f 36//37 35//37 54//37
f 35//38 44//38 45//38
f 38//39 39//39 41//39
f 38//40 43//40 42//40
f 42//41 39//41 38//41
f 8//42 66//42 41//42
f 61//43 42//43 43//43
f 61//44 57//44 56//44
f 11//45 61//45 43//45
f 11//46 17//46 61//46
f 61//47 17//47 57//47
f 42//48 45//48 44//48
f 52//49 53//49 47//49
f 20//50 47//50 59//50
f 51//51 50//51 16//51
f 62//52 54//52 55//52
f 54//53 45//53 56//53
f 62//54 52//54 36//54
f 45//55 54//55 35//55
f 55//56 49//56 53//56
f 1//57 2//57 4//57
f 2//58 23//58 15//58
f 5//59 1//59 58//59
f 3//60 67//60 5//60
f 58//61 4//61 8//61
f 5//62 26//62 27//62
f 2//63 6//63 7//63
f 6//64 2//64 15//64
f 12//65 14//65 37//65
f 66//66 7//66 37//66
f 7//67 66//67 4//67
f 9//68 10//68 13//68
f 10//69 9//69 15//69
f 9//70 6//70 15//70
f 10//71 17//71 11//71
f 10//72 15//72 64//72
f 63//73 64//73 16//73
f 16//74 50//74 63//74
f 25//75 19//75 18//75
f 18//76 19//76 29//76
f 25//77 26//77 19//77
f 20//78 18//78 21//78
f 21//79 18//79 29//79
f 60//80 20//80 59//80
f 60//81 51//81 16//81
f 22//82 27//82 24//82
f 64//83 23//83 24//83
f 24//84 27//84 25//84
f 27//85 26//85 25//85
f 28//86 16//86 64//86
f 28//87 24//87 25//87
f 30//88 21//88 29//88
f 65//89 29//89 19//89
f 19//90 67//90 65//90
f 67//91 3//91 65//91
f 67//92 19//92 26//92
f 32//93 34//93 30//93
f 34//94 52//94 47//94
f 34//95 47//95 21//95
f 32//96 41//96 40//96
f 29//97 33//97 32//97
f 31//98 8//98 33//98
f 34//99 32//99 35//99
f 35//100 36//100 34//100
f 32//101 40//101 35//101
f 38//102 41//102 66//102
f 38//103 66//103 37//103
f 38//104 37//104 14//104
f 44//105 39//105 42//105
f 40//106 39//106 44//106
f 44//107 35//107 40//107
f 39//108 40//108 41//108
f 41//109 33//109 8//109
f 43//110 13//110 11//110
f 14//111 43//111 38//111
f 43//112 14//112 13//112
f 61//113 56//113 42//113
f 42//114 56//114 45//114
f 47//115 46//115 59//115
f 46//116 47//116 49//116
f 47//117 53//117 49//117
f 57//118 48//118 46//118
f 57//119 46//119 49//119
f 25//120 18//120 20//120 60//120
f 51//121 59//121 46//121
f 50//122 46//122 48//122
f 46//123 50//123 51//123
f 53//124 62//124 55//124
f 62//125 53//125 52//125
f 54//126 56//126 55//126
f 62//127 36//127 54//127
f 57//128 49//128 55//128
f 56//129 57//129 55//129
