# Blender v2.78 (sub 5) OBJ File: '1.blend'
# www.blender.org
mtllib 2.mtl
o rock.001
v -4.564299 0.704186 0.026556
v -4.769592 0.759854 -0.016025
v -4.619503 0.801415 -0.094579
v -4.774499 0.600985 -0.027263
v -4.856291 0.425720 -0.017971
v -4.830361 0.455534 0.096976
v -4.653799 0.792194 0.099588
v -4.488101 0.392356 0.332042
v -4.391609 0.017707 0.222133
v -4.478878 0.416027 0.063947
v -4.226573 0.195539 0.006495
v -4.382187 0.353870 -0.043040
v -4.520655 0.341682 -0.194409
v -4.304963 0.190294 -0.099049
v -4.505812 0.158539 -0.393656
v -4.620499 0.063373 -0.334607
v -4.677409 0.277048 -0.262827
v -5.040121 0.292112 -0.079036
v -4.787421 0.178423 -0.149905
v -4.929746 0.264283 0.339308
v -5.097148 0.266431 0.141122
v -4.276606 -0.047089 0.035701
v -4.399151 -0.041239 -0.047974
v -4.452041 0.036083 -0.263745
v -4.964808 -0.062571 -0.062799
v -4.893878 0.034311 0.258876
v -4.713070 -0.176603 0.024810
v -4.555490 -0.222969 0.105787
v -4.726000 -0.014733 -0.168790
v -4.363602 0.338187 0.178038
v -4.779331 0.352051 -0.205243
v -4.731365 0.565789 0.215028
v -4.714994 -0.020232 0.368515
v -4.600666 -0.143302 0.274207
v -5.111193 0.031558 0.025023
v -4.780729 0.377006 0.406497
v -4.578937 0.515669 0.190064
v -4.370333 0.156186 -0.286305
v -4.520276 0.543787 -0.118181
v -5.000638 0.069361 -0.114960
v -4.880949 0.246619 0.415747
v -4.521793 0.064273 0.352946
v -4.606018 -0.047147 -0.110025
v -4.966711 -0.129555 0.071326
v -4.634617 0.638958 -0.173418
vn 0.7790 0.3753 0.5024
vn 0.6061 0.3009 -0.7362
vn 0.9593 0.2817 -0.0204
vn -0.5095 0.4136 -0.7546
vn -0.7297 0.0707 -0.6801
vn -0.7262 0.3063 -0.6155
vn -0.6764 0.5051 0.5361
vn -0.9328 0.0540 -0.3562
vn 0.6285 0.7700 -0.1097
vn 0.6248 0.7415 0.2443
vn 0.7806 0.0178 0.6248
vn 0.7876 0.0159 0.6159
vn 0.6814 0.5036 -0.5311
vn 0.6702 0.7178 0.1887
vn 0.5097 -0.3779 -0.7729
vn 0.7196 0.6347 0.2816
vn 0.6187 0.4997 -0.6062
vn 0.7045 0.2493 -0.6645
vn 0.8817 -0.4101 -0.2331
vn 0.5351 -0.4929 -0.6861
vn -0.0079 0.7359 -0.6770
vn 0.2545 0.3409 -0.9050
vn 0.1912 -0.6735 -0.7140
vn 0.3742 -0.0863 -0.9233
vn -0.3695 -0.2665 -0.8902
vn -0.5753 0.8162 -0.0538
vn -0.4088 0.7795 -0.4746
vn -0.1808 0.0386 -0.9828
vn -0.7793 -0.0372 -0.6255
vn -0.9586 0.1702 -0.2284
vn -0.7012 -0.2818 0.6549
vn -0.6492 0.5372 0.5385
vn 0.3230 0.6310 0.7054
vn 0.1227 -0.0985 0.9875
vn -0.4876 -0.7693 0.4128
vn 0.5520 -0.6868 0.4729
vn 0.0414 -0.8954 -0.4433
vn -0.2408 -0.8669 -0.4364
vn -0.1269 -0.7651 -0.6313
vn -0.2966 -0.4197 -0.8578
vn -0.6508 -0.4254 -0.6289
vn 0.7564 0.6334 0.1637
vn 0.8487 0.3074 0.4304
vn 0.9218 0.3666 -0.1259
vn -0.9004 0.4251 0.0929
vn -0.2676 0.9635 -0.0015
vn -0.8517 0.3232 0.4124
vn 0.2659 0.3640 0.8926
vn 0.7037 -0.0270 0.7100
vn 0.8297 -0.1051 0.5483
vn 0.6368 0.7610 -0.1242
vn 0.7865 -0.2311 -0.5727
vn 0.6368 0.6882 -0.3476
vn 0.7291 -0.5678 -0.3822
vn 0.4697 0.6671 -0.5782
vn -0.5400 0.1353 -0.8307
vn -0.6492 -0.1332 -0.7488
vn -0.8349 -0.0379 -0.5491
vn -0.0983 0.5185 -0.8494
vn -0.5968 -0.2183 -0.7721
vn -0.7588 0.4364 -0.4835
vn -0.2188 0.1174 -0.9687
vn -0.5850 0.8073 -0.0774
vn -0.4799 0.7736 0.4137
vn -0.7241 -0.3256 0.6081
vn -0.8352 -0.2930 0.4654
vn -0.8394 0.4793 0.2562
vn -0.6565 0.6994 0.2827
vn 0.1931 0.0426 0.9803
vn 0.2508 -0.1247 0.9600
vn 0.1138 0.7850 0.6090
vn -0.5610 -0.4696 0.6817
vn 0.5364 -0.4698 0.7011
vn 0.2564 -0.4265 0.8674
vn -0.5110 -0.8219 0.2517
vn 0.5874 -0.5803 0.5641
vn 0.2040 -0.6240 -0.7543
vn 0.1354 -0.9217 -0.3635
vn -0.0270 -0.8976 -0.4400
vn -0.6636 -0.4164 0.6215
vn -0.0177 -0.7495 0.6617
vn -0.6459 -0.6793 -0.3484
vn -0.4388 -0.8094 0.3904
vn 0.1093 -0.7590 -0.6419
vn 0.1997 -0.7812 -0.5915
vn 0.2647 -0.8543 -0.4473
usemtl r2
s off
f 7//1 37//1 1//1
f 45//2 3//2 39//2
f 39//3 1//3 10//3
f 2//4 3//4 45//4
f 4//5 2//5 45//5
f 4//6 45//6 5//6
f 32//7 7//7 2//7
f 4//8 6//8 2//8
f 10//9 37//9 30//9
f 37//10 8//10 30//10
f 30//11 8//11 9//11
f 9//12 11//12 30//12
f 14//13 12//13 11//13
f 12//14 10//14 11//14
f 22//15 23//15 14//15
f 12//16 39//16 10//16
f 13//17 12//17 14//17
f 12//18 13//18 39//18
f 23//19 38//19 14//19
f 38//20 24//20 15//20
f 15//21 17//21 13//21
f 17//22 39//22 13//22
f 15//23 24//23 16//23
f 31//24 45//24 39//24
f 19//25 18//25 31//25
f 21//26 5//26 18//26
f 31//27 18//27 5//27
f 40//28 19//28 29//28
f 40//29 35//29 18//29
f 21//30 18//30 35//30
f 26//31 21//31 35//31
f 36//32 20//32 41//32
f 37//33 32//33 36//33
f 42//34 41//34 33//34
f 26//35 34//35 33//35
f 22//36 34//36 28//36
f 24//37 43//37 16//37
f 25//38 27//38 44//38
f 27//39 25//39 29//39
f 25//40 40//40 29//40
f 25//41 35//41 40//41
f 7//42 1//42 3//42
f 10//43 1//43 37//43
f 39//44 3//44 1//44
f 4//45 5//45 6//45
f 2//46 7//46 3//46
f 6//47 32//47 2//47
f 32//48 37//48 7//48
f 42//49 9//49 8//49
f 9//50 22//50 11//50
f 11//51 10//51 30//51
f 11//52 22//52 14//52
f 38//53 13//53 14//53
f 23//54 24//54 38//54
f 15//55 13//55 38//55
f 17//56 15//56 16//56
f 19//57 17//57 29//57
f 29//58 17//58 16//58
f 31//59 39//59 17//59
f 19//60 31//60 17//60
f 31//61 5//61 45//61
f 40//62 18//62 19//62
f 6//63 5//63 21//63
f 20//64 6//64 21//64
f 21//65 26//65 20//65
f 20//66 26//66 41//66
f 6//67 36//67 32//67
f 36//68 6//68 20//68
f 8//69 41//69 42//69
f 36//70 41//70 8//70
f 8//71 37//71 36//71
f 41//72 26//72 33//72
f 9//73 42//73 34//73
f 34//74 42//74 33//74
f 26//75 28//75 34//75
f 22//76 9//76 34//76
f 28//77 27//77 22//77
f 43//78 24//78 23//78
f 16//79 43//79 29//79
f 26//80 35//80 44//80
f 26//81 44//81 27//81
f 44//82 35//82 25//82
f 28//83 26//83 27//83
f 27//84 29//84 43//84
f 27//85 43//85 23//85
f 23//86 22//86 27//86
