# Blender v2.78 (sub 5) OBJ File: '1.blend'
# www.blender.org
mtllib 6.mtl
o rock.003_rock.006
v 3.065834 0.631549 0.359879
v 2.875228 0.693122 0.346623
v 3.183123 0.573163 0.073240
v 3.151419 0.453907 0.480397
v 3.128633 0.293333 0.451523
v 2.984175 0.203922 0.513770
v 2.930178 0.560889 0.561785
v 3.266593 0.339704 0.219207
v 3.251700 0.462891 0.010740
v 3.000712 0.085325 0.367090
v 3.073856 0.069629 0.140055
v 3.098694 0.413386 -0.563641
v 3.020531 0.664239 -0.179547
v 3.364229 0.389078 -0.240395
v 3.159791 0.024135 -0.348019
v 3.350703 0.305993 -0.145446
v 3.189451 0.070921 0.040601
v 3.125156 0.030409 -0.167902
v 3.159057 0.141205 -0.616185
v 3.149008 0.044983 -0.506517
v 3.122066 0.224839 -0.658678
v 2.585038 0.787288 -0.528269
v 2.411885 0.852431 -0.440892
v 2.722096 0.833279 -0.418269
v 2.426492 0.912423 -0.050810
v 2.591743 0.912872 -0.223498
v 2.585301 0.888991 0.144949
v 2.289681 0.831542 -0.536297
v 2.042829 0.829109 -0.463063
v 1.967580 0.761078 -0.573928
v 2.360207 0.723217 -0.635099
v 2.522691 0.660887 -0.606484
v 2.015497 0.777519 -0.089551
v 1.863763 0.781420 -0.330006
v 1.714879 0.703865 -0.069795
v 1.846168 0.727034 -0.146075
v 2.118815 0.782841 0.199010
v 2.367731 0.645518 0.439911
v 2.269120 0.698084 0.520401
v 1.765062 0.726067 0.312000
v 1.567851 0.662246 0.134931
v 2.101600 0.760040 0.007721
v 1.982351 0.624073 0.601825
v 2.139087 0.512264 0.680374
v 1.681801 0.594065 0.479974
v 2.337670 0.444021 0.695461
v 2.219057 0.422386 0.707383
v 2.709975 0.620237 0.493551
v 2.705376 0.674575 0.367991
v 2.548185 0.702272 0.376812
v 2.064426 0.339413 0.772666
v 1.914258 0.448040 0.676506
v 1.783045 0.356858 0.641513
v 1.985612 0.192481 0.868545
v 2.187706 0.079040 0.930572
v 2.160444 0.192352 0.915378
v 1.844407 0.266709 0.738079
v 1.873956 0.069558 0.810927
v 2.062316 0.091211 0.886855
v 2.265225 0.280597 0.917122
v 2.457890 0.234991 0.783361
v 2.708746 0.493245 0.677837
v 2.844898 0.398828 0.651551
v 2.797732 0.497460 -0.572428
v 3.058744 0.540718 -0.476211
v 2.973404 0.445282 -0.538098
v 2.658910 0.625281 -0.607804
v 2.820756 0.667010 -0.540972
v 2.958055 0.618491 -0.443816
v 2.839784 0.737209 -0.278533
v 2.805788 0.412465 -0.571207
v 2.951648 0.264660 -0.694589
v 2.739136 0.275354 -0.797194
v 2.957047 0.385128 -0.612870
v 2.576002 0.469911 -0.766915
v 2.586958 0.370735 -0.839741
v 2.289090 0.329591 -0.844138
v 2.473550 0.223855 -0.765087
v 2.229292 0.219372 -0.807087
v 2.643040 0.243633 -0.797135
v 2.741164 0.156382 -0.773906
v 2.432457 0.160425 -0.676313
v 2.380090 0.459176 -0.767780
v 2.271824 0.594826 -0.712622
v 2.380593 0.052281 0.819095
v 2.617516 0.099922 0.660192
v 2.704468 0.044729 0.507640
v 2.682514 0.269417 0.688110
v 2.301918 0.029994 0.355028
v 1.899496 -0.037541 0.442936
v 2.351181 -0.031870 0.703666
v 2.029135 -0.011219 0.822946
v 2.629503 0.011688 0.333006
v 2.716070 -0.022811 0.161123
v 2.950663 -0.006530 0.075262
v 2.867466 -0.005933 0.123485
v 2.847589 0.020124 -0.315024
v 3.070147 0.003535 -0.061427
v 2.313756 0.080250 -0.181822
v 2.655190 -0.000108 -0.208550
v 2.529213 0.009053 -0.137629
v 2.570243 0.092441 -0.615403
v 2.343497 0.124136 -0.531313
v 2.928400 0.005048 -0.429110
v 2.946092 0.086732 -0.655662
v 1.679757 0.339224 -0.478550
v 1.887466 0.267872 -0.639710
v 1.877795 0.085865 -0.387485
v 2.105243 0.142697 -0.633134
v 1.554656 0.221435 -0.230391
v 1.525808 0.287701 -0.161761
v 1.971876 0.036470 -0.231002
v 1.721368 0.072220 -0.240418
v 1.693196 -0.018168 -0.040143
v 1.480641 0.070809 0.077332
v 1.547040 0.381503 -0.282322
v 1.611155 0.653190 -0.254473
v 1.480533 0.498116 -0.024050
v 1.611189 0.641112 -0.094220
v 1.712824 0.467045 -0.483445
v 1.937565 0.463477 -0.686442
v 1.682157 0.567994 -0.459186
v 1.910803 0.633517 -0.628075
v 2.102626 0.633629 -0.653480
v 1.420737 0.292778 0.034629
v 1.410567 0.414758 0.130237
v 1.613984 0.067399 0.529362
v 1.666225 -0.021388 0.433640
v 1.424345 0.221633 0.217549
v 1.757325 -0.026568 0.114066
v 1.697022 0.213478 0.585793
v 1.895372 -0.020997 0.709595
v 1.671584 0.023404 0.542002
v 1.558287 0.455604 0.454311
v 1.519118 0.343732 0.438324
v 1.566157 0.233389 0.490455
v 3.204299 0.168387 0.207447
v 3.214548 0.561226 -0.184242
v 3.324826 0.158764 -0.190762
v 3.296672 0.413237 -0.435818
v 3.220946 0.325390 -0.590735
v 2.372131 0.833388 0.301147
v 2.055007 0.683414 0.495864
v 2.221280 0.515201 0.619373
v 2.291398 0.185862 0.904685
v 2.498008 0.201379 0.733857
v 2.434873 0.050027 0.140498
v 2.075810 0.007173 0.180475
v 2.839898 0.018515 -0.052780
v 2.706753 0.048512 -0.630810
v 2.931725 0.171935 -0.716879
v 1.530574 0.170301 -0.116993
v 1.556099 0.490894 -0.251902
v 1.874339 0.395946 -0.673935
v 1.808859 0.131679 0.787151
v 1.847644 0.180932 0.766440
v 1.641127 0.338300 0.546572
v 2.172984 0.084211 -0.421425
v 1.768613 0.690282 -0.477502
v 2.853994 0.201568 0.573675
v 2.978025 0.689373 0.055536
v 2.832143 0.694993 0.210516
v 2.810137 0.295194 0.620466
v 3.240077 0.473972 0.178065
v 3.259881 0.215257 0.061648
v 3.319083 0.253736 -0.446306
v 3.212615 0.510021 -0.418519
v 2.146690 0.855341 -0.281274
v 2.314243 0.859907 -0.185627
v 1.960080 0.743395 0.285297
v 1.797267 0.483942 0.651708
v 2.245900 0.369075 0.846512
v 2.795950 0.400516 -0.612944
v 2.135416 -0.036840 0.530867
v 2.693103 -0.002452 -0.422009
v 2.336661 0.091335 -0.462213
v 1.714806 0.178880 -0.458212
v 1.549976 0.201210 0.475990
v 1.563482 0.018182 0.331679
v 2.313926 0.047190 -0.025985
v 2.833183 0.822783 0.060652
vn 0.0397 0.9992 0.0012
vn 0.4913 0.8707 0.0237
vn 0.5852 0.6150 0.5285
vn 0.9191 0.2696 0.2874
vn 0.5180 0.6369 0.5709
vn 0.8589 -0.2062 0.4689
vn 0.5985 -0.5886 0.5434
vn 0.5019 -0.2306 0.8336
vn 0.3725 0.2919 0.8809
vn 0.4379 0.2482 0.8641
vn 0.2261 -0.3487 0.9096
vn 0.8381 -0.3343 0.4310
vn 0.9770 0.1451 -0.1562
vn 0.5128 -0.8292 0.2225
vn 0.3869 -0.8108 0.4392
vn 0.8719 -0.4527 0.1869
vn 0.7328 0.6634 -0.1511
vn 0.3029 0.8930 -0.3328
vn 0.4564 0.8685 -0.1936
vn 0.6777 0.7340 0.0441
vn 0.4687 0.8833 -0.0097
vn 0.9781 -0.1870 -0.0915
vn 0.7859 -0.5737 -0.2309
vn 0.9105 0.2381 0.3380
vn 0.8337 -0.4529 0.3159
vn 0.4760 -0.8791 0.0240
vn 0.7674 -0.5152 -0.3817
vn 0.7719 -0.1749 -0.6112
vn 0.2846 0.4594 -0.8414
vn 0.1752 0.5473 -0.8184
vn -0.0086 0.9994 -0.0326
vn -0.1819 0.5807 -0.7935
vn 0.0887 0.8748 -0.4763
vn 0.3093 0.6766 -0.6682
vn 0.7597 0.6123 -0.2189
vn 0.0659 0.9957 0.0657
vn -0.2098 0.9574 -0.1983
vn 0.7283 0.6677 -0.1543
vn -0.0447 0.9921 -0.1176
vn -0.4190 0.8726 -0.2511
vn -0.5152 0.5189 -0.6821
vn -0.4318 0.8649 -0.2559
vn 0.3788 0.7209 -0.5804
vn 0.3274 0.7442 -0.5823
vn -0.1560 0.6083 -0.7783
vn -0.1186 0.4323 -0.8939
vn -0.3290 0.9318 0.1531
vn -0.1766 0.9482 0.2641
vn -0.2439 0.9613 -0.1279
vn -0.4912 0.8463 -0.2060
vn -0.0715 0.9503 0.3029
vn -0.2594 0.9501 0.1733
vn 0.5671 0.2723 0.7773
vn 0.2269 0.7776 0.5864
vn -0.0272 0.7807 0.6243
vn -0.5471 0.7682 0.3325
vn -0.7291 0.5844 0.3563
vn -0.2394 0.9706 -0.0250
vn -0.4805 0.8603 -0.1702
vn -0.2198 0.9076 0.3576
vn -0.1120 0.4613 0.8802
vn -0.1104 0.8975 0.4269
vn -0.6077 0.4169 0.6759
vn -0.2227 -0.0532 0.9734
vn -0.1295 0.9173 0.3765
vn -0.0527 0.6878 0.7240
vn 0.4605 0.6049 0.6496
vn 0.0649 0.7815 0.6205
vn 0.1373 0.5085 0.8500
vn 0.0737 0.8579 0.5084
vn -0.0499 0.9159 0.3982
vn 0.1780 0.8554 0.4865
vn 0.5664 0.6251 0.5370
vn -0.3116 0.5877 0.7467
vn -0.1625 0.5185 0.8395
vn -0.3771 0.6395 0.6700
vn -0.3198 0.6321 0.7058
vn -0.2485 0.2767 0.9283
vn -0.3246 0.0486 0.9446
vn -0.2587 -0.0213 0.9657
vn -0.3704 -0.0329 0.9283
vn 0.5322 -0.1788 0.8275
vn 0.1087 0.6345 0.7653
vn -0.2793 0.9169 0.2853
vn 0.6178 -0.3203 0.7181
vn 0.3914 -0.5823 0.7126
vn 0.4911 -0.3973 0.7752
vn 0.1930 0.0042 -0.9812
vn 0.2760 0.3369 -0.9002
vn 0.3511 0.1245 -0.9280
vn 0.5923 0.0685 -0.8028
vn 0.4800 0.8383 -0.2586
vn 0.3256 0.7324 -0.5979
vn 0.0918 -0.2798 -0.9556
vn 0.6087 0.2964 -0.7360
vn -0.0315 0.6377 -0.7696
vn 0.2171 0.5114 -0.8315
vn 0.2885 0.3415 -0.8945
vn -0.3528 0.1596 -0.9220
vn -0.2230 0.3895 -0.8936
vn 0.4458 -0.7299 0.5182
vn 0.4544 -0.7710 0.4463
vn 0.4911 -0.6913 0.5300
vn 0.4408 -0.3079 0.8431
vn -0.0200 -0.9979 0.0616
vn 0.0526 -0.9897 -0.1333
vn 0.2008 -0.8153 0.5432
vn 0.1353 -0.8482 0.5121
vn -0.0009 -0.9962 0.0870
vn -0.2929 -0.4360 0.8509
vn 0.1162 -0.9930 -0.0207
vn 0.1112 -0.9917 -0.0639
vn 0.1227 -0.9887 -0.0860
vn 0.1170 -0.9915 -0.0573
vn -0.2547 -0.9648 0.0654
vn 0.1743 -0.9448 0.2774
vn 0.1514 -0.9500 0.2730
vn 0.4363 -0.8770 0.2012
vn 0.0731 -0.9862 -0.1482
vn 0.3348 -0.8632 0.3780
vn 0.1224 -0.9919 0.0326
vn -0.2675 0.9123 -0.3100
vn 0.1738 -0.9808 -0.0889
vn -0.0728 -0.9575 -0.2793
vn -0.0693 -0.9886 -0.1334
vn -0.2478 -0.9670 -0.0585
vn 0.1533 -0.9666 -0.2052
vn 0.1014 -0.9879 -0.1175
vn -0.2068 -0.9239 -0.3220
vn -0.2807 -0.8560 -0.4341
vn -0.3030 -0.7245 -0.6190
vn 0.0239 -0.9716 -0.2356
vn 0.0527 -0.9407 -0.3351
vn 0.2828 -0.5278 -0.8009
vn 0.1155 -0.9373 -0.3289
vn -0.6460 -0.2582 -0.7183
vn -0.6449 -0.2333 -0.7278
vn -0.2829 -0.8433 -0.4570
vn -0.0348 -0.9661 -0.2558
vn -0.3910 -0.0956 -0.9154
vn -0.4212 -0.5891 -0.6896
vn -0.3235 -0.7589 -0.5652
vn -0.0040 -0.9140 -0.4057
vn 0.0224 -0.9730 -0.2298
vn -0.8644 -0.2094 -0.4571
vn -0.3111 -0.8572 -0.4104
vn -0.1125 -0.8997 -0.4219
vn -0.6258 -0.6173 -0.4768
vn -0.7966 -0.4011 -0.4523
vn -0.8623 0.2859 -0.4180
vn -0.9330 -0.0203 -0.3594
vn -0.9901 0.1073 -0.0909
vn -0.7244 0.6874 0.0520
vn -0.7954 0.1837 -0.5776
vn -0.7223 0.1611 -0.6726
vn -0.5992 0.4367 -0.6710
vn -0.7572 0.4669 -0.4569
vn -0.6202 0.3320 -0.7108
vn -0.6703 -0.0254 -0.7417
vn -0.8809 0.1414 0.4517
vn -0.8397 0.5354 -0.0915
vn -0.9491 -0.1462 0.2789
vn -0.9573 -0.2753 -0.0882
vn -0.8712 -0.3086 -0.3818
vn -0.4110 -0.9100 -0.0544
vn -0.5938 -0.0620 0.8022
vn -0.5167 -0.6898 0.5072
vn -0.6556 0.1230 0.7451
vn -0.6404 0.1415 0.7549
vn -0.6680 0.0817 0.7396
vn 0.7572 0.6272 0.1821
vn 0.7847 0.5593 0.2672
vn 0.3001 0.9493 0.0938
vn 0.8552 0.5176 0.0251
vn 0.5055 -0.2217 0.8339
vn 0.2985 -0.7254 0.6202
vn 0.2434 0.8528 0.4620
vn 0.4008 -0.3204 0.8583
vn 0.9082 -0.3464 0.2349
vn 0.9967 0.0465 0.0662
vn 0.6329 -0.5918 0.4992
vn 0.7172 0.6772 -0.1642
vn 0.7703 0.6162 0.1640
vn 0.4916 0.8706 0.0196
vn 0.8667 0.4919 0.0830
vn 0.3829 0.6015 -0.7011
vn -0.0262 0.5603 -0.8279
vn 0.9853 -0.1705 -0.0088
vn 0.5467 -0.8266 0.1339
vn 0.5405 -0.8413 -0.0032
vn 0.7024 -0.6980 -0.1396
vn 0.8887 0.1203 0.4425
vn 0.9220 -0.2524 0.2937
vn 0.9398 0.1522 -0.3061
vn 0.8510 0.1526 -0.5025
vn 0.5485 0.5834 -0.5990
vn 0.3188 0.6541 -0.6859
vn 0.1361 0.4593 -0.8778
vn 0.0668 0.7702 -0.6343
vn 0.6351 -0.1077 -0.7649
vn 0.0927 -0.4181 -0.9036
vn 0.0821 0.9406 -0.3294
vn 0.1828 0.4505 -0.8738
vn -0.4245 0.9054 0.0008
vn -0.2003 0.9741 -0.1051
vn 0.4297 0.8994 -0.0800
vn 0.2787 0.9581 0.0670
vn 0.4622 0.8619 -0.2085
vn -0.0675 0.9892 -0.1302
vn -0.1412 0.8836 -0.4464
vn -0.2536 0.9673 0.0053
vn -0.0137 0.5190 -0.8547
vn -0.1591 0.9376 0.3093
vn -0.2845 0.9264 0.2467
vn -0.0214 0.9959 0.0875
vn -0.0048 0.9591 0.2831
vn -0.2850 0.9257 0.2488
vn -0.2851 0.9544 -0.0881
vn -0.1057 0.9736 0.2023
vn -0.4337 0.8985 -0.0681
vn -0.1148 0.8686 0.4821
vn 0.6817 0.2022 0.7031
vn 0.6854 0.2260 0.6922
vn 0.3918 0.6849 0.6143
vn -0.2941 0.9556 -0.0169
vn 0.0082 0.8495 -0.5276
vn -0.0345 0.9344 0.3547
vn -0.3340 0.6753 0.6576
vn 0.0585 0.6275 0.7764
vn -0.1050 0.3105 0.9448
vn -0.2847 0.8172 0.5011
vn -0.4699 0.8825 0.0218
vn -0.2093 0.8946 0.3948
vn 0.0679 0.7783 0.6242
vn -0.1027 0.9936 0.0462
vn -0.3014 0.8695 0.3913
vn -0.5430 0.4133 0.7309
vn 0.1586 0.4109 0.8978
vn -0.3988 0.2336 0.8868
vn -0.3084 0.5513 0.7752
vn 0.0755 -0.1093 0.9911
vn 0.0880 0.1531 0.9843
vn 0.4606 -0.2400 0.8546
vn -0.5910 0.2330 0.7723
vn -0.7377 0.1867 0.6488
vn -0.3802 -0.1222 0.9168
vn -0.4923 0.6371 0.5931
vn 0.5779 0.0527 0.8144
vn -0.0142 0.8234 0.5673
vn 0.2716 0.1260 0.9541
vn 0.4107 -0.2692 0.8711
vn 0.0459 0.8224 0.5670
vn 0.3254 -0.2739 0.9051
vn 0.9637 0.0877 -0.2523
vn 0.1949 0.5813 -0.7900
vn 0.1556 0.6236 -0.7661
vn 0.4796 0.8384 -0.2590
vn 0.5345 0.8025 -0.2653
vn 0.0538 0.5589 -0.8275
vn 0.4365 0.1205 -0.8916
vn 0.2954 -0.1787 -0.9385
vn 0.0070 -0.4574 -0.8892
vn 0.5232 0.5412 -0.6583
vn 0.5826 0.5775 -0.5719
vn -0.1838 -0.6303 -0.7543
vn -0.0620 0.5387 -0.8402
vn 0.1628 -0.3926 -0.9052
vn 0.0623 -0.1907 -0.9797
vn -0.1774 -0.8314 -0.5267
vn 0.3722 -0.2094 -0.9042
vn 0.1088 -0.8320 -0.5441
vn -0.0287 0.5896 -0.8072
vn 0.1657 0.6610 -0.7318
vn 0.5680 0.4211 -0.7072
vn -0.2336 0.4197 -0.8771
vn 0.1081 0.4473 -0.8878
vn -0.1457 0.5829 -0.7993
vn 0.2508 -0.9651 0.0749
vn 0.5505 0.0431 0.8337
vn 0.6388 -0.0647 0.7667
vn 0.3964 -0.6507 0.6477
vn 0.4898 -0.1952 0.8497
vn -0.0661 -0.9840 -0.1653
vn 0.1795 -0.9640 -0.1964
vn 0.2193 -0.9627 -0.1582
vn -0.3350 -0.4183 0.8443
vn -0.0364 -0.9966 0.0742
vn -0.4176 -0.7196 0.5548
vn -0.0642 -0.9892 -0.1321
vn 0.0662 -0.9852 0.1580
vn 0.2362 -0.9453 0.2249
vn -0.2542 -0.9655 0.0560
vn -0.0794 -0.9890 -0.1248
vn -0.0976 -0.9942 -0.0450
vn 0.0656 -0.9967 0.0473
vn 0.0618 -0.9968 0.0502
vn 0.0588 -0.9970 0.0495
vn 0.3298 -0.9179 0.2207
vn -0.2312 -0.9724 -0.0304
vn -0.2407 -0.9202 -0.3088
vn 0.0343 -0.9987 -0.0367
vn 0.1404 -0.9852 -0.0988
vn -0.1207 -0.9872 0.1045
vn -0.2703 -0.9419 -0.1995
vn -0.3219 -0.9147 -0.2443
vn -0.2662 -0.8839 -0.3845
vn -0.0689 -0.8986 -0.4334
vn 0.0362 -0.9871 0.1561
vn 0.3005 -0.7304 -0.6133
vn 0.1293 -0.9820 -0.1380
vn 0.0672 -0.8044 -0.5902
vn -0.1899 -0.9688 0.1591
vn 0.0446 -0.9592 -0.2793
vn -0.4540 -0.2732 -0.8481
vn -0.9015 0.0524 -0.4296
vn -0.8141 -0.2447 -0.5266
vn -0.7246 -0.5574 -0.4052
vn -0.9538 -0.1400 -0.2657
vn -0.0376 -0.9592 -0.2802
vn -0.1292 -0.9653 -0.2270
vn -0.5943 -0.7292 -0.3392
vn -0.5354 -0.7391 -0.4089
vn -0.7543 -0.0723 -0.6525
vn -0.8685 0.1983 -0.4544
vn -0.8411 0.2884 -0.4575
vn -0.9022 0.3012 -0.3088
vn -0.9285 0.1978 -0.3142
vn -0.6163 0.1672 -0.7695
vn -0.1252 0.3044 -0.9443
vn -0.8661 0.2378 0.4398
vn -0.9260 -0.2700 0.2640
vn -0.9971 -0.0755 -0.0097
vn -0.8909 0.2585 0.3735
vn -0.8067 0.5069 0.3038
vn -0.7703 0.6050 -0.2015
vn -0.8769 -0.2575 0.4059
vn -0.8171 -0.5254 0.2371
vn -0.6058 -0.7243 0.3293
vn -0.2978 -0.9521 -0.0695
vn -0.0689 -0.9976 -0.0035
vn -0.1952 -0.9804 0.0278
vn 0.1220 -0.9870 -0.1045
vn -0.4633 0.7010 0.5421
vn -0.7763 -0.1248 0.6179
vn -0.5248 0.6462 0.5540
vn -0.6173 -0.7119 0.3349
vn -0.6244 -0.5227 0.5805
vn -0.6602 0.0718 0.7477
vn -0.5757 -0.4174 0.7031
vn -0.5556 -0.0045 0.8314
usemtl r6
s off
f 2//1 161//1 162//1
f 3//2 161//2 1//2
f 161//3 181//3 162//3
f 8//4 164//4 4//4
f 4//5 1//5 7//5
f 4//6 5//6 8//6
f 10//7 5//7 6//7
f 6//8 5//8 63//8
f 62//9 63//9 7//9
f 63//10 4//10 7//10
f 163//11 160//11 63//11
f 5//12 137//12 8//12
f 8//13 165//13 164//13
f 11//14 137//14 10//14
f 137//15 11//15 17//15
f 17//16 165//16 137//16
f 140//17 167//17 138//17
f 167//18 65//18 13//18
f 13//19 138//19 167//19
f 13//20 181//20 161//20
f 13//21 161//21 138//21
f 139//22 166//22 14//22
f 20//23 166//23 139//23
f 16//24 14//24 9//24
f 17//25 139//25 165//25
f 98//26 18//26 17//26
f 166//27 20//27 19//27
f 141//28 166//28 19//28
f 72//29 12//29 21//29
f 72//30 74//30 12//30
f 168//31 169//31 23//31
f 32//32 23//32 22//32
f 22//33 23//33 24//33
f 24//34 68//34 22//34
f 24//35 70//35 68//35
f 25//36 27//36 26//36
f 25//37 26//37 169//37
f 70//38 24//38 181//38
f 28//39 29//39 168//39
f 30//40 34//40 29//40
f 30//41 123//41 159//41
f 159//42 34//42 30//42
f 31//43 23//43 32//43
f 31//44 28//44 23//44
f 124//45 28//45 31//45
f 123//46 30//46 124//46
f 36//47 33//47 168//47
f 33//48 169//48 168//48
f 36//49 35//49 33//49
f 34//50 159//50 117//50
f 37//51 170//51 143//51
f 37//52 142//52 25//52
f 44//53 144//53 39//53
f 27//54 142//54 39//54
f 27//55 38//55 50//55
f 40//56 41//56 45//56
f 45//57 41//57 134//57
f 35//58 40//58 33//58
f 35//59 119//59 41//59
f 143//60 170//60 43//60
f 44//61 43//61 171//61
f 39//62 143//62 43//62
f 134//63 171//63 45//63
f 52//64 171//64 53//64
f 46//65 47//65 172//65
f 47//66 46//66 144//66
f 44//67 47//67 144//67
f 144//68 49//68 38//68
f 38//69 49//69 50//69
f 48//70 7//70 2//70
f 2//71 49//71 48//71
f 50//72 49//72 181//72
f 162//73 181//73 49//73
f 53//74 57//74 51//74
f 52//75 51//75 44//75
f 54//76 172//76 51//76
f 51//77 57//77 54//77
f 56//78 60//78 54//78
f 56//79 59//79 55//79
f 59//80 56//80 54//80
f 58//81 59//81 155//81
f 60//82 61//82 62//82
f 62//83 172//83 60//83
f 48//84 46//84 172//84
f 61//85 145//85 146//85
f 88//86 61//86 146//86
f 88//87 163//87 63//87
f 64//88 66//88 71//88
f 66//89 64//89 65//89
f 68//90 64//90 67//90
f 68//91 69//91 64//91
f 70//92 13//92 69//92
f 72//93 73//93 173//93
f 76//94 73//94 80//94
f 64//95 173//95 75//95
f 83//96 32//96 75//96
f 32//97 83//97 84//97
f 84//98 31//98 32//98
f 77//99 154//99 121//99
f 84//100 121//100 124//100
f 87//101 86//101 91//101
f 85//102 91//102 86//102
f 86//103 87//103 160//103
f 160//104 88//104 86//104
f 174//105 132//105 90//105
f 90//106 148//106 174//106
f 85//107 55//107 91//107
f 55//108 92//108 91//108
f 132//109 174//109 92//109
f 92//110 59//110 58//110
f 89//111 148//111 147//111
f 147//112 148//112 180//112
f 90//113 130//113 148//113
f 180//114 148//114 130//114
f 147//115 94//115 93//115
f 94//116 96//116 93//116
f 10//117 96//117 95//117
f 11//118 10//118 95//118
f 94//119 149//119 96//119
f 95//120 17//120 11//120
f 175//121 97//121 100//121
f 104//122 100//122 97//122
f 149//123 94//123 100//123
f 18//124 98//124 149//124
f 98//125 95//125 149//125
f 99//126 176//126 175//126
f 112//127 99//127 180//127
f 130//128 112//128 180//128
f 175//129 176//129 102//129
f 176//130 103//130 102//130
f 81//131 150//131 102//131
f 175//132 150//132 104//132
f 105//133 20//133 104//133
f 105//134 81//134 151//134
f 105//135 104//135 150//135
f 106//136 154//136 107//136
f 107//137 177//137 106//137
f 108//138 177//138 109//138
f 109//139 158//139 108//139
f 77//140 79//140 154//140
f 79//141 177//141 107//141
f 177//142 79//142 109//142
f 109//143 79//143 82//143
f 82//144 103//144 109//144
f 152//145 125//145 111//145
f 113//146 177//146 108//146
f 113//147 112//147 114//147
f 115//148 152//148 113//148
f 106//149 111//149 116//149
f 117//150 122//150 153//150
f 111//151 126//151 153//151
f 153//152 116//152 111//152
f 119//153 117//153 118//153
f 106//154 116//154 120//154
f 120//155 154//155 106//155
f 121//156 154//156 120//156
f 122//157 117//157 159//157
f 159//158 123//158 122//158
f 122//159 121//159 120//159
f 129//160 136//160 126//160
f 118//161 126//161 41//161
f 127//162 115//162 179//162
f 115//163 129//163 125//163
f 125//164 152//164 115//164
f 114//165 179//165 115//165
f 131//166 136//166 178//166
f 58//167 133//167 132//167
f 135//168 157//168 134//168
f 171//169 134//169 157//169
f 57//170 157//170 136//170
f 1//171 164//171 3//171
f 1//172 4//172 164//172
f 1//173 161//173 2//173
f 164//174 9//174 3//174
f 4//175 63//175 5//175
f 6//176 160//176 10//176
f 7//177 1//177 2//177
f 63//178 160//178 6//178
f 8//179 137//179 165//179
f 9//180 164//180 165//180
f 10//181 137//181 5//181
f 140//182 138//182 14//182
f 9//183 14//183 138//183
f 138//184 161//184 3//184
f 9//185 138//185 3//185
f 167//186 12//186 65//186
f 12//187 66//187 65//187
f 14//188 16//188 139//188
f 139//189 18//189 15//189
f 139//190 17//190 18//190
f 139//191 15//191 20//191
f 16//192 9//192 165//192
f 165//193 139//193 16//193
f 166//194 140//194 14//194
f 140//195 166//195 141//195
f 140//196 141//196 167//196
f 12//197 167//197 141//197
f 141//198 21//198 12//198
f 74//199 66//199 12//199
f 19//200 21//200 141//200
f 21//201 19//201 72//201
f 24//202 23//202 26//202
f 22//203 68//203 32//203
f 169//204 42//204 25//204
f 169//205 26//205 23//205
f 181//206 24//206 26//206
f 26//207 27//207 181//207
f 70//208 181//208 13//208
f 168//209 23//209 28//209
f 29//210 28//210 30//210
f 29//211 34//211 168//211
f 124//212 30//212 28//212
f 42//213 169//213 33//213
f 36//214 168//214 34//214
f 170//215 42//215 33//215 40//215
f 34//216 35//216 36//216
f 143//217 142//217 37//217
f 42//218 170//218 37//218
f 142//219 27//219 25//219
f 37//220 25//220 42//220
f 142//221 143//221 39//221
f 39//222 144//222 38//222
f 27//223 39//223 38//223
f 50//224 181//224 27//224
f 40//225 35//225 41//225
f 173//226 71//226 66//226 74//226
f 43//227 170//227 40//227
f 45//228 171//228 43//228
f 44//229 39//229 43//229
f 171//230 52//230 44//230
f 43//231 40//231 45//231
f 35//232 34//232 117//232 119//232
f 48//233 49//233 46//233
f 144//234 46//234 49//234
f 2//235 162//235 49//235
f 51//236 172//236 47//236
f 57//237 53//237 157//237
f 44//238 51//238 47//238
f 52//239 53//239 51//239
f 54//240 60//240 172//240
f 56//241 145//241 60//241
f 55//242 145//242 56//242
f 55//243 85//243 145//243
f 156//244 54//244 57//244
f 57//245 131//245 156//245
f 155//246 59//246 54//246
f 54//247 156//247 155//247
f 61//248 60//248 145//248
f 62//249 48//249 172//249
f 62//250 61//250 63//250
f 61//251 88//251 63//251
f 62//252 7//252 48//252
f 88//253 146//253 86//253
f 64//254 71//254 173//254
f 65//255 64//255 69//255
f 67//256 32//256 68//256
f 68//257 70//257 69//257
f 69//258 13//258 65//258
f 72//259 173//259 74//259
f 73//260 72//260 151//260
f 151//261 81//261 73//261
f 77//262 76//262 80//262 78//262
f 76//263 75//263 73//263
f 75//264 173//264 73//264
f 78//265 80//265 81//265 82//265
f 77//266 83//266 76//266
f 77//267 78//267 79//267
f 80//268 73//268 81//268
f 81//269 102//269 82//269
f 19//270 105//270 151//270 72//270
f 82//271 79//271 78//271
f 75//272 76//272 83//272
f 75//273 32//273 67//273
f 75//274 67//274 64//274
f 84//275 77//275 121//275
f 77//276 84//276 83//276
f 84//277 124//277 31//277
f 87//278 91//278 93//278
f 85//279 86//279 146//279
f 85//280 146//280 145//280
f 87//281 10//281 160//281
f 88//282 160//282 163//282
f 91//283 89//283 93//283
f 91//284 174//284 89//284
f 89//285 174//285 148//285
f 55//286 59//286 92//286
f 91//287 92//287 174//287
f 132//288 92//288 58//288
f 89//289 147//289 93//289
f 93//290 96//290 87//290
f 10//291 87//291 96//291
f 94//292 147//292 101//292
f 96//293 149//293 95//293
f 94//294 101//294 100//294
f 104//295 15//295 18//295
f 18//296 149//296 104//296
f 104//297 149//297 100//297
f 98//298 17//298 95//298
f 99//299 175//299 100//299
f 99//300 100//300 101//300
f 158//301 176//301 99//301
f 99//302 112//302 158//302
f 101//303 147//303 180//303
f 101//304 180//304 99//304
f 102//305 150//305 175//305
f 102//306 103//306 82//306
f 176//307 158//307 103//307
f 175//308 104//308 97//308
f 105//309 19//309 20//309
f 104//310 20//310 15//310
f 105//311 150//311 81//311
f 132//312 133//312 128//312 90//312
f 109//313 103//313 158//313
f 154//314 79//314 107//314
f 110//315 111//315 106//315
f 110//316 106//316 177//316
f 177//317 152//317 110//317
f 152//318 111//318 110//318
f 108//319 158//319 112//319
f 108//320 112//320 113//320
f 113//321 152//321 177//321
f 114//322 115//322 113//322
f 116//323 122//323 120//323
f 116//324 153//324 122//324
f 111//325 125//325 126//325
f 117//326 153//326 118//326
f 153//327 126//327 118//327
f 122//328 123//328 121//328
f 124//329 121//329 123//329
f 129//330 178//330 136//330
f 126//331 136//331 135//331
f 125//332 129//332 126//332
f 126//333 135//333 134//333
f 134//334 41//334 126//334
f 41//335 119//335 118//335
f 127//336 178//336 129//336
f 127//337 129//337 115//337
f 128//338 133//338 179//338
f 130//339 128//339 179//339
f 130//340 90//340 128//340
f 179//341 114//341 130//341
f 114//342 112//342 130//342
f 131//343 178//343 155//343
f 178//344 127//344 155//344
f 155//345 156//345 131//345
f 127//346 179//346 133//346
f 127//347 133//347 58//347 155//347
f 136//348 157//348 135//348
f 131//349 57//349 136//349
f 157//350 53//350 171//350
