# Blender v2.78 (sub 5) OBJ File: ''
# www.blender.org
mtllib 1.mtl
o Cube_Cube.001
v 2.667649 0.729230 -0.331029
v -0.067886 0.808300 -0.351734
v 2.733716 0.370978 -0.352209
v -2.592156 0.675509 -0.355126
v -1.244261 0.470245 -0.351780
v 2.738099 0.600689 0.292401
v -0.215075 0.795005 0.289593
v -2.539517 0.667105 0.289852
v 2.791209 0.839887 -0.038871
v 0.113019 1.129432 -0.024776
v 1.334256 0.769635 -0.025823
v -1.403313 0.620824 -0.031765
v 2.169401 1.010851 -0.035769
v 2.848768 0.016659 -0.024900
v -0.387553 1.069013 -0.034769
v -3.093260 0.581106 -0.032548
v -2.344978 0.886088 -0.029171
v 3.145584 0.408395 -0.033006
v 2.514228 0.040412 0.288416
v 2.668810 0.029557 -0.327004
v -0.005708 1.077822 -0.266204
v -1.378823 0.575572 -0.278197
v -2.381727 0.837116 -0.270044
v 1.374390 0.535972 -0.352062
v 1.315287 0.713338 0.211532
v -0.051603 1.067692 0.204148
v -1.388102 0.576991 0.211410
v -1.394263 0.463687 0.288550
v -2.998654 0.585391 0.208298
v -2.369048 0.834908 0.207351
v 1.434580 0.545501 0.288341
v -2.778085 0.837876 0.031224
v -2.818849 0.737503 -0.270398
v 1.357557 0.722699 -0.270419
v -2.974670 0.413022 -0.269416
v 3.055568 0.397983 -0.268320
v -2.515188 0.040513 -0.352299
v 2.286956 0.956924 -0.266420
v 2.758003 0.780972 0.199781
v 3.055591 0.398766 0.203764
v -2.572316 0.061955 0.288616
v 2.197443 0.942703 0.205162
v -2.752904 0.023800 0.214013
v -2.849509 0.030829 -0.233889
v 2.783386 0.038694 0.210394
vn -0.0203 0.2414 -0.9702
vn -0.0001 0.0009 -1.0000
vn 0.0546 0.2905 -0.9553
vn -0.0020 0.0073 -1.0000
vn 0.1014 0.6535 -0.7501
vn 0.0018 -0.0042 -1.0000
vn -0.0088 -0.0719 -0.9974
vn -0.1345 0.5931 -0.7938
vn -0.3227 -0.1918 -0.9269
vn -0.1998 -0.0286 -0.9794
vn 0.1357 0.4408 0.8873
vn -0.0127 0.2283 0.9735
vn 0.0008 -0.0021 1.0000
vn -0.0029 -0.0060 1.0000
vn -0.1762 0.0075 0.9843
vn -0.0053 0.0156 0.9999
vn -0.1585 0.5615 0.8121
vn 0.2276 0.8865 0.4028
vn 0.2744 0.9305 0.2426
vn -0.9181 -0.3221 -0.2311
vn 0.0225 -0.9948 0.0994
vn -0.3961 0.8990 0.1868
vn -0.1214 0.9768 0.1761
vn -0.0803 0.9759 0.2030
vn -0.0037 -0.8866 0.4625
vn 0.0072 0.0603 -0.9982
vn 0.2429 0.1018 -0.9647
vn 0.1030 0.4063 -0.9079
vn 0.0660 0.3390 0.9385
vn 0.0891 0.3706 -0.9245
vn 0.2598 -0.1201 -0.9582
vn -0.3109 0.1465 -0.9391
vn -0.0948 0.3916 -0.9152
vn 0.4586 0.3655 0.8100
vn 0.0004 -0.0025 1.0000
vn 0.2318 -0.1221 0.9651
vn -0.1295 0.3664 0.9214
vn 0.0997 0.5563 0.8250
vn 0.0916 0.3629 0.9273
vn -0.2658 0.6734 0.6898
vn 0.7474 0.6022 0.2805
vn -0.3516 -0.1444 0.9249
vn -0.0875 0.3624 0.9279
vn 0.3943 0.7917 -0.4666
vn 0.6709 0.6158 -0.4130
vn 0.2583 0.9357 -0.2404
vn -0.2538 0.9349 0.2481
vn -0.2512 0.9290 -0.2716
vn -0.8721 -0.4262 0.2404
vn -0.1172 0.3688 -0.9221
vn -0.0011 -0.9985 -0.0540
vn 0.0020 -0.9970 0.0778
vn 0.2639 0.9317 0.2497
vn -0.0019 -0.9999 -0.0153
vn -0.3957 0.8955 -0.2038
vn 0.2558 0.9479 -0.1897
vn 0.2636 0.9604 -0.0902
vn -0.3007 0.8331 -0.4643
vn -0.3078 0.8449 0.4375
vn -0.1154 0.9815 -0.1531
vn -0.7192 0.3436 -0.6039
vn -0.6419 0.7285 0.2392
vn -0.5995 0.7802 -0.1786
vn 0.2575 0.9469 0.1923
vn -0.1786 0.9549 -0.2374
vn 0.7705 -0.5779 0.2688
vn 0.7061 -0.6112 -0.3576
vn 0.0000 0.0002 1.0000
vn 0.0048 -0.0372 -0.9993
usemtl 1
s off
f 24//1 38//1 1//1
f 24//2 37//2 2//2
f 2//3 21//3 24//3
f 37//4 5//4 2//4
f 4//5 22//5 5//5
f 5//6 37//6 4//6
f 20//7 24//7 3//7
f 33//8 23//8 4//8
f 37//9 44//9 35//9
f 35//10 4//10 37//10
f 6//11 39//11 42//11
f 42//12 31//12 6//12
f 41//13 28//13 8//13
f 31//14 19//14 6//14
f 29//15 41//15 8//15
f 28//16 41//16 7//16
f 7//17 27//17 28//17
f 10//18 26//18 25//18
f 25//19 11//19 10//19
f 35//20 44//20 16//20
f 14//21 45//21 19//21
f 12//22 27//22 15//22
f 15//23 26//23 10//23
f 17//24 32//24 30//24
f 43//25 19//25 41//25
f 1//26 3//26 24//26
f 1//27 36//27 3//27
f 24//28 21//28 34//28
f 7//29 31//29 25//29 26//29
f 4//30 23//30 22//30
f 3//31 36//31 20//31
f 4//32 35//32 33//32
f 34//33 38//33 24//33
f 6//34 40//34 39//34
f 31//35 7//35 41//35
f 45//36 40//36 6//36 19//36
f 7//37 26//37 27//37
f 8//38 28//38 27//38
f 27//39 30//39 8//39
f 29//40 8//40 30//40 32//40
f 40//41 18//41 9//41 39//41
f 41//42 29//42 43//42
f 31//43 42//43 25//43
f 9//44 1//44 38//44
f 36//45 1//45 9//45 18//45
f 21//46 10//46 11//46 34//46
f 42//47 13//47 11//47 25//47
f 38//48 34//48 11//48 13//48
f 29//49 16//49 44//49 43//49
f 22//50 21//50 2//50 5//50
f 20//51 14//51 44//51 37//51
f 14//52 19//52 43//52
f 39//53 9//53 13//53 42//53
f 44//54 14//54 43//54
f 12//55 15//55 22//55
f 23//56 17//56 12//56 22//56
f 13//57 9//57 38//57
f 21//58 22//58 15//58
f 15//59 27//59 26//59
f 15//60 10//60 21//60
f 16//61 33//61 35//61
f 16//62 29//62 32//62
f 16//63 32//63 33//63
f 30//64 27//64 12//64 17//64
f 33//65 32//65 17//65 23//65
f 14//66 18//66 40//66 45//66
f 36//67 18//67 14//67 20//67
f 19//68 31//68 41//68
f 20//69 37//69 24//69
